<svg width="42" height="35" viewBox="0 0 42 35" fill="none" xmlns="http://www.w3.org/2000/svg">
<path d="M35.0001 9.33337H1.16675V32.6667H35.0001V9.33337Z" stroke="#404040" stroke-miterlimit="10"/>
<path d="M7 9.33337V2.33337H40.8333V25.6667H35" stroke="#404040" stroke-miterlimit="10"/>
<path d="M12.8333 28C16.6833 28 19.8333 24.85 19.8333 21C19.8333 17.15 16.6833 14 12.8333 14C8.98325 14 5.83325 17.15 5.83325 21C5.83325 24.85 8.98325 28 12.8333 28Z" stroke="#404040" stroke-miterlimit="10"/>
<path d="M23.3333 28C27.1833 28 30.3333 24.85 30.3333 21C30.3333 17.15 27.1833 14 23.3333 14C19.4833 14 16.3333 17.15 16.3333 21C16.3333 24.85 19.4833 28 23.3333 28Z" stroke="#404040" stroke-miterlimit="10"/>
</svg>
