<svg width="42" height="35" viewBox="0 0 42 35" fill="none" xmlns="http://www.w3.org/2000/svg">
<path d="M4.42847 24.5H37.4998" stroke="#404040" stroke-miterlimit="10"/>
<path d="M37.4285 7H4.42847V29.1667H37.4285V7Z" stroke="#404040" stroke-miterlimit="10"/>
<path d="M21 21C23.8572 21 26.1429 18.6667 26.1429 15.75C26.1429 12.8333 23.8572 10.5 21 10.5C18.1429 10.5 15.8572 12.8333 15.8572 15.75C15.8572 18.6667 18.1429 21 21 21Z" stroke="#404040" stroke-miterlimit="10" stroke-linecap="round"/>
<path d="M10.7143 17.5C11.6286 17.5 12.4286 16.6833 12.4286 15.75C12.4286 14.8167 11.6286 14 10.7143 14C9.8 14 9 14.8167 9 15.75C9 16.6833 9.8 17.5 10.7143 17.5Z" stroke="#404040" stroke-miterlimit="10" stroke-linecap="round"/>
<path d="M31.2858 17.5C32.2001 17.5 33.0001 16.6833 33.0001 15.75C33.0001 14.8167 32.2001 14 31.2858 14C30.3715 14 29.5715 14.8167 29.5715 15.75C29.5715 16.6833 30.3715 17.5 31.2858 17.5Z" stroke="#404040" stroke-miterlimit="10" stroke-linecap="round"/>
</svg>
