<svg width="40" height="25" viewBox="0 0 40 25" fill="none" xmlns="http://www.w3.org/2000/svg">
<path d="M25.4731 2.68457H14.6292V22.3127H25.4731V2.68457Z" fill="#989898"/>
<path d="M15.243 12.5C15.243 8.47107 17.0844 4.95868 19.9489 2.68595C17.9028 1.03306 15.243 0 12.3785 0C5.5243 0 0 5.57851 0 12.5C0 19.4215 5.5243 25 12.3785 25C15.243 25 17.9028 23.9669 20.0512 22.314C17.0844 20.0413 15.243 16.4256 15.243 12.5Z" fill="#404040"/>
<path d="M39.9999 12.5C39.9999 19.4215 34.4756 25 27.6214 25C24.7569 25 22.0971 23.9669 19.9487 22.314C22.8132 20.0413 24.6546 16.5289 24.6546 12.5C24.6546 8.47107 22.8132 4.95868 19.9487 2.68595C22.0971 1.03306 24.7569 0 27.6214 0C34.4756 0 39.9999 5.57851 39.9999 12.5Z" fill="#989898"/>
</svg>
