<svg width="50" height="17" viewBox="0 0 50 17" fill="none" xmlns="http://www.w3.org/2000/svg">
<path d="M21.7204 16.1821H17.6344L20.2151 0.817881H24.3011L21.7204 16.1821ZM14.1936 0.711921L10.3226 11.3079L9.89247 8.97682L8.49463 2.0894C8.49463 2.0894 8.27957 0.711921 6.55914 0.711921H0.107529L0 0.923841C0 0.923841 1.93548 1.34768 4.30108 2.72517L7.84947 16.0762H12.043L18.4946 0.711921H14.1936ZM46.2366 16.1821H50L46.7742 0.817881H43.5484C42.043 0.817881 41.7204 1.98344 41.7204 1.98344L35.6989 16.2881H39.8925L40.7527 13.957H45.914L46.2366 16.1821ZM41.828 10.6722L43.9785 4.95033L45.1613 10.6722H41.828ZM35.8065 4.42053L36.4516 1.13576C36.4516 1.13576 34.6237 0.5 32.7957 0.5C30.7527 0.5 26.0215 1.34768 26.0215 5.58609C26.0215 9.61258 31.6129 9.61258 31.6129 11.7318C31.6129 13.851 26.5591 13.4272 24.9462 12.1556L24.3011 15.6523C24.3011 15.6523 26.129 16.5 28.9247 16.5C31.7204 16.5 35.914 15.1225 35.914 11.202C35.914 7.1755 30.2151 6.85762 30.2151 5.05629C30.1075 3.25497 34.086 3.46689 35.8065 4.42053Z" fill="#404040"/>
</svg>
