<svg width="52" height="45" viewBox="0 0 52 45" fill="none" xmlns="http://www.w3.org/2000/svg">
<rect x="0.5" y="0.939453" width="51" height="38" rx="1" fill="black"/>
<rect x="0.5" y="0.939453" width="51" height="38" rx="1" stroke="black"/>
<path d="M21.9647 39.3392C21.7901 39.0886 21.3029 38.9395 21 38.9395V38.4395H31V38.9395C30.6971 38.9395 30.21 39.0886 30.0354 39.3392L26.7616 43.5399C26.3908 44.0727 25.61 44.0727 25.2388 43.5399L21.9647 39.3392Z" fill="black"/>
<path d="M21 38.9395H20.5V39.4395H21V38.9395ZM21.9647 39.3392L21.5545 39.625L21.5622 39.636L21.5704 39.6465L21.9647 39.3392ZM25.2388 43.5399L25.649 43.254L25.6414 43.2431L25.6332 43.2325L25.2388 43.5399ZM26.7616 43.5399L26.3672 43.2325L26.3589 43.2432L26.3512 43.2543L26.7616 43.5399ZM30.0354 39.3392L30.4298 39.6465L30.438 39.636L30.4456 39.625L30.0354 39.3392ZM31 38.9395V39.4395H31.5V38.9395H31ZM21 38.4395V37.9395C20.7239 37.9395 20.5 38.1633 20.5 38.4395H21ZM31 38.4395H31.5C31.5 38.1633 31.2761 37.9395 31 37.9395V38.4395ZM21 39.4395C21.0822 39.4395 21.2198 39.4624 21.3537 39.5131C21.418 39.5374 21.4704 39.564 21.5085 39.589C21.5485 39.6152 21.558 39.6301 21.5545 39.625L22.3749 39.0533C22.2019 38.805 21.9235 38.6594 21.7073 38.5777C21.4781 38.491 21.2207 38.4395 21 38.4395V39.4395ZM21.5704 39.6465L24.8444 43.8472L25.6332 43.2325L22.3591 39.0318L21.5704 39.6465ZM24.8286 43.8257C25.3986 44.6439 26.6022 44.6443 27.172 43.8255L26.3512 43.2543C26.1795 43.501 25.8214 43.5014 25.649 43.254L24.8286 43.8257ZM27.1559 43.8472L30.4298 39.6465L29.6411 39.0318L26.3672 43.2325L27.1559 43.8472ZM30.4456 39.625C30.4422 39.63 30.4517 39.6152 30.4916 39.589C30.5297 39.564 30.5822 39.5373 30.6464 39.513C30.7803 39.4624 30.9178 39.4395 31 39.4395V38.4395C30.7793 38.4395 30.5219 38.4911 30.2928 38.5777C30.0765 38.6594 29.7982 38.8051 29.6252 39.0533L30.4456 39.625ZM21.5 38.9395V38.4395H20.5V38.9395H21.5ZM21 38.9395H31V37.9395H21V38.9395ZM30.5 38.4395V38.9395H31.5V38.4395H30.5Z" fill="black"/>
<path d="M21 38.9395C21.3029 38.9395 21.7901 39.0886 21.9647 39.3392L25.2388 43.5399C25.61 44.0727 26.3908 44.0727 26.7616 43.5399L30.0354 39.3392C30.21 39.0886 30.6971 38.9395 31 38.9395" stroke="black"/>
<path d="M12.2756 21.7364V19V16.2637C12.2756 15.2502 13.0684 14.4395 14.0594 14.4395L24.365 14.4395" stroke="white" stroke-miterlimit="10"/>
<path d="M39.8233 21.7364H39.7242V19V16.2637C39.7242 15.2502 38.9314 14.4395 37.9404 14.4395H27.8323" stroke="white" stroke-miterlimit="10"/>
<path d="M26.0479 16.2637C26.0479 15.2502 26.8406 14.4395 27.8316 14.4395" stroke="white" stroke-miterlimit="10"/>
<path d="M26.0488 16.2637C26.0488 15.2502 25.256 14.4395 24.265 14.4395" stroke="white" stroke-miterlimit="10"/>
<path d="M26.0479 21.7371V19.0007V16.2644" stroke="white" stroke-miterlimit="10"/>
<path d="M42.3009 21.7366H9.69727" stroke="white" stroke-miterlimit="10"/>
<path d="M40.7162 27.6146H42.3018C42.4009 27.6146 42.5 27.5133 42.5 27.4119V24.6249V21.8379C42.5 21.7366 42.4009 21.7366 42.3018 21.7366H40.7162H10.9865H9.6982C9.5991 21.7366 9.5 21.8379 9.5 21.9393V24.7263V27.5133C9.5 27.6146 9.5991 27.6146 9.6982 27.6146H10.9865" stroke="white" stroke-miterlimit="10"/>
<path d="M9.5 27.5133C9.5 27.6146 9.5991 27.6146 9.6982 27.6146H10.9865M42.5 27.4119C42.5 27.5133 42.4009 27.6146 42.3018 27.6146H40.7162M42.5 22.3452V21.8379C42.5 21.7366 42.4009 21.7366 42.3018 21.7366H40.7162H10.9865H9.6982C9.5991 21.7366 9.5 21.8379 9.5 21.9393V22.3452" stroke="white" stroke-miterlimit="10"/>
<path d="M9.69727 27.6145H42.3009" stroke="white" stroke-miterlimit="10"/>
<path d="M24.3638 27.6145H27.3367" stroke="white" stroke-miterlimit="10"/>
<path d="M10.4902 27.4126V27.4126V29.4395" stroke="white" stroke-miterlimit="10"/>
<path d="M41.2107 29.4395V27.4126" stroke="white" stroke-miterlimit="10"/>
<path d="M26.0488 21.7363V27.6144" stroke="white" stroke-miterlimit="10"/>
</svg>
