<svg width="52" height="45" viewBox="0 0 52 45" fill="none" xmlns="http://www.w3.org/2000/svg">
<path d="M30.0353 39.4098C30.2099 39.1628 30.4941 39.0157 30.797 39.0157H51.0685C51.5829 39.0157 52 38.5996 52 38.0863V1.36881L30.0353 39.4098ZM30.0353 39.4098L26.7614 44.0454L30.0353 39.4098ZM22.3731 39.1214L22.373 39.1213C22.1046 38.7415 21.6682 38.5157 21.203 38.5157H0.931539C0.692124 38.5157 0.5 38.3223 0.5 38.0863V1.36881C0.5 1.13281 0.692122 0.939453 0.931539 0.939453H51.0689C51.3084 0.939453 51.5002 1.1328 51.5 1.36835V1.36881V38.0863C51.5 38.3223 51.3079 38.5157 51.0685 38.5157H30.797C30.3319 38.5157 29.8954 38.7415 29.627 39.1213L29.6269 39.1214L26.353 43.757L26.3529 43.7571C26.1815 44 25.8192 44.0005 25.647 43.757C25.647 43.7569 25.647 43.7569 25.647 43.7569L22.3731 39.1214Z" fill="#F5F3F1" stroke="black"/>
<path d="M26.0399 20.2177H11.0234V14.384C11.0234 13.3037 11.8877 12.4395 12.968 12.4395H23.9872C25.0676 12.4395 25.9318 13.3037 25.9318 14.384V20.2177H26.0399Z" stroke="black" stroke-miterlimit="10"/>
<path d="M41.0565 20.2177H26.04V14.384C26.04 13.3037 26.9043 12.4395 27.9846 12.4395H39.0038C40.0842 12.4395 40.9484 13.3037 40.9484 14.384V20.2177H41.0565Z" stroke="black" stroke-miterlimit="10"/>
<path d="M43.7585 20.2183H8.21606C8.10803 20.2183 8 20.3263 8 20.4343V26.3761C8 26.4841 8.10803 26.4841 8.21606 26.4841H43.7585C43.8665 26.4841 43.9746 26.3761 43.9746 26.268V20.3263C43.9746 20.2183 43.8665 20.2183 43.7585 20.2183Z" stroke="black" stroke-miterlimit="10"/>
<path d="M8.1091 26.4834C8.00107 26.4834 8.00107 26.4834 8.1091 26.4834V28.644" stroke="black" stroke-miterlimit="10"/>
<path d="M43.9731 28.6442V26.5916" stroke="black" stroke-miterlimit="10"/>
<path d="M26.04 20.2183V26.4841" stroke="black" stroke-miterlimit="10"/>
</svg>
