<svg width="245" height="135" viewBox="0 0 245 135" fill="none" xmlns="http://www.w3.org/2000/svg">
<path d="M205.841 134C195.963 134 187.903 125.936 187.903 116.047C187.903 106.162 195.963 98.0977 205.841 98.0977C215.724 98.0977 223.779 106.162 223.779 116.047C223.779 125.936 215.724 134 205.841 134Z" stroke="#989898" stroke-miterlimit="10"/>
<path d="M205.516 126.818C199.407 126.818 194.427 121.831 194.427 115.719C194.427 109.607 199.407 104.624 205.516 104.624C211.624 104.624 216.604 109.607 216.604 115.719C216.604 121.831 211.624 126.818 205.516 126.818Z" stroke="#989898" stroke-miterlimit="10"/>
<path d="M205.517 124.206C200.849 124.206 197.037 120.543 197.037 116.045C197.037 111.551 200.849 107.887 205.517 107.887C210.186 107.887 213.997 111.551 213.997 116.045C213.997 120.541 210.186 124.206 205.517 124.206Z" stroke="#989898" stroke-miterlimit="10"/>
<path d="M226.693 120.29L240.205 117.253C240.205 117.253 243.572 115.224 243.977 110.497C244.382 105.768 239.395 83.881 227.935 77.9368C216.479 71.9927 202.592 69.561 199.492 67.3968C196.39 65.2366 161.611 44.2957 161.611 44.2957C161.611 44.2957 156.487 40.7805 144.894 40.2402C133.3 39.6998 24.511 40.2402 24.511 40.2402C24.511 40.2402 19.791 39.8335 18.0412 43.2122C16.2874 46.5896 6.44781 72.6668 6.44781 72.6668C6.44781 72.6668 5.63775 74.2866 5.90912 77.6639C6.17644 81.0413 6.58147 90.9032 6.58147 90.9032C6.58147 90.9032 6.98651 91.8488 5.37043 95.7666C3.75029 99.6843 2.00055 104.009 2.00055 104.009V111.844C2.00055 111.844 1.86283 114.82 5.90912 115.221C8.17866 115.451 17.7739 116.19 25.7423 116.795C25.7315 116.52 25.7274 116.244 25.7274 115.964C25.7274 103.767 35.5941 93.8779 47.7653 93.8779C59.9406 93.8779 69.8073 103.767 69.8073 115.964C69.8073 116.718 69.7735 117.461 69.6966 118.198H184.509C184.432 117.463 184.394 116.72 184.394 115.964C184.394 104.138 193.958 94.5521 205.76 94.5521C217.561 94.5521 227.128 104.138 227.128 115.964C227.128 117.448 226.975 118.892 226.693 120.29Z" stroke="#989898" stroke-miterlimit="10"/>
<path d="M47.9838 133.996C38.1067 133.996 30.0478 125.932 30.0478 116.043C30.0478 106.158 38.1067 98.0938 47.9838 98.0938C57.8649 98.0938 65.9238 106.158 65.9238 116.043C65.9238 125.932 57.8649 133.996 47.9838 133.996Z" stroke="#989898" stroke-miterlimit="10"/>
<path d="M47.6581 126.818C41.5505 126.818 36.5711 121.831 36.5711 115.719C36.5711 109.607 41.5505 104.624 47.6581 104.624C53.7656 104.624 58.749 109.607 58.749 115.719C58.749 121.831 53.7656 126.818 47.6581 126.818Z" stroke="#989898" stroke-miterlimit="10"/>
<path d="M47.6598 124.206C42.9901 124.206 39.182 120.543 39.182 116.045C39.182 111.551 42.9901 107.887 47.6598 107.887C52.3335 107.887 56.1416 111.551 56.1416 116.045C56.1416 120.541 52.3335 124.206 47.6598 124.206Z" stroke="#989898" stroke-miterlimit="10"/>
<path d="M29.3945 103.317L2.6506 102.664" stroke="#989898" stroke-miterlimit="10"/>
<path d="M9.11192 64.8057H10.8243C10.8243 64.8057 14.9911 75.9184 14.3205 78.2787C13.6499 80.6349 6.43535 92.4829 6.43535 92.4829" stroke="#989898" stroke-miterlimit="10"/>
<path d="M193.435 68.4615C188.018 64.3659 169.694 50.7927 160.51 47.5871C149.656 43.7985 139.343 43.9365 139.343 43.9365C139.343 43.9365 136.831 43.5997 137.035 45.6921C137.239 47.79 138.323 59.9632 138.323 59.9632L142.87 66.8614C142.87 66.8614 144.024 67.6053 146.941 68.0111C149.471 68.3641 183.419 71.2126 192.355 71.9566C195.846 72.2541 195.723 70.1941 193.435 68.4615Z" stroke="#989898" stroke-miterlimit="10"/>
<path d="M230.655 83.4953C225.711 80.1036 220.381 78.5156 220.381 78.5156L217.908 79.4134C217.908 79.4134 227.986 94.2833 233.059 96.7068C238.132 99.1261 239.434 99.4041 239.434 99.4041C238.183 92.77 236.616 87.5815 230.655 83.4953Z" stroke="#989898" stroke-miterlimit="10"/>
<path d="M244 107.887H225.084" stroke="#989898" stroke-miterlimit="10"/>
<path d="M133.112 40V118.332" stroke="#989898" stroke-miterlimit="10"/>
<path d="M174.203 70.6791V55.0127" stroke="#989898" stroke-miterlimit="10"/>
<rect x="-0.5" y="0.5" width="10.7412" height="7.61651" rx="2.5" transform="matrix(-1 0 0 1 30.873 83.8633)" stroke="#989898"/>
</svg>
