<svg width="101" height="136" viewBox="0 0 101 136" fill="none" xmlns="http://www.w3.org/2000/svg">
<path d="M21.6135 86.8569L4.68848 135H7.41151L26.1391 86.8569H21.6135Z" stroke="#989898" stroke-miterlimit="10"/>
<path d="M52.8386 86.8569L69.7599 135H67.0407L48.313 86.8569H52.8386Z" stroke="#989898" stroke-miterlimit="10"/>
<path d="M52.595 98.3164L16.0947 111.855" stroke="#989898" stroke-miterlimit="10"/>
<path d="M21.6152 98.3164L58.0311 111.855" stroke="#989898" stroke-miterlimit="10"/>
<path d="M13.4326 80.1507C14.3377 76.3769 16.497 73.7212 19.0168 73.7212H56.1614C58.662 73.7212 60.8097 76.3388 61.7263 80.0744" stroke="#989898" stroke-miterlimit="10"/>
<path d="M67.7376 50.515V71.9288C67.7376 76.6259 63.91 80.434 59.1887 80.434H15.2595C10.4309 80.434 6.51512 76.5382 6.51512 71.7342V50.515C6.51512 49.0001 5.28014 47.7715 3.75754 47.7715C2.23494 47.7715 1 49.0001 1 50.515V71.9555C1 80.1822 7.70403 86.8559 15.9767 86.8559H58.4677C66.7365 86.8559 73.4444 80.186 73.4444 71.9555V50.515C73.4444 49.0001 72.2095 47.7715 70.6869 47.7715H70.4913C68.9725 47.7715 67.7376 49.0001 67.7376 50.515Z" stroke="#989898" stroke-miterlimit="10"/>
<path d="M60.4624 40.2842C57.4287 53.9559 55.7105 71.3136 56.0327 73.7175" stroke="#989898" stroke-miterlimit="10"/>
<path d="M13.8652 40.2842C16.8989 53.9559 18.6172 71.3136 18.295 73.7175" stroke="#989898" stroke-miterlimit="10"/>
<path d="M3.8667 47.8868C5.43149 45.5707 7.57158 43.5865 10.1105 42.0869C10.1911 42.0373 10.2754 41.9915 10.356 41.9419C13.6006 40.0837 17.4858 39 21.6547 39H52.7933C60.368 39 66.9914 42.5677 70.5851 47.8868" stroke="#989898" stroke-miterlimit="10"/>
<path d="M71.498 99.1705V67.6616H86.6998V99.1705L79.0989 91.1257L71.498 99.1705Z" fill="#F5F3F1" stroke="#989898"/>
<path d="M99.5007 61.1116C99.5007 72.1045 90.5427 81.0205 79.4871 81.0205C68.4316 81.0205 59.4736 72.1045 59.4736 61.1116C59.4736 50.1186 68.4316 41.2026 79.4871 41.2026C90.5427 41.2026 99.5007 50.1186 99.5007 61.1116Z" fill="#F5F3F1" stroke="#989898"/>
</svg>
