<svg width="220" height="121" viewBox="0 0 220 121" fill="none" xmlns="http://www.w3.org/2000/svg">
<path d="M42.0875 106.333L41.9453 120H46.0225L48.3163 110.901V106.333H42.0875Z" stroke="#989898" stroke-miterlimit="10"/>
<path d="M130.224 106.333H48.3164V110.638H130.224V106.333Z" stroke="#989898" stroke-miterlimit="10"/>
<path d="M57.0139 106.331H41.9453V65.3317C41.9453 61.172 45.3186 57.7998 49.4796 57.7998C53.6406 57.7998 57.0139 61.172 57.0139 65.3317V106.331V106.331Z" stroke="#989898" stroke-miterlimit="10"/>
<path d="M130.221 106.332H57.0117V91.5557C57.0117 89.5214 58.6601 87.8735 60.695 87.8735H130.221V106.332Z" stroke="#989898" stroke-miterlimit="10"/>
<path d="M126.352 87.8741H60.881C58.744 87.8741 57.0117 86.1424 57.0117 84.0061V79.2922C57.0117 73.9112 61.377 69.5474 66.7596 69.5474H120.477C125.86 69.5474 130.225 73.9112 130.225 79.2922V84.0061C130.221 86.1424 128.489 87.8741 126.352 87.8741Z" stroke="#989898" stroke-miterlimit="10"/>
<path d="M61.7847 70.9168V38.1788C61.7847 35.2258 64.1806 32.8306 67.1345 32.8306H124.874C127.828 32.8306 130.224 35.2258 130.224 38.1788V79.2945" stroke="#989898" stroke-miterlimit="10"/>
<path d="M198.661 70.9168V38.1788C198.661 35.2258 196.265 32.8306 193.311 32.8306H135.572C132.618 32.8306 130.222 35.2258 130.222 38.1788V79.2945" stroke="#989898" stroke-miterlimit="10"/>
<path d="M61.7855 54.5444L47.9604 57.9531" stroke="#989898" stroke-miterlimit="10"/>
<path d="M203.431 106.331H218.5V65.3317C218.5 61.172 215.126 57.7998 210.965 57.7998C206.804 57.7998 203.431 61.172 203.431 65.3317V106.331V106.331Z" stroke="#989898" stroke-miterlimit="10"/>
<path d="M198.663 54.5444L212.488 57.9531" stroke="#989898" stroke-miterlimit="10"/>
<path d="M218.357 106.333L218.499 120H214.422L212.132 110.901V106.333H218.357Z" stroke="#989898" stroke-miterlimit="10"/>
<path d="M130.225 110.633L212.132 110.633L212.132 106.328L130.225 106.328L130.225 110.633Z" stroke="#989898" stroke-miterlimit="10"/>
<path d="M130.222 106.332H203.431V91.5557C203.431 89.5214 201.783 87.8735 199.748 87.8735H130.222V106.332Z" stroke="#989898" stroke-miterlimit="10"/>
<path d="M134.091 87.8741H199.566C201.703 87.8741 203.435 86.1424 203.435 84.0061V79.2922C203.435 73.9112 199.07 69.5474 193.687 69.5474H139.97C134.587 69.5474 130.222 73.9112 130.222 79.2922V84.0061C130.222 86.1424 131.954 87.8741 134.091 87.8741Z" stroke="#989898" stroke-miterlimit="10"/>
<path d="M7.07643 1H92.7453C95.8089 1 98.3217 3.51205 98.3217 6.58329V57.2458C98.3217 60.3171 95.8089 62.8377 92.7453 62.8377H7.07643C4.00423 62.8377 1.5 60.3171 1.5 57.2458V6.58329C1.5 3.51205 4.00423 1 7.07643 1Z" fill="#F5F3F1" stroke="#989898" stroke-miterlimit="10"/>
<path d="M98.3217 14.7378H1.5V27.1088H98.3217V14.7378Z" stroke="#989898" stroke-miterlimit="10"/>
<mask id="mask0" mask-type="alpha" maskUnits="userSpaceOnUse" x="1" y="14" width="97" height="13">
<rect x="1.5" y="14.729" width="96.1292" height="12.2031" fill="#C4C4C4"/>
</mask>
<g mask="url(#mask0)">
<path d="M87.6113 -26.7407L-10.1073 22.4898" stroke="#989898"/>
<path d="M89.7168 -22.5674L-8.00203 26.6627" stroke="#989898"/>
<path d="M91.8223 -18.394L-5.89657 30.836" stroke="#989898"/>
<path d="M93.9268 -14.2212L-3.79205 35.0089" stroke="#989898"/>
<path d="M96.0283 -10.0435L-1.6905 39.1866" stroke="#989898"/>
<path d="M98.1377 -5.87061L0.418857 43.3595" stroke="#989898"/>
<path d="M100.238 -1.69287L2.51943 47.5372" stroke="#989898"/>
<path d="M102.344 2.47998L4.62541 51.7101" stroke="#989898"/>
<path d="M104.445 6.65283L6.726 55.8829" stroke="#989898"/>
<path d="M106.555 10.8257L8.83634 60.0558" stroke="#989898"/>
<path d="M108.656 15.0034L10.9369 64.2335" stroke="#989898"/>
<path d="M110.756 19.1763L13.0375 68.4063" stroke="#989898"/>
</g>
</svg>
