<svg width="120" height="135" viewBox="0 0 120 135" fill="none" xmlns="http://www.w3.org/2000/svg">
<path d="M60 126.035C27.6976 126.035 1.5 99.745 1.5 67.322C1.5 44.5959 14.3597 24.88 33.1747 15.1231M60 8.60107C92.3099 8.60107 118.5 34.8914 118.5 67.322C118.5 90.8343 104.729 111.127 84.8377 120.502" stroke="#989898" stroke-miterlimit="10"/>
<path d="M52.2197 114.441L60.1402 126.048L48.5732 134" stroke="#989898" stroke-miterlimit="10"/>
<path d="M67.5545 20.5586L59.6265 8.95225L71.1935 1" stroke="#989898" stroke-miterlimit="10"/>
<path d="M42.6924 77.5133H60.8899H76.0008L76.4314 76.9704C77.8427 75.1913 78.8151 73.1033 79.2708 70.876H60.8899" stroke="#989898" stroke-miterlimit="10"/>
<path d="M75.9768 77.5133H57.7793H42.6684L42.2378 76.9704C40.8265 75.1913 39.8541 73.1033 39.3984 70.876H57.7793" stroke="#989898" stroke-miterlimit="10"/>
<path d="M75.9137 67.2969H42.7609C40.9106 67.2969 39.4131 68.8003 39.4131 70.6517V70.8772H79.2615V70.6517C79.2615 68.7975 77.764 67.2969 75.9137 67.2969Z" stroke="#989898" stroke-miterlimit="10"/>
<path d="M42.6649 86.7324L42.251 99.9486H44.4041L45.6599 86.7324H42.6649Z" stroke="#989898" stroke-miterlimit="10"/>
<path d="M75.993 86.7285L76.4097 99.9447H74.2566L72.998 86.7285H75.993Z" stroke="#989898" stroke-miterlimit="10"/>
<path d="M76.0043 77.5166H42.6709V86.7348H76.0043V77.5166Z" stroke="#989898" stroke-miterlimit="10"/>
<path d="M82.8506 56.9765L83.2201 45.6981C83.2201 42.4101 82.156 38.7322 79.0888 38.3731C78.8166 38.3425 78.5415 38.3954 78.2692 38.3703C73.7602 37.975 67.0174 39.4311 59.1244 39.4311H59.3272C51.4342 39.4311 44.6942 37.975 40.1823 38.3703C39.91 38.3954 39.635 38.3425 39.3627 38.3731C36.2955 38.7322 35.2314 42.4101 35.2314 45.6981L35.601 57.0239" stroke="#989898" stroke-miterlimit="10"/>
<path d="M31.6831 62.6972C34.0057 67.7337 38.9843 77.5171 42.6488 77.5171C42.6488 77.5171 42.6488 86.5738 42.6488 86.7325C42.6488 86.8912 35.8144 86.9385 28.1992 67.6279C26.4183 63.1149 26.2461 61.372 26.2461 61.372L27.3629 60.9405C29.0382 60.2973 30.9274 61.063 31.6831 62.6972Z" stroke="#989898" stroke-miterlimit="10"/>
<path d="M26.2531 61.3764C26.2253 59.7504 30.0537 58.3695 31.7818 57.8461L34.4989 57.0888C36.0214 56.7742 38.1273 57.4201 39.0636 59.2966L42.4364 67.2954" stroke="#989898" stroke-miterlimit="10"/>
<path d="M86.9647 62.6972C84.6421 67.7337 79.6635 77.5171 75.999 77.5171C75.999 77.5171 75.999 86.5738 75.999 86.7325C75.999 86.8912 82.8335 86.9385 90.4487 67.6279C92.2295 63.1149 92.4018 61.372 92.4018 61.372L91.2849 60.9405C89.6069 60.2973 87.7177 61.063 86.9647 62.6972Z" stroke="#989898" stroke-miterlimit="10"/>
<path d="M92.4027 61.3764C92.4305 59.7504 88.6021 58.3695 86.874 57.8461L84.1569 57.0888C82.6344 56.7742 80.5285 57.4201 79.5922 59.2966L76.2139 67.2954" stroke="#989898" stroke-miterlimit="10"/>
<path d="M42.5068 86.7324H76.043" stroke="#989898" stroke-miterlimit="10"/>
<path d="M50.9904 48.4503C51.394 48.4503 51.7211 48.1225 51.7211 47.7181C51.7211 47.3137 51.394 46.9858 50.9904 46.9858C50.5869 46.9858 50.2598 47.3137 50.2598 47.7181C50.2598 48.1225 50.5869 48.4503 50.9904 48.4503Z" stroke="#989898" stroke-miterlimit="10"/>
<path d="M67.6535 48.4503C68.0571 48.4503 68.3842 48.1225 68.3842 47.7181C68.3842 47.3137 68.0571 46.9858 67.6535 46.9858C67.25 46.9858 66.9229 47.3137 66.9229 47.7181C66.9229 48.1225 67.25 48.4503 67.6535 48.4503Z" stroke="#989898" stroke-miterlimit="10"/>
<path d="M50.9904 59.981C51.394 59.981 51.7211 59.6532 51.7211 59.2488C51.7211 58.8444 51.394 58.5166 50.9904 58.5166C50.5869 58.5166 50.2598 58.8444 50.2598 59.2488C50.2598 59.6532 50.5869 59.981 50.9904 59.981Z" stroke="#989898" stroke-miterlimit="10"/>
<path d="M67.6574 59.981C68.061 59.981 68.3881 59.6532 68.3881 59.2488C68.3881 58.8444 68.061 58.5166 67.6574 58.5166C67.2539 58.5166 66.9268 58.8444 66.9268 59.2488C66.9268 59.6532 67.2539 59.981 67.6574 59.981Z" stroke="#989898" stroke-miterlimit="10"/>
</svg>
