<svg width="52" height="14" viewBox="0 0 52 14" fill="none" xmlns="http://www.w3.org/2000/svg">
<path fill-rule="evenodd" clip-rule="evenodd" d="M4.61952 0.0972226C5.12164 0.0972226 6.42716 5.7949e-07 7.02971 1.84722C7.4314 3.11111 8.03395 5.25 8.93777 8.16667H9.33946C10.2433 5.05556 10.9463 2.91667 11.2475 1.84722C11.8501 -0.0972217 13.3564 0.0972226 13.959 0.0972226H18.5785V13.9028H13.959V5.83333H13.6577L11.0467 13.9028H7.53183L4.9208 5.83333H4.61952V13.9028H0V0.0972226H4.61952ZM25.1061 0.0972226V8.16667H25.5078L28.6209 1.45833C29.2235 0.0972227 30.529 0 30.529 0H35.0481V13.9028H30.3282V5.83333H29.9265L26.8133 12.5417C26.2108 13.9028 24.8048 14 24.8048 14H20.2857V0.0972226H25.1061ZM51.5177 6.61111C50.8147 8.45833 48.8062 9.72222 46.4965 9.72222H41.4753V13.8056H36.9562V6.61111H51.5177Z" fill="#404040"/>
<path fill-rule="evenodd" clip-rule="evenodd" d="M46.6988 0.0966797H36.7568C36.9577 3.20779 39.7696 5.73557 42.5815 5.73557H51.9209C52.423 3.20779 50.515 0.0966797 46.6988 0.0966797Z" fill="#404040"/>
</svg>
