<svg width="50" height="16" viewBox="0 0 50 16" fill="none" xmlns="http://www.w3.org/2000/svg">
<path d="M21.7204 15.6821H17.6344L20.2151 0.317881H24.3011L21.7204 15.6821ZM14.1936 0.211921L10.3226 10.8079L9.89247 8.47682L8.49463 1.5894C8.49463 1.5894 8.27957 0.211921 6.55914 0.211921H0.107529L0 0.423841C0 0.423841 1.93548 0.847682 4.30108 2.22517L7.84947 15.5762H12.043L18.4946 0.211921H14.1936ZM46.2366 15.6821H50L46.7742 0.317881H43.5484C42.043 0.317881 41.7204 1.48344 41.7204 1.48344L35.6989 15.7881H39.8925L40.7527 13.457H45.914L46.2366 15.6821ZM41.828 10.1722L43.9785 4.45033L45.1613 10.1722H41.828ZM35.8065 3.92053L36.4516 0.635761C36.4516 0.635761 34.6237 0 32.7957 0C30.7527 0 26.0215 0.847682 26.0215 5.08609C26.0215 9.11258 31.6129 9.11258 31.6129 11.2318C31.6129 13.351 26.5591 12.9272 24.9462 11.6556L24.3011 15.1523C24.3011 15.1523 26.129 16 28.9247 16C31.7204 16 35.914 14.6225 35.914 10.702C35.914 6.6755 30.2151 6.35762 30.2151 4.55629C30.1075 2.75497 34.086 2.96689 35.8065 3.92053Z" fill="#085798"/>
</svg>
