<svg width="31" height="30" viewBox="0 0 31 30" fill="none" xmlns="http://www.w3.org/2000/svg">
<path d="M29.5059 15C29.5059 23.0081 23.014 29.5 15.0059 29.5C6.99773 29.5 0.505859 23.0081 0.505859 15C0.505859 6.99187 6.99773 0.5 15.0059 0.5C23.014 0.5 29.5059 6.99187 29.5059 15Z" stroke="#989898" stroke-miterlimit="10"/>
<path d="M16.4061 23.9999V15.7999H19.1061L19.5061 12.5999H16.3061V10.5999C16.3061 9.6999 16.6061 9.0999 17.9061 9.0999H19.6061V6.1999C18.8061 6.0999 18.0061 6.0999 17.1061 6.0999C15.0061 5.8999 13.2061 7.4999 13.0061 9.5999C13.0061 9.7999 13.0061 9.9999 13.0061 10.2999V12.6999H10.2061V15.8999H13.0061V24.0999L16.4061 23.9999Z" fill="#989898"/>
</svg>
