<svg width="31" height="30" viewBox="0 0 31 30" fill="none" xmlns="http://www.w3.org/2000/svg">
<path fill-rule="evenodd" clip-rule="evenodd" d="M18.2029 23H11.8029C9.10293 23 7.00293 20.8405 7.00293 18.1902V11.8098C7.00293 9.15951 9.20293 7.09816 11.8029 7H18.2029C20.9029 7 23.0029 9.15951 23.0029 11.8098V18.1902C23.1029 20.8405 20.9029 23 18.2029 23ZM15.1027 18.2884C13.3027 18.2884 11.8027 16.816 11.8027 15.0491C11.8027 13.2822 13.3027 11.8098 15.1027 11.8098C16.9027 11.8098 18.4027 13.2822 18.4027 15.0491C18.4027 16.816 16.9027 18.2884 15.1027 18.2884ZM18.5029 10.9264C18.5029 10.3374 18.9029 9.94479 19.5029 9.94479C20.1029 9.94479 20.5029 10.4356 20.5029 10.9264C20.5029 11.5153 20.1029 11.908 19.5029 11.908C18.9029 11.908 18.5029 11.5153 18.5029 10.9264Z" fill="#989898"/>
<rect x="0.50293" y="0.5" width="29.0033" height="29" rx="14.5" stroke="#989898"/>
</svg>
