<svg width="31" height="30" viewBox="0 0 31 30" fill="none" xmlns="http://www.w3.org/2000/svg">
<path d="M29.5059 15C29.5059 23.0081 23.014 29.5 15.0059 29.5C6.99773 29.5 0.505859 23.0081 0.505859 15C0.505859 6.99187 6.99773 0.5 15.0059 0.5C23.014 0.5 29.5059 6.99187 29.5059 15Z" stroke="#989898" stroke-miterlimit="10"/>
<path fill-rule="evenodd" clip-rule="evenodd" d="M23.6043 10.4002C23.7043 10.0002 23.6043 9.7002 23.0043 9.7002H21.0043C20.6043 9.7002 20.3043 9.9002 20.1043 10.3002C19.5043 11.7002 18.7043 13.1002 17.7043 14.3002C17.2043 14.8002 17.0043 14.9002 16.8043 14.9002C16.7043 14.9002 16.5043 14.8002 16.5043 14.3002V10.4002C16.5043 9.9002 16.4043 9.7002 15.9043 9.7002H12.8043C12.5043 9.7002 12.3043 9.9002 12.3043 10.1002C12.3043 10.6002 13.0043 10.7002 13.1043 12.0002V14.9002C13.1043 15.5002 13.0043 15.7002 12.7043 15.7002C12.0043 15.7002 10.4043 13.3002 9.5043 10.5002C9.3043 10.0002 9.10429 9.7002 8.60429 9.7002H6.60429C6.00429 9.7002 5.9043 10.0002 5.9043 10.3002C5.9043 10.8002 6.6043 13.4002 9.0043 16.8002C10.3043 18.9002 12.5043 20.2002 15.0043 20.4002C16.2043 20.4002 16.4043 20.1002 16.4043 19.6002V17.8002C16.4043 17.2002 16.5043 17.1002 16.9043 17.1002C17.2043 17.1002 17.7043 17.2002 18.9043 18.4002C20.2043 19.7002 20.5043 20.3002 21.2043 20.3002H23.2043C23.8043 20.3002 24.0043 20.0002 23.9043 19.5002C23.5043 18.6002 22.9043 17.9002 22.2043 17.2002C21.7043 16.7002 21.1043 16.1002 20.8043 15.8002C20.5043 15.4002 20.6043 15.3002 20.8043 14.9002C21.0043 14.9002 23.4043 11.5002 23.6043 10.4002Z" fill="#989898"/>
</svg>
