<svg width="411" height="264" viewBox="0 0 411 264" fill="none" xmlns="http://www.w3.org/2000/svg">
<path d="M212.822 128.121C210.294 128.121 208.59 129.654 208.59 131.926C208.59 133.667 209.713 135.048 211.493 135.56L207.897 140.613H209.564L213.028 135.749H215.482V140.613H216.943V128.121H212.822ZM215.482 134.405H212.822C211.174 134.405 210.107 133.44 210.107 131.926C210.107 130.43 211.174 129.446 212.822 129.446H215.482V134.405Z" fill="#989898"/>
<path d="M232.964 137.831C232.964 136.771 232.308 135.995 231.241 135.616C231.84 135.219 232.196 134.575 232.196 133.837C232.196 132.342 231.053 131.396 229.255 131.396H225.491V140.613H229.724C231.69 140.613 232.964 139.477 232.964 137.831ZM226.933 132.702H229.274C230.267 132.702 230.773 133.099 230.773 133.913C230.773 134.689 230.267 135.162 229.274 135.162H226.933V132.702ZM231.522 137.831C231.522 138.72 230.829 139.326 229.63 139.326H226.933V136.449H229.63C230.829 136.449 231.522 136.979 231.522 137.831Z" fill="#989898"/>
<path d="M243.732 136.449C243.807 136.071 243.844 135.711 243.844 135.351C243.844 132.91 242.046 131.187 239.687 131.187C237.083 131.187 235.023 133.345 235.023 136.014C235.023 138.72 237.139 140.821 239.855 140.821C241.297 140.821 242.552 140.216 243.507 139.212L242.664 138.228C241.84 139.061 240.904 139.477 239.874 139.477C238.076 139.477 236.69 138.266 236.521 136.449H243.732ZM236.578 135.162C236.896 133.572 238.132 132.512 239.649 132.512C241.166 132.512 242.346 133.515 242.365 135.162H236.578Z" fill="#989898"/>
<path d="M252.34 137.963C252.34 136.922 251.778 136.089 250.785 135.692C251.516 135.238 251.872 134.537 251.872 133.705C251.872 132.134 250.692 131.187 248.875 131.187C247.377 131.187 246.253 131.831 245.56 132.796L246.534 133.667C247.133 132.929 247.789 132.531 248.819 132.531C249.868 132.531 250.448 133.023 250.448 133.799C250.448 134.613 249.905 135.086 248.856 135.086H247.882V136.373H248.875C250.148 136.373 250.86 136.979 250.86 137.869C250.86 138.834 250.148 139.477 248.875 139.477C247.751 139.477 246.983 139.004 246.365 138.171L245.391 139.042C246.215 140.178 247.395 140.821 248.894 140.821C250.973 140.821 252.34 139.705 252.34 137.963Z" fill="#989898"/>
<path d="M261.382 131.396L258.366 138.739L255.351 131.396H253.796L257.58 140.329L257.093 141.427C256.624 142.544 255.988 142.903 255.032 142.903C254.77 142.903 254.396 142.865 253.927 142.809V144.039C254.396 144.171 254.864 144.228 255.332 144.228C256.737 144.228 257.729 143.509 258.422 141.9L262.917 131.396H261.382Z" fill="#989898"/>
<path d="M214.845 162.298C214.845 161.257 214.283 160.424 213.291 160.027C214.021 159.572 214.377 158.872 214.377 158.039C214.377 156.468 213.197 155.522 211.38 155.522C209.882 155.522 208.758 156.166 208.065 157.131L209.039 158.001C209.638 157.263 210.294 156.866 211.324 156.866C212.373 156.866 212.953 157.358 212.953 158.134C212.953 158.948 212.41 159.421 211.361 159.421H210.388V160.708H211.38C212.654 160.708 213.366 161.314 213.366 162.203C213.366 163.169 212.654 163.812 211.38 163.812C210.256 163.812 209.489 163.339 208.871 162.506L207.897 163.377C208.721 164.512 209.901 165.156 211.399 165.156C213.478 165.156 214.845 164.039 214.845 162.298Z" fill="#989898"/>
<path d="M224.243 159.27C224.243 156.847 222.838 155.522 220.684 155.522C219.167 155.522 217.8 156.184 216.976 157.547L217.931 158.342C218.68 157.358 219.486 156.866 220.591 156.866C221.958 156.866 222.801 157.68 222.801 159.194V159.989H219.916C217.95 159.989 216.639 160.992 216.639 162.563C216.639 164.153 217.95 165.156 219.823 165.156C221.153 165.156 222.22 164.664 222.894 163.755V164.948H224.243V159.27ZM222.801 161.408C222.801 162.828 221.508 163.945 220.01 163.945C218.943 163.945 218.118 163.415 218.118 162.487C218.118 161.635 218.811 161.181 220.085 161.181H222.801V161.408Z" fill="#989898"/>
<path d="M227.302 164.948H228.744V158.721L231.853 162.468H232.415L235.524 158.721V164.948H236.966V155.522H236.46L232.152 160.708L227.826 155.522H227.302V164.948Z" fill="#989898"/>
<path d="M248.195 160.784C248.27 160.405 248.307 160.046 248.307 159.686C248.307 157.244 246.509 155.522 244.149 155.522C241.546 155.522 239.486 157.68 239.486 160.348C239.486 163.055 241.602 165.156 244.318 165.156C245.76 165.156 247.015 164.55 247.97 163.547L247.127 162.563C246.303 163.396 245.367 163.812 244.337 163.812C242.539 163.812 241.153 162.601 240.984 160.784H248.195ZM241.04 159.497C241.359 157.907 242.595 156.847 244.112 156.847C245.629 156.847 246.809 157.85 246.828 159.497H241.04Z" fill="#989898"/>
<path d="M256.104 155.73V160.027C255.561 160.273 254.737 160.424 254.081 160.424C252.452 160.424 251.628 159.629 251.628 158.058V155.73H250.185V158.134C250.185 160.462 251.609 161.73 253.8 161.73C254.755 161.73 255.523 161.598 256.104 161.314V164.948H257.546V155.73H256.104Z" fill="#989898"/>
<path d="M267.572 159.27C267.572 156.847 266.167 155.522 264.014 155.522C262.496 155.522 261.129 156.184 260.305 157.547L261.26 158.342C262.009 157.358 262.815 156.866 263.92 156.866C265.287 156.866 266.13 157.68 266.13 159.194V159.989H263.246C261.279 159.989 259.968 160.992 259.968 162.563C259.968 164.153 261.279 165.156 263.152 165.156C264.482 165.156 265.549 164.664 266.224 163.755V164.948H267.572V159.27ZM266.13 161.408C266.13 162.828 264.838 163.945 263.339 163.945C262.272 163.945 261.448 163.415 261.448 162.487C261.448 161.635 262.141 161.181 263.414 161.181H266.13V161.408Z" fill="#989898"/>
<path d="M272.284 164.948H273.707V157.036H276.779V155.73H269.212V157.036H272.284V164.948Z" fill="#989898"/>
<path d="M286.805 160.784C286.88 160.405 286.918 160.046 286.918 159.686C286.918 157.244 285.12 155.522 282.76 155.522C280.156 155.522 278.096 157.68 278.096 160.348C278.096 163.055 280.213 165.156 282.928 165.156C284.37 165.156 285.625 164.55 286.58 163.547L285.738 162.563C284.913 163.396 283.977 163.812 282.947 163.812C281.149 163.812 279.763 162.601 279.594 160.784H286.805ZM279.651 159.497C279.969 157.907 281.205 156.847 282.722 156.847C284.239 156.847 285.419 157.85 285.438 159.497H279.651Z" fill="#989898"/>
<path d="M290.163 155.73L290.107 158.134C290.032 161.919 289.601 163.755 288.421 163.755C288.328 163.755 288.196 163.736 288.047 163.717V164.948C288.196 165.004 288.365 165.023 288.534 165.023C290.687 164.948 291.306 162.979 291.474 158.172L291.512 157.036H294.901V164.948H296.344V155.73H290.163Z" fill="#989898"/>
<path d="M299.529 164.948H303.144C305.223 164.948 306.553 163.736 306.553 161.919C306.553 160.102 305.223 158.91 303.144 158.91H300.971V155.73H299.529V164.948ZM300.971 163.661V160.197H303.05C304.324 160.197 305.073 160.897 305.073 161.938C305.073 162.979 304.343 163.661 303.069 163.661H300.971Z" fill="#989898"/>
<path d="M309.077 164.948H310.519V160.689H314.995V164.948H316.437V155.73H314.995V159.402H310.519V155.73H309.077V164.948Z" fill="#989898"/>
<path d="M319.593 164.948H323.208C325.287 164.948 326.617 163.755 326.617 161.919C326.617 160.102 325.25 158.91 323.208 158.91H321.036V155.73H319.593V164.948ZM327.947 164.948H329.389V155.73H327.947V164.948ZM321.036 163.661V160.197H323.114C324.407 160.197 325.137 160.822 325.137 161.938C325.137 163.055 324.425 163.661 323.133 163.661H321.036Z" fill="#989898"/>
<path d="M339.566 155.522L334.003 162.26V155.73H332.561V165.156H333.085L338.648 158.437V164.948H340.09V155.522H339.566ZM333.704 151.112C333.704 152.91 334.827 154.102 336.532 154.102C338.255 154.102 339.378 152.91 339.378 151.112V150.525H338.161V151.074C338.161 152.304 337.58 153.005 336.532 153.005C335.502 153.005 334.921 152.304 334.921 151.074V150.525H333.704V151.112Z" fill="#989898"/>
<path d="M215.725 187.995V180.065H209.432L209.376 182.658C209.32 185.44 209.02 187.106 208.178 187.995H207.147V191.951H208.59V189.282H215.763V191.951H217.205V187.995H215.725ZM209.695 187.995C210.294 187.144 210.687 185.251 210.743 182.677L210.8 181.371H214.283V187.995H209.695Z" fill="#989898"/>
<path d="M226.478 179.857L220.916 186.595V180.065H219.474V189.49H219.998L225.56 182.771V189.282H227.003V179.857H226.478Z" fill="#989898"/>
<path d="M237.646 186.5C237.646 185.44 236.991 184.664 235.923 184.286C236.522 183.888 236.878 183.245 236.878 182.506C236.878 181.011 235.736 180.065 233.938 180.065H230.173V189.282H234.406C236.373 189.282 237.646 188.147 237.646 186.5ZM231.615 181.371H233.956C234.949 181.371 235.455 181.768 235.455 182.582C235.455 183.358 234.949 183.831 233.956 183.831H231.615V181.371ZM236.204 186.5C236.204 187.39 235.511 187.995 234.312 187.995H231.615V185.118H234.312C235.511 185.118 236.204 185.648 236.204 186.5Z" fill="#989898"/>
<path d="M247.197 183.604C247.197 181.182 245.792 179.857 243.638 179.857C242.121 179.857 240.754 180.519 239.93 181.882L240.885 182.677C241.634 181.693 242.44 181.2 243.545 181.2C244.912 181.2 245.755 182.014 245.755 183.528V184.323H242.87C240.904 184.323 239.593 185.327 239.593 186.897C239.593 188.487 240.904 189.49 242.777 189.49C244.107 189.49 245.174 188.998 245.848 188.09V189.282H247.197V183.604ZM245.755 185.743C245.755 187.162 244.462 188.279 242.964 188.279C241.897 188.279 241.072 187.749 241.072 186.822C241.072 185.97 241.765 185.516 243.039 185.516H245.755V185.743Z" fill="#989898"/>
<path d="M250.256 189.282H251.698V185.024H256.174V189.282H257.616V180.065H256.174V183.737H251.698V180.065H250.256V189.282Z" fill="#989898"/>
<path d="M260.623 188.298C260.623 188.979 261.147 189.49 261.803 189.49C262.458 189.49 262.983 188.979 262.983 188.298C262.983 187.617 262.458 187.106 261.803 187.106C261.147 187.106 260.623 187.617 260.623 188.298Z" fill="#989898"/>
<path d="M275.33 184.664C275.33 181.958 273.42 179.857 270.816 179.857C269.393 179.857 268.063 180.481 267.37 181.541V180.065H266.022V192.689H267.464V187.957C268.213 188.923 269.468 189.49 270.816 189.49C273.382 189.49 275.33 187.371 275.33 184.664ZM273.85 184.683C273.85 186.67 272.465 188.147 270.61 188.147C268.925 188.147 267.445 187.011 267.445 184.664C267.445 182.336 268.981 181.2 270.61 181.2C272.465 181.2 273.85 182.696 273.85 184.683Z" fill="#989898"/>
<path d="M283.933 180.065L280.918 187.409L277.903 180.065H276.348L280.131 188.998L279.644 190.096C279.176 191.213 278.539 191.572 277.584 191.572C277.322 191.572 276.947 191.535 276.479 191.478V192.708C276.947 192.841 277.416 192.897 277.884 192.897C279.288 192.897 280.281 192.178 280.974 190.569L285.469 180.065H283.933Z" fill="#989898"/>
<path d="M65.0369 263.071C81.8666 263.071 95.5984 249.734 95.5984 233.379C95.5984 217.031 81.8666 203.693 65.0369 203.693C48.2002 203.693 34.4753 217.031 34.4753 233.379C34.4753 249.734 48.2002 263.071 65.0369 263.071Z" stroke="#989898" stroke-miterlimit="10"/>
<path d="M65.9484 250.853C76.2797 250.853 84.7028 242.65 84.7028 232.599C84.7028 222.547 76.2797 214.351 65.9484 214.351C55.6171 214.351 47.1941 222.547 47.1941 232.599C47.1941 242.65 55.6171 250.853 65.9484 250.853Z" stroke="#989898" stroke-miterlimit="10"/>
<path d="M65.9416 246.564C73.8374 246.564 80.2832 240.538 80.2832 233.141C80.2832 225.75 73.8374 219.724 65.9416 219.724C58.0459 219.724 51.6001 225.75 51.6001 233.141C51.6001 240.536 58.0459 246.564 65.9416 246.564Z" stroke="#989898" stroke-miterlimit="10"/>
<path d="M30.1277 240.121L7.27548 235.127C7.27548 235.127 1.58069 231.789 0.895672 224.015C0.210653 216.236 8.64552 180.241 28.027 170.464C47.4016 160.688 70.8886 156.689 76.1313 153.13C81.3785 149.577 140.199 115.136 140.199 115.136C140.199 115.136 148.864 109.355 168.472 108.466C188.079 107.578 372.071 108.466 372.071 108.466C372.071 108.466 380.054 107.798 383.013 113.354C385.979 118.909 402.62 161.797 402.62 161.797C402.62 161.797 403.99 164.461 403.532 170.016C403.079 175.57 402.394 191.79 402.394 191.79C402.394 191.79 401.709 193.345 404.443 199.788C407.183 206.232 410.142 213.344 410.142 213.344V226.23C410.142 226.23 410.375 231.125 403.532 231.785C399.693 232.163 383.465 233.378 369.988 234.373C370.007 233.92 370.014 233.467 370.014 233.007C370.014 212.946 353.326 196.682 332.742 196.682C312.15 196.682 295.463 212.946 295.463 233.007C295.463 234.247 295.52 235.469 295.65 236.68H101.472C101.603 235.471 101.667 234.249 101.667 233.007C101.667 213.557 85.4909 197.791 65.5318 197.791C45.5726 197.791 29.3925 213.557 29.3925 233.007C29.3925 235.446 29.6505 237.822 30.1277 240.121Z" stroke="#989898" stroke-miterlimit="10"/>
<path d="M332.454 263.071C349.282 263.071 363.012 249.734 363.012 233.379C363.012 217.031 349.282 203.693 332.454 203.693C315.619 203.693 301.889 217.031 301.889 233.379C301.889 249.734 315.619 263.071 332.454 263.071Z" stroke="#989898" stroke-miterlimit="10"/>
<path d="M332.929 250.853C343.258 250.853 351.68 242.65 351.68 232.599C351.68 222.547 343.258 214.351 332.929 214.351C322.599 214.351 314.171 222.547 314.171 232.599C314.171 242.65 322.599 250.853 332.929 250.853Z" stroke="#989898" stroke-miterlimit="10"/>
<path d="M332.922 246.564C340.82 246.564 347.26 240.538 347.26 233.141C347.26 225.75 340.82 219.724 332.922 219.724C325.018 219.724 318.577 225.75 318.577 233.141C318.577 240.536 325.018 246.564 332.922 246.564Z" stroke="#989898" stroke-miterlimit="10"/>
<path d="M363.806 212.208L409.037 211.134" stroke="#989898" stroke-miterlimit="10"/>
<path d="M398.119 148.87H395.223C395.223 148.87 388.176 167.146 389.31 171.028C390.444 174.903 402.646 194.389 402.646 194.389" stroke="#989898" stroke-miterlimit="10"/>
<path d="M86.3777 154.878C95.539 148.142 126.53 125.819 142.063 120.547C160.42 114.316 177.862 114.543 177.862 114.543C177.862 114.543 182.11 113.989 181.765 117.431C181.42 120.881 179.586 140.902 179.586 140.902L171.896 152.247C171.896 152.247 169.944 153.47 165.012 154.138C160.732 154.718 103.317 159.403 88.2049 160.626C82.3004 161.116 82.5073 157.728 86.3777 154.878Z" stroke="#989898" stroke-miterlimit="10"/>
<path d="M23.4281 179.598C31.7899 174.019 40.8037 171.408 40.8037 171.408L44.9868 172.884C44.9868 172.884 27.9416 197.34 19.3617 201.326C10.7819 205.305 8.5813 205.762 8.5813 205.762C10.696 194.851 13.3459 186.318 23.4281 179.598Z" stroke="#989898" stroke-miterlimit="10"/>
<path d="M0.857178 219.724H32.8499" stroke="#989898" stroke-miterlimit="10"/>
<path d="M188.398 108.071V236.9" stroke="#989898" stroke-miterlimit="10"/>
<path d="M118.901 158.528V132.762" stroke="#989898" stroke-miterlimit="10"/>
<rect x="360.114" y="180.713" width="18.8575" height="13.1712" rx="2.5" stroke="#989898"/>
<path d="M163.167 95.3418V88.5755H267.008M267.008 88.5755V95.3418M267.008 88.5755L175.576 88.5751M267.008 88.5755L267.06 88.5753V62.1271M267.008 88.5755L370.85 88.5759V95.3423M267.008 88.5755L358.441 88.5746M162.958 31.1821C163.582 31.0956 164.205 31.0524 164.828 31.0524C170.747 31.0524 175.576 35.0284 175.576 39.9985V88.5751M175.576 88.5751H154.131M175.576 88.5751L175.577 71.0721C175.577 68.6519 177.914 66.7071 180.821 66.7071M154.131 88.5751L154.131 39.9549C154.131 35.5035 158.026 31.83 163.166 31.1385V31.0089L182.327 27.1625V7.75778C182.327 4.25715 185.754 1.40479 189.96 1.40479H259.374C263.58 1.40479 267.009 4.25799 267.009 7.75862M154.131 88.5751L153.924 108.071H159.739L163.011 95.6004V95.2979H371.108V95.6004L374.38 108.071H380.195L379.936 88.5747V39.9549C379.936 35.0281 375.159 31.0089 369.187 31.0089L351.688 27.1625V7.75778C351.688 4.25715 348.261 1.40479 344.055 1.40479H274.641C270.435 1.40479 267.009 4.25799 267.009 7.75862M267.06 62.1271L267.059 56.5526C267.059 50.1996 273.238 45.0135 280.923 45.0135H344.626C352.259 45.0135 358.49 50.1564 358.49 56.5526V62.1277C358.49 64.6775 356.05 66.7087 352.986 66.7087H272.511C269.5 66.7087 267.008 64.6338 267.06 62.1271ZM267.009 7.75862V56.5081M182.379 46.5677V27.163M351.69 46.5682V27.1635M371.37 31.2248C370.695 31.0952 369.968 31.052 369.189 31.052C363.27 31.052 358.441 35.028 358.441 39.998V88.5746M358.441 88.5746H379.886M358.441 88.5746L358.44 71.0723C358.44 68.6521 356.103 66.7073 353.195 66.7073M261.504 66.7082H181.081C178.017 66.7082 175.577 64.677 175.577 62.1271V56.5521C175.577 50.1559 181.808 45.013 189.441 45.013H253.144C260.829 45.013 267.008 50.1991 267.008 56.5521V62.1271C267.008 64.6338 264.567 66.7082 261.504 66.7082Z" stroke="#989898" stroke-miterlimit="10"/>
</svg>
