<svg width="344" height="288" viewBox="0 0 344 288" fill="none" xmlns="http://www.w3.org/2000/svg">
<path d="M50.5276 173.204H91.3802H125.304L126.27 171.84C129.439 167.368 131.622 162.12 132.645 156.521H91.3802" stroke="#989898" stroke-miterlimit="10"/>
<path d="M125.259 173.205H84.4061H50.4828L49.5161 171.841C46.3477 167.369 44.1647 162.121 43.1418 156.522H84.4061" stroke="#989898" stroke-miterlimit="10"/>
<path d="M125.107 147.523H50.6807C46.5268 147.523 43.165 151.302 43.165 155.955V156.522H132.623V155.955C132.623 151.295 129.261 147.523 125.107 147.523Z" stroke="#989898" stroke-miterlimit="10"/>
<path d="M50.4703 196.365L49.541 229.584H54.3747L57.1939 196.365H50.4703Z" stroke="#989898" stroke-miterlimit="10"/>
<path d="M125.292 196.366L126.228 229.585H121.394L118.569 196.366H125.292Z" stroke="#989898" stroke-miterlimit="10"/>
<path d="M125.315 173.203H50.4834V196.373H125.315V173.203Z" stroke="#989898" stroke-miterlimit="10"/>
<path d="M140.689 121.581L141.519 93.2323C141.519 84.9678 139.13 75.7236 132.244 74.8209C131.633 74.7439 131.015 74.8769 130.404 74.8139C120.281 73.8202 105.144 77.4801 87.4247 77.4801H87.88C70.1606 77.4801 55.0295 73.8202 44.9006 74.8139C44.2893 74.8769 43.6719 74.7439 43.0606 74.8209C36.1749 75.7236 33.7861 84.9678 33.7861 93.2323L34.6157 121.7" stroke="#989898" stroke-miterlimit="10"/>
<path d="M25.8177 135.956C31.0319 148.615 42.2087 173.206 50.4353 173.206C50.4353 173.206 50.4353 195.97 50.4353 196.369C50.4353 196.768 35.0922 196.887 17.9965 148.349C13.9985 137.006 13.6118 132.625 13.6118 132.625L16.1191 131.541C19.88 129.924 24.1212 131.848 25.8177 135.956Z" stroke="#989898" stroke-miterlimit="10"/>
<path d="M13.6295 132.64C13.5671 128.553 22.1618 125.082 26.0412 123.766L32.1411 121.863C35.559 121.072 40.2866 122.696 42.3885 127.412L49.9603 147.517" stroke="#989898" stroke-miterlimit="10"/>
<path d="M149.931 135.953C144.716 148.612 133.54 173.202 125.313 173.202C125.313 173.202 125.313 195.966 125.313 196.365C125.313 196.764 140.656 196.883 157.752 148.346C161.75 137.002 162.137 132.622 162.137 132.622L159.629 131.537C155.862 129.921 151.621 131.845 149.931 135.953Z" stroke="#989898" stroke-miterlimit="10"/>
<path d="M162.127 132.636C162.189 128.549 153.595 125.078 149.715 123.762L143.615 121.859C140.198 121.068 135.47 122.692 133.368 127.408L125.784 147.513" stroke="#989898" stroke-miterlimit="10"/>
<path d="M50.1182 196.375H125.405" stroke="#989898" stroke-miterlimit="10"/>
<path d="M69.1608 100.154C70.0668 100.154 70.8012 99.3296 70.8012 98.3132C70.8012 97.2968 70.0668 96.4728 69.1608 96.4728C68.2549 96.4728 67.5205 97.2968 67.5205 98.3132C67.5205 99.3296 68.2549 100.154 69.1608 100.154Z" stroke="#989898" stroke-miterlimit="10"/>
<path d="M106.576 100.154C107.482 100.154 108.217 99.3304 108.217 98.3139C108.217 97.2975 107.482 96.4735 106.576 96.4735C105.67 96.4735 104.936 97.2975 104.936 98.3139C104.936 99.3304 105.67 100.154 106.576 100.154Z" stroke="#989898" stroke-miterlimit="10"/>
<path d="M69.1618 129.134C70.0677 129.134 70.8021 128.31 70.8021 127.294C70.8021 126.277 70.0677 125.453 69.1618 125.453C68.2559 125.453 67.5215 126.277 67.5215 127.294C67.5215 128.31 68.2559 129.134 69.1618 129.134Z" stroke="#989898" stroke-miterlimit="10"/>
<path d="M106.578 129.135C107.484 129.135 108.218 128.311 108.218 127.294C108.218 126.278 107.484 125.454 106.578 125.454C105.672 125.454 104.937 126.278 104.937 127.294C104.937 128.311 105.672 129.135 106.578 129.135Z" stroke="#989898" stroke-miterlimit="10"/>
<path d="M194.547 136.125L186.145 230.48H189.478L201.75 136.125H194.547Z" stroke="#989898" stroke-miterlimit="10"/>
<path d="M285.25 136.125L293.65 230.48H290.321L278.044 136.125H285.25Z" stroke="#989898" stroke-miterlimit="10"/>
<path d="M239.499 136.126H174.537H172.275V133.591V119.206V116.671H174.537H239.499M239.499 136.126H252.662H254.87H305.261H307.523V133.591H307.518V119.206V116.671H305.256H254.864H252.656H239.499M239.499 136.126V116.671" stroke="#989898" stroke-miterlimit="10"/>
<path d="M323.991 80.0714V281.698C323.991 284.459 321.753 286.698 318.991 286.698H6.47704C3.71562 286.698 1.47705 284.459 1.47705 281.698V47.5421C1.47705 44.7807 3.74006 42.5421 6.50148 42.5421C103.087 42.5421 167.255 42.5421 250.691 42.5421" stroke="#989898" stroke-miterlimit="10"/>
<path d="M323.992 260.433H1.47729" stroke="#989898" stroke-miterlimit="10"/>
<ellipse cx="163.011" cy="277.18" rx="4.78276" ry="5.40475" stroke="#989898" stroke-miterlimit="10"/>
<path d="M250.69 1H342.579V79.7771H264.121L250.69 95.8385L250.69 1Z" stroke="#989898" stroke-miterlimit="10"/>
<path d="M293.818 39.7263C295.866 42.1174 298.345 43.9635 301.079 45.1349L304.778 41.7475C304.888 41.6606 305.018 41.614 305.151 41.614C305.284 41.614 305.414 41.6606 305.524 41.7475L312.392 46.8399C312.653 47.0203 312.873 47.268 313.037 47.5634C313.2 47.8588 313.301 48.1939 313.333 48.5422C313.364 48.8904 313.325 49.2423 313.218 49.57C313.11 49.8978 312.939 50.1923 312.716 50.4305L309.497 54.0889C309.037 54.613 308.47 54.9976 307.849 55.2084C307.227 55.4192 306.57 55.4497 305.936 55.2971C299.609 53.7934 293.778 50.2719 289.109 45.1349C284.543 39.9468 281.383 33.3454 280.013 26.1315C279.878 25.413 279.906 24.6664 280.095 23.9641C280.284 23.2619 280.628 22.6277 281.092 22.1231L284.428 18.4195C284.635 18.1754 284.887 17.9882 285.165 17.8719C285.443 17.7556 285.741 17.7132 286.035 17.748C286.329 17.7827 286.613 17.8937 286.865 18.0726C287.117 18.2515 287.331 18.4936 287.49 18.7809L292.062 26.5832C292.141 26.7057 292.183 26.8541 292.183 27.0066C292.183 27.1591 292.141 27.3075 292.062 27.43L289.05 31.5965C290.095 34.6801 291.724 37.4572 293.818 39.7263V39.7263Z" stroke="#989898" stroke-miterlimit="10"/>
</svg>
