<svg width="411" height="298" viewBox="0 0 411 298" fill="none" xmlns="http://www.w3.org/2000/svg">
<path d="M184.262 217.508L174.715 225.938L157.84 221.077L145.006 232.527L128.131 227.666L115.306 239.115L98.422 234.256L85.5885 245.706L70.4019 241.34L64.4652 250.391L49.6457 241.71L55.406 232.939L43.5735 221.109L48.717 205.161L36.603 193.041L41.7444 177.085L29.6304 164.964L34.7739 149.016L22.6579 136.888L27.8014 120.94L15.6873 108.82L20.8288 92.8637L8.71274 80.7353L13.6061 65.5397L4.58224 60.2538L13.7699 46.2567L22.9003 51.605L34.7402 41.029L51.6154 45.8899L64.4404 34.4415L81.3242 39.3005L94.1492 27.8521L111.024 32.713L123.858 21.2627L140.733 26.1236L153.558 14.6752L170.442 19.5341L183.276 8.08386L199.532 12.7636L205.441 3.74413L220.258 12.4169L214.231 21.6175L225.291 32.6811L220.147 48.629L232.261 60.7493L227.12 76.7054L237.487 87.1401" stroke="#989898" stroke-miterlimit="10"/>
<path d="M400.805 106.683L409.32 99.448L397.668 87.1979L389.322 94.2909L375.105 85.4926L359.39 93.0845L344.623 83.9481L328.917 91.5405L314.16 82.4045L298.445 89.9964L283.688 80.8604L267.981 88.4528L253.215 79.3164L237.509 86.9087L222.752 77.7727L208.25 84.7886L201.072 77.2362L188.101 88.2386L195.196 95.7029L185.992 108.993L194.025 123.845L184.357 137.799L192.391 152.643L182.724 166.589L190.757 181.441L181.09 195.387L189.124 210.23L179.456 224.185L187.49 239.028L177.823 252.974L185.673 267.464L177.542 274.358L189.193 286.617L197.576 279.5L210.859 287.715L226.574 280.123L241.34 289.259L257.046 281.667L271.803 290.803L287.518 283.211L302.276 292.347L317.982 284.754L332.748 293.891L348.454 286.298L363.211 295.434L377.941 288.313L385.789 296.578L398.76 285.568L391.046 277.451L399.972 264.214L391.938 249.362L401.606 235.408L393.572 220.564L403.239 206.618L395.206 191.767L404.873 177.82L396.839 162.977L406.507 149.022L398.473 134.179L408.14 120.233L400.805 106.683Z" stroke="#989898" stroke-miterlimit="10"/>
</svg>
