<svg width="269" height="103" viewBox="0 0 269 103" fill="none" xmlns="http://www.w3.org/2000/svg">
<path d="M139.639 14.5647C137.983 14.5647 136.867 15.5637 136.867 17.0436C136.867 18.1783 137.603 19.0786 138.768 19.4116L136.413 22.7045H137.505L139.774 19.5349H141.38V22.7045H142.337V14.5647H139.639ZM141.38 18.6593H139.639C138.56 18.6593 137.861 18.0303 137.861 17.0436C137.861 16.0693 138.56 15.428 139.639 15.428H141.38V18.6593Z" fill="#989898"/>
<path d="M152.827 20.8915C152.827 20.2009 152.398 19.6952 151.699 19.4486C152.092 19.1896 152.325 18.7703 152.325 18.2893C152.325 17.315 151.576 16.6983 150.399 16.6983H147.934V22.7045H150.706C151.993 22.7045 152.827 21.9645 152.827 20.8915ZM148.878 17.5493H150.411C151.061 17.5493 151.393 17.8083 151.393 18.3386C151.393 18.8443 151.061 19.1526 150.411 19.1526H148.878V17.5493ZM151.883 20.8915C151.883 21.4712 151.429 21.8659 150.644 21.8659H148.878V19.9912H150.644C151.429 19.9912 151.883 20.3366 151.883 20.8915Z" fill="#989898"/>
<path d="M159.878 19.9912C159.927 19.7446 159.952 19.5102 159.952 19.2759C159.952 17.685 158.775 16.5626 157.229 16.5626C155.525 16.5626 154.176 17.9686 154.176 19.7076C154.176 21.4712 155.562 22.8402 157.34 22.8402C158.284 22.8402 159.106 22.4455 159.731 21.7919L159.179 21.1505C158.64 21.6932 158.027 21.9645 157.352 21.9645C156.175 21.9645 155.267 21.1752 155.157 19.9912H159.878ZM155.194 19.1526C155.402 18.1166 156.212 17.426 157.205 17.426C158.198 17.426 158.971 18.0796 158.983 19.1526H155.194Z" fill="#989898"/>
<path d="M165.515 20.9779C165.515 20.2996 165.147 19.7569 164.497 19.4979C164.975 19.2019 165.208 18.7456 165.208 18.2029C165.208 17.1793 164.436 16.5626 163.246 16.5626C162.265 16.5626 161.529 16.982 161.075 17.611L161.713 18.1783C162.105 17.6973 162.535 17.4383 163.209 17.4383C163.896 17.4383 164.276 17.759 164.276 18.2646C164.276 18.7949 163.92 19.1033 163.234 19.1033H162.596V19.9419H163.246C164.08 19.9419 164.546 20.3366 164.546 20.9162C164.546 21.5452 164.08 21.9645 163.246 21.9645C162.51 21.9645 162.007 21.6562 161.603 21.1135L160.965 21.6809C161.504 22.4208 162.277 22.8402 163.258 22.8402C164.619 22.8402 165.515 22.1125 165.515 20.9779Z" fill="#989898"/>
<path d="M171.435 16.6983L169.461 21.4835L167.486 16.6983H166.469L168.946 22.5195L168.627 23.2348C168.32 23.9625 167.903 24.1968 167.278 24.1968C167.106 24.1968 166.861 24.1721 166.554 24.1351V24.9368C166.861 25.0231 167.168 25.0601 167.474 25.0601C168.394 25.0601 169.044 24.5915 169.498 23.5432L172.441 16.6983H171.435Z" fill="#989898"/>
<path d="M140.963 36.8346C140.963 36.1563 140.595 35.6137 139.945 35.3547C140.424 35.0587 140.657 34.6024 140.657 34.0597C140.657 33.0361 139.884 32.4194 138.694 32.4194C137.713 32.4194 136.978 32.8387 136.524 33.4677L137.161 34.035C137.554 33.5541 137.983 33.2951 138.658 33.2951C139.344 33.2951 139.725 33.6157 139.725 34.1214C139.725 34.6517 139.369 34.96 138.682 34.96H138.044V35.7987H138.694C139.528 35.7987 139.994 36.1933 139.994 36.773C139.994 37.402 139.528 37.8213 138.694 37.8213C137.959 37.8213 137.456 37.513 137.051 36.9703L136.413 37.5376C136.953 38.2776 137.726 38.6969 138.707 38.6969C140.068 38.6969 140.963 37.9693 140.963 36.8346Z" fill="#989898"/>
<path d="M147.117 34.8614C147.117 33.2827 146.197 32.4194 144.787 32.4194C143.793 32.4194 142.898 32.8511 142.359 33.7391L142.984 34.257C143.475 33.6157 144.002 33.2951 144.725 33.2951C145.621 33.2951 146.173 33.8254 146.173 34.812V35.33H144.284C142.996 35.33 142.138 35.9837 142.138 37.0073C142.138 38.0433 142.996 38.6969 144.223 38.6969C145.093 38.6969 145.792 38.3763 146.234 37.7843V38.5613H147.117V34.8614ZM146.173 36.255C146.173 37.18 145.326 37.9076 144.345 37.9076C143.646 37.9076 143.107 37.5623 143.107 36.958C143.107 36.403 143.56 36.107 144.394 36.107H146.173V36.255Z" fill="#989898"/>
<path d="M149.12 38.5613H150.064V34.5037L152.1 36.9456H152.468L154.504 34.5037V38.5613H155.448V32.4194H155.117L152.296 35.7987L149.463 32.4194H149.12V38.5613Z" fill="#989898"/>
<path d="M162.801 35.848C162.85 35.6013 162.874 35.367 162.874 35.1327C162.874 33.5417 161.697 32.4194 160.152 32.4194C158.447 32.4194 157.098 33.8254 157.098 35.5643C157.098 37.328 158.484 38.6969 160.262 38.6969C161.206 38.6969 162.028 38.3023 162.653 37.6486L162.102 37.0073C161.562 37.55 160.949 37.8213 160.274 37.8213C159.097 37.8213 158.189 37.032 158.079 35.848H162.801ZM158.116 35.0094C158.324 33.9734 159.134 33.2827 160.127 33.2827C161.12 33.2827 161.893 33.9364 161.905 35.0094H158.116Z" fill="#989898"/>
<path d="M167.979 32.5551V35.3547C167.624 35.515 167.084 35.6137 166.655 35.6137C165.588 35.6137 165.048 35.0957 165.048 34.072V32.5551H164.104V34.1214C164.104 35.6383 165.036 36.4647 166.471 36.4647C167.096 36.4647 167.599 36.3783 167.979 36.1933V38.5613H168.924V32.5551H167.979Z" fill="#989898"/>
<path d="M175.489 34.8614C175.489 33.2827 174.569 32.4194 173.159 32.4194C172.165 32.4194 171.27 32.8511 170.73 33.7391L171.356 34.257C171.846 33.6157 172.374 33.2951 173.097 33.2951C173.993 33.2951 174.544 33.8254 174.544 34.812V35.33H172.656C171.368 35.33 170.51 35.9837 170.51 37.0073C170.51 38.0433 171.368 38.6969 172.595 38.6969C173.465 38.6969 174.164 38.3763 174.606 37.7843V38.5613H175.489V34.8614ZM174.544 36.255C174.544 37.18 173.698 37.9076 172.717 37.9076C172.018 37.9076 171.479 37.5623 171.479 36.958C171.479 36.403 171.932 36.107 172.766 36.107H174.544V36.255Z" fill="#989898"/>
<path d="M178.574 38.5613H179.506V33.4061H181.517V32.5551H176.563V33.4061H178.574V38.5613Z" fill="#989898"/>
<path d="M188.083 35.848C188.132 35.6013 188.156 35.367 188.156 35.1327C188.156 33.5417 186.979 32.4194 185.434 32.4194C183.729 32.4194 182.38 33.8254 182.38 35.5643C182.38 37.328 183.766 38.6969 185.544 38.6969C186.488 38.6969 187.31 38.3023 187.935 37.6486L187.384 37.0073C186.844 37.55 186.231 37.8213 185.556 37.8213C184.379 37.8213 183.471 37.032 183.361 35.848H188.083ZM183.398 35.0094C183.606 33.9734 184.416 33.2827 185.409 33.2827C186.403 33.2827 187.175 33.9364 187.187 35.0094H183.398Z" fill="#989898"/>
<path d="M190.281 32.5551L190.245 34.1214C190.196 36.588 189.913 37.7843 189.141 37.7843C189.08 37.7843 188.994 37.772 188.896 37.7596V38.5613C188.994 38.5983 189.104 38.6106 189.214 38.6106C190.625 38.5613 191.029 37.2786 191.14 34.146L191.164 33.4061H193.384V38.5613H194.328V32.5551H190.281Z" fill="#989898"/>
<path d="M196.414 38.5613H198.781C200.143 38.5613 201.013 37.772 201.013 36.588C201.013 35.404 200.143 34.627 198.781 34.627H197.359V32.5551H196.414V38.5613ZM197.359 37.7226V35.4657H198.72C199.554 35.4657 200.044 35.922 200.044 36.6003C200.044 37.2786 199.566 37.7226 198.732 37.7226H197.359Z" fill="#989898"/>
<path d="M202.666 38.5613H203.61V35.7863H206.541V38.5613H207.486V32.5551H206.541V34.9477H203.61V32.5551H202.666V38.5613Z" fill="#989898"/>
<path d="M209.552 38.5613H211.919C213.281 38.5613 214.151 37.7843 214.151 36.588C214.151 35.404 213.256 34.627 211.919 34.627H210.497V32.5551H209.552V38.5613ZM215.022 38.5613H215.966V32.5551H215.022V38.5613ZM210.497 37.7226V35.4657H211.858C212.704 35.4657 213.182 35.8727 213.182 36.6003C213.182 37.328 212.716 37.7226 211.87 37.7226H210.497Z" fill="#989898"/>
<path d="M222.63 32.4194L218.988 36.81V32.5551H218.044V38.6969H218.387L222.029 34.3187V38.5613H222.974V32.4194H222.63ZM218.792 29.5458C218.792 30.7175 219.527 31.4944 220.643 31.4944C221.772 31.4944 222.508 30.7175 222.508 29.5458V29.1635H221.71V29.5212C221.71 30.3228 221.33 30.7791 220.643 30.7791C219.969 30.7791 219.589 30.3228 219.589 29.5212V29.1635H218.792V29.5458Z" fill="#989898"/>
<path d="M141.54 53.5794V48.4118H137.419L137.382 50.1015C137.345 51.9144 137.149 52.9997 136.597 53.5794H135.923V56.157H136.867V54.418H141.564V56.157H142.508V53.5794H141.54ZM137.591 53.5794C137.983 53.0244 138.241 51.7911 138.277 50.1138L138.314 49.2628H140.595V53.5794H137.591Z" fill="#989898"/>
<path d="M148.581 48.2762L144.938 52.6667V48.4118H143.994V54.5537H144.337L147.98 50.1755V54.418H148.924V48.2762H148.581Z" fill="#989898"/>
<path d="M155.893 52.6051C155.893 51.9144 155.464 51.4088 154.765 51.1621C155.158 50.9031 155.391 50.4838 155.391 50.0028C155.391 49.0285 154.642 48.4118 153.465 48.4118H151V54.418H153.772C155.059 54.418 155.893 53.6781 155.893 52.6051ZM151.944 49.2628H153.477C154.127 49.2628 154.458 49.5218 154.458 50.0521C154.458 50.5578 154.127 50.8661 153.477 50.8661H151.944V49.2628ZM154.949 52.6051C154.949 53.1847 154.495 53.5794 153.71 53.5794H151.944V51.7048H153.71C154.495 51.7048 154.949 52.0501 154.949 52.6051Z" fill="#989898"/>
<path d="M162.147 50.7181C162.147 49.1395 161.227 48.2762 159.817 48.2762C158.824 48.2762 157.928 48.7078 157.389 49.5958L158.014 50.1138C158.505 49.4725 159.032 49.1518 159.756 49.1518C160.651 49.1518 161.203 49.6822 161.203 50.6688V51.1868H159.314C158.027 51.1868 157.168 51.8404 157.168 52.8641C157.168 53.9001 158.027 54.5537 159.253 54.5537C160.124 54.5537 160.823 54.233 161.264 53.6411V54.418H162.147V50.7181ZM161.203 52.1118C161.203 53.0367 160.357 53.7644 159.376 53.7644C158.677 53.7644 158.137 53.4191 158.137 52.8147C158.137 52.2598 158.591 51.9638 159.425 51.9638H161.203V52.1118Z" fill="#989898"/>
<path d="M164.15 54.418H165.094V51.6431H168.025V54.418H168.97V48.4118H168.025V50.8045H165.094V48.4118H164.15V54.418Z" fill="#989898"/>
<path d="M170.938 53.7767C170.938 54.2207 171.282 54.5537 171.711 54.5537C172.14 54.5537 172.484 54.2207 172.484 53.7767C172.484 53.3327 172.14 52.9997 171.711 52.9997C171.282 52.9997 170.938 53.3327 170.938 53.7767Z" fill="#989898"/>
<path d="M180.569 51.4088C180.569 49.6452 179.318 48.2762 177.613 48.2762C176.681 48.2762 175.81 48.6832 175.357 49.3738V48.4118H174.474V56.638H175.418V53.5547C175.909 54.1837 176.73 54.5537 177.613 54.5537C179.293 54.5537 180.569 53.1724 180.569 51.4088ZM179.6 51.4211C179.6 52.7161 178.692 53.6781 177.478 53.6781C176.375 53.6781 175.406 52.9381 175.406 51.4088C175.406 49.8918 176.411 49.1518 177.478 49.1518C178.692 49.1518 179.6 50.1261 179.6 51.4211Z" fill="#989898"/>
<path d="M186.202 48.4118L184.228 53.1971L182.253 48.4118H181.235L183.713 54.233L183.394 54.9484C183.087 55.676 182.67 55.9103 182.045 55.9103C181.873 55.9103 181.628 55.8857 181.321 55.8487V56.6503C181.628 56.7367 181.934 56.7737 182.241 56.7737C183.161 56.7737 183.811 56.305 184.264 55.2567L187.208 48.4118H186.202Z" fill="#989898"/>
<path d="M42.8681 102.5C53.8882 102.5 62.8798 93.8093 62.8798 83.1521C62.8798 72.4992 53.8882 63.8085 42.8681 63.8085C31.8435 63.8085 22.8564 72.4992 22.8564 83.1521C22.8564 93.8093 31.8435 102.5 42.8681 102.5Z" stroke="#989898" stroke-miterlimit="10"/>
<path d="M43.4659 94.5381C50.2308 94.5381 55.7462 89.1933 55.7462 82.6435C55.7462 76.0936 50.2308 70.7532 43.4659 70.7532C36.701 70.7532 31.1855 76.0936 31.1855 82.6435C31.1855 89.1933 36.701 94.5381 43.4659 94.5381Z" stroke="#989898" stroke-miterlimit="10"/>
<path d="M43.4611 91.7433C48.6313 91.7433 52.852 87.8171 52.852 82.9967C52.852 78.1806 48.6313 74.2544 43.4611 74.2544C38.291 74.2544 34.0703 78.1806 34.0703 82.9967C34.0703 87.8157 38.291 91.7433 43.4611 91.7433Z" stroke="#989898" stroke-miterlimit="10"/>
<path d="M20.0101 87.5454L5.04645 84.2908C5.04645 84.2908 1.31751 82.1162 0.868956 77.0504C0.420406 71.9818 5.94355 48.5263 18.6345 42.1561C31.321 35.7859 46.7003 33.1799 50.1332 30.8606C53.5691 28.5456 92.0846 6.10361 92.0846 6.10361C92.0846 6.10361 97.7587 2.33649 110.598 1.75738C123.437 1.17827 243.914 1.75738 243.914 1.75738C243.914 1.75738 249.141 1.3216 251.079 4.94249C253.021 8.56193 263.918 36.5084 263.918 36.5084C263.918 36.5084 264.815 38.2442 264.515 41.8637C264.219 45.4831 263.77 56.0519 263.77 56.0519C263.77 56.0519 263.321 57.0653 265.111 61.2639C266.905 65.4624 268.843 70.0968 268.843 70.0968V78.4939C268.843 78.4939 268.996 81.6833 264.515 82.1133C262.001 82.3594 251.375 83.1514 242.551 83.8C242.563 83.5046 242.567 83.2093 242.567 82.9096C242.567 69.8376 231.64 59.2399 218.161 59.2399C204.678 59.2399 193.751 69.8376 193.751 82.9096C193.751 83.7174 193.789 84.5137 193.874 85.3027H66.7266C66.8118 84.5152 66.8536 83.7189 66.8536 82.9096C66.8536 70.2357 56.2619 59.9623 43.1926 59.9623C30.1234 59.9623 19.5286 70.2357 19.5286 82.9096C19.5286 84.4992 19.6976 86.0469 20.0101 87.5454Z" stroke="#989898" stroke-miterlimit="10"/>
<path d="M217.973 102.5C228.992 102.5 237.982 93.8093 237.982 83.1521C237.982 72.4992 228.992 63.8085 217.973 63.8085C206.95 63.8085 197.959 72.4992 197.959 83.1521C197.959 93.8093 206.95 102.5 217.973 102.5Z" stroke="#989898" stroke-miterlimit="10"/>
<path d="M218.285 94.5381C225.048 94.5381 230.563 89.1933 230.563 82.6435C230.563 76.0936 225.048 70.7532 218.285 70.7532C211.521 70.7532 206.002 76.0936 206.002 82.6435C206.002 89.1933 211.521 94.5381 218.285 94.5381Z" stroke="#989898" stroke-miterlimit="10"/>
<path d="M218.28 91.7433C223.451 91.7433 227.668 87.8171 227.668 82.9967C227.668 78.1806 223.451 74.2544 218.28 74.2544C213.104 74.2544 208.887 78.1806 208.887 82.9967C208.887 87.8157 213.104 91.7433 218.28 91.7433Z" stroke="#989898" stroke-miterlimit="10"/>
<path d="M238.502 69.3568L268.119 68.6572" stroke="#989898" stroke-miterlimit="10"/>
<path d="M260.97 28.0846H259.074C259.074 28.0846 254.459 39.9939 255.202 42.5233C255.945 45.0484 263.934 57.7457 263.934 57.7457" stroke="#989898" stroke-miterlimit="10"/>
<path d="M56.8421 31.9999C62.8409 27.6107 83.134 13.0646 93.3046 9.62925C105.325 5.56911 116.746 5.71696 116.746 5.71696C116.746 5.71696 119.527 5.35603 119.302 7.59846C119.076 9.84668 117.875 22.8925 117.875 22.8925L112.839 30.2851C112.839 30.2851 111.561 31.0823 108.332 31.5172C105.53 31.8955 67.9337 34.9483 58.0385 35.7455C54.1722 36.0644 54.3077 33.8568 56.8421 31.9999Z" stroke="#989898" stroke-miterlimit="10"/>
<path d="M15.623 48.1074C21.0983 44.4726 27.0006 42.7708 27.0006 42.7708L29.7396 43.7328C29.7396 43.7328 18.5785 59.6687 12.9604 62.2658C7.34231 64.8586 5.90137 65.1565 5.90137 65.1565C7.28606 58.0469 9.02124 52.4864 15.623 48.1074Z" stroke="#989898" stroke-miterlimit="10"/>
<path d="M0.84375 74.2544H21.7925" stroke="#989898" stroke-miterlimit="10"/>
<path d="M123.646 1.5V85.4467" stroke="#989898" stroke-miterlimit="10"/>
<path d="M78.1387 34.3781V17.5887" stroke="#989898" stroke-miterlimit="10"/>
<rect x="236.258" y="49.0081" width="12.0027" height="8.23413" rx="2.5" stroke="#989898"/>
</svg>
