<svg width="1920" height="234" viewBox="0 0 1920 234" fill="none" xmlns="http://www.w3.org/2000/svg">
<path d="M1110.26 58.9814L1094.1 233.475H1098.86L1119.07 58.9814H1110.26Z" stroke="#989898" stroke-miterlimit="10"/>
<path d="M1162.31 58.9814L1178.47 233.475H1173.7L1153.49 58.9814H1162.31Z" stroke="#989898" stroke-miterlimit="10"/>
<path d="M1166.78 173.661H1105.79L1106.33 169.018H1166.25L1166.78 173.661Z" stroke="#989898" stroke-miterlimit="10"/>
<path d="M1179.5 41.9419H1093.07C1093.07 51.3498 1101.19 58.9789 1111.21 58.9789H1161.36C1171.38 58.9789 1179.5 51.3498 1179.5 41.9419Z" stroke="#989898" stroke-miterlimit="10"/>
<path d="M1168.41 41.944L1165.8 9.67169C1165.39 4.61257 1160.99 0.557119 1155.58 0.5C1155.53 0.5 1155.49 0.5 1155.44 0.5H1117.14C1117.09 0.5 1117.04 0.5 1116.99 0.5C1111.59 0.557119 1107.18 4.61257 1106.77 9.67169L1104.17 41.944" stroke="#989898" stroke-miterlimit="10"/>
<path d="M777.137 143.893L747.043 233.5H751.888L785.189 143.893H777.137Z" stroke="#989898" stroke-miterlimit="10"/>
<path d="M832.753 143.893L862.847 233.5H858.002L824.7 143.893H832.753Z" stroke="#989898" stroke-miterlimit="10"/>
<path d="M832.273 165.211L767.377 190.437" stroke="#989898" stroke-miterlimit="10"/>
<path d="M777.136 165.211L841.964 190.437" stroke="#989898" stroke-miterlimit="10"/>
<path d="M762.608 131.39C764.246 124.355 768.068 119.452 772.571 119.452H838.696C843.132 119.452 846.953 124.355 848.591 131.248" stroke="#989898" stroke-miterlimit="10"/>
<path d="M859.238 76.1749V116.04C859.238 124.78 852.413 131.886 844.02 131.886H765.885C757.287 131.886 750.326 124.638 750.326 115.685V76.1749C750.326 73.3325 748.143 71.0586 745.413 71.0586C742.684 71.0586 740.5 73.3325 740.5 76.1749V116.111C740.5 131.46 752.442 143.824 767.114 143.824H842.723C857.463 143.824 869.337 131.389 869.337 116.111V76.1749C869.337 73.3325 867.153 71.0586 864.424 71.0586H864.082C861.421 71.0586 859.238 73.4036 859.238 76.1749Z" stroke="#989898" stroke-miterlimit="10"/>
<path d="M846.274 57.1304C840.883 82.57 837.812 114.902 838.358 119.379" stroke="#989898" stroke-miterlimit="10"/>
<path d="M763.362 57.1289C768.753 82.5685 771.824 114.901 771.278 119.378" stroke="#989898" stroke-miterlimit="10"/>
<path d="M745.615 71.2719C748.413 66.9372 752.234 63.2421 756.738 60.4707C756.875 60.3997 757.011 60.2576 757.148 60.1865C762.948 56.7045 769.84 54.7148 777.278 54.7148H832.689C846.201 54.7148 857.938 61.3235 864.353 71.2719" stroke="#989898" stroke-miterlimit="10"/>
<path d="M1037.86 20.3647H912.65V80.5618H1037.86V20.3647Z" stroke="#989898" stroke-miterlimit="10"/>
<path d="M918.158 233.444H912.65V201.471H923.455L918.158 233.444Z" stroke="#989898" stroke-miterlimit="10"/>
<path d="M1032.36 233.444H1037.86V201.471H1027.06L1032.36 233.444Z" stroke="#989898" stroke-miterlimit="10"/>
<path d="M1037.86 80.5615H912.65V140.759H1037.86V80.5615Z" stroke="#989898" stroke-miterlimit="10"/>
<path d="M1037.86 140.758H912.65V200.955H1037.86V140.758Z" stroke="#989898" stroke-miterlimit="10"/>
<path d="M959.924 20.425V24.9453L990.645 24.9453V20.425H959.924Z" stroke="#989898" stroke-miterlimit="10"/>
<path d="M959.949 80.6018V85.1221H990.669V80.6018H959.949Z" stroke="#989898" stroke-miterlimit="10"/>
<path d="M959.906 140.67V145.19H990.626V140.67H959.906Z" stroke="#989898" stroke-miterlimit="10"/>
<line y1="233.5" x2="1920" y2="233.5" stroke="#989898"/>
</svg>
