<svg width="230" height="31" viewBox="0 0 230 31" fill="none" xmlns="http://www.w3.org/2000/svg">
<path d="M141.685 10.3589H142.468L144.327 12.7551L146.09 10.3589H146.852V15.1941H145.993V11.6704L144.317 13.9154H144.285L142.545 11.6704V15.1941H141.686V10.3589H141.685Z" fill="black"/>
<path d="M152.492 14.6668C152.018 15.0967 151.321 15.2998 150.676 15.2998C149.108 15.2998 148.088 14.3007 148.088 12.776C148.088 11.3689 148.989 10.2523 150.579 10.2523C151.825 10.2523 152.824 11.133 152.824 12.4655C152.824 12.7014 152.803 12.8954 152.771 13.0456H149.053C149.129 13.9582 149.794 14.4956 150.741 14.4956C151.364 14.4956 151.912 14.2815 152.223 13.991L152.492 14.6668ZM149 12.3471H151.934C151.89 11.552 151.375 11.0574 150.537 11.0574C149.656 11.0574 149.097 11.6048 149 12.3471Z" fill="black"/>
<path d="M158.197 8.24324C157.606 9.03742 156.8 8.72594 155.737 9.21047C154.834 9.61849 154.577 10.6385 154.512 11.542H154.533C154.845 10.8653 155.628 10.4145 156.445 10.4145C157.83 10.4145 158.691 11.3708 158.691 12.8207C158.691 14.1741 157.682 15.3026 156.209 15.3026C154.64 15.3026 153.652 14.1532 153.652 12.2943C153.652 10.8662 153.91 9.03924 155.446 8.39533C156.574 7.91172 157.24 8.21227 157.735 7.56836L158.197 8.24324ZM156.187 14.4947C157.134 14.4947 157.778 13.7643 157.778 12.8617C157.778 11.9173 157.229 11.2178 156.231 11.2178C155.318 11.2178 154.717 11.8307 154.565 12.4537C154.564 13.7005 155.232 14.4947 156.187 14.4947Z" fill="black"/>
<path d="M164.009 14.6668C163.535 15.0967 162.838 15.2998 162.193 15.2998C160.624 15.2998 159.604 14.3007 159.604 12.776C159.604 11.3689 160.506 10.2523 162.096 10.2523C163.341 10.2523 164.341 11.133 164.341 12.4655C164.341 12.7014 164.32 12.8954 164.288 13.0456H160.57C160.645 13.9582 161.311 14.4956 162.257 14.4956C162.88 14.4956 163.428 14.2815 163.74 13.991L164.009 14.6668ZM160.517 12.3471H163.451C163.407 11.552 162.891 11.0574 162.053 11.0574C161.172 11.0574 160.614 11.6048 160.517 12.3471Z" fill="black"/>
<path d="M168.627 11.2178H166.93L166.876 12.0338C166.662 14.7853 165.931 15.257 164.931 15.257L164.868 14.4191C165.232 14.451 165.92 14.0967 166.038 11.8617L166.124 10.358H169.487V15.1933H168.627V11.2178Z" fill="black"/>
<path d="M171.034 10.3589H171.893V11.8097H172.774C174.256 11.8097 174.687 12.6158 174.687 13.4746C174.687 14.3234 174.192 15.1941 172.667 15.1941H171.034V10.3589ZM171.894 12.6158V14.3881H172.602C173.451 14.3881 173.774 14.0766 173.774 13.5065C173.774 12.9263 173.44 12.6148 172.613 12.6148H171.894V12.6158Z" fill="black"/>
<path d="M181.798 13.1523H179.113V15.1933H178.253V10.358H179.113V12.3462H181.798V10.358H182.658V15.1933H181.798V13.1523Z" fill="black"/>
<path d="M184.247 10.6922C184.677 10.4235 185.256 10.2523 185.859 10.2523C187.234 10.2523 187.717 10.9718 187.717 12.2287V15.1941H186.901V14.5702C186.611 14.9355 186.15 15.2688 185.355 15.2688C184.474 15.2688 183.872 14.7105 183.872 13.7752C183.872 12.787 184.656 12.2387 185.699 12.2387C186.074 12.2387 186.58 12.3134 186.901 12.5502C186.901 11.6485 186.763 11.0246 185.805 11.0246C185.215 11.0246 184.861 11.1749 184.474 11.3798L184.247 10.6922ZM186.9 13.8717V13.2597C186.6 13.0447 186.235 12.9373 185.815 12.9373C185.301 12.9373 184.784 13.1741 184.784 13.7323C184.784 14.1941 185.096 14.4947 185.654 14.4947C186.288 14.4947 186.654 14.1622 186.9 13.8717Z" fill="black"/>
<path d="M192.788 15.1942H191.929V13.3135C191.606 13.5175 191.123 13.6678 190.585 13.6678C189.426 13.6678 188.867 13.0667 188.867 11.8207V10.3599H189.78V11.7242C189.78 12.4983 190.166 12.8626 190.822 12.8626C191.305 12.8626 191.714 12.7133 191.929 12.5621V10.3599H192.788V15.1942Z" fill="black"/>
<path d="M194.335 15.1941V10.3589H195.194V13.9573L197.986 10.3589H198.846V15.1941H197.986V11.5948L195.194 15.1941H194.335Z" fill="black"/>
<path d="M203.949 13.1523H201.264V15.1933H200.404V10.358H201.264V12.3462H203.949V10.358H204.809V15.1933H203.949V13.1523Z" fill="black"/>
<path d="M206.399 10.6922C206.83 10.4235 207.409 10.2523 208.011 10.2523C209.386 10.2523 209.87 10.9718 209.87 12.2287V15.1941H209.054V14.5702C208.764 14.9355 208.301 15.2688 207.506 15.2688C206.626 15.2688 206.025 14.7105 206.025 13.7752C206.025 12.787 206.809 12.2387 207.851 12.2387C208.227 12.2387 208.732 12.3134 209.054 12.5502C209.054 11.6485 208.914 11.0246 207.958 11.0246C207.368 11.0246 207.013 11.1749 206.626 11.3798L206.399 10.6922ZM209.053 13.8717V13.2597C208.752 13.0447 208.387 12.9373 207.968 12.9373C207.453 12.9373 206.936 13.1741 206.936 13.7323C206.936 14.1941 207.248 14.4947 207.807 14.4947C208.441 14.4947 208.805 14.1622 209.053 13.8717Z" fill="black"/>
<path d="M215.39 14.6668C214.917 15.0967 214.22 15.2998 213.575 15.2998C212.007 15.2998 210.986 14.3007 210.986 12.776C210.986 11.3689 211.887 10.2523 213.478 10.2523C214.724 10.2523 215.723 11.133 215.723 12.4655C215.723 12.7014 215.702 12.8954 215.669 13.0456H211.952C212.028 13.9582 212.693 14.4956 213.64 14.4956C214.263 14.4956 214.81 14.2815 215.122 13.991L215.39 14.6668ZM211.898 12.3471H214.832C214.789 11.552 214.274 11.0574 213.436 11.0574C212.554 11.0574 211.995 11.6048 211.898 12.3471Z" fill="black"/>
<path d="M216.186 10.3589H220.59V11.2177H218.818V15.1932H217.959V11.2177H216.187V10.3589H216.186Z" fill="black"/>
<path d="M225.489 14.4947C225.081 15.0211 224.371 15.3007 223.63 15.3007C222.093 15.3007 221.041 14.3016 221.041 12.777C221.041 11.3699 222.072 10.2533 223.49 10.2533C224.264 10.2533 224.94 10.4355 225.391 10.8863L224.993 11.563C224.585 11.1868 224.113 11.0575 223.608 11.0575C222.738 11.0575 221.954 11.7561 221.954 12.777C221.954 13.8408 222.738 14.4956 223.694 14.4956C224.275 14.4956 224.757 14.2388 225.08 13.8727L225.489 14.4947Z" fill="black"/>
<path d="M230 10.3589V15.1941H229.141V13.5821H228.207L227.025 15.1941H225.983L227.38 13.3671C226.885 13.2487 226.337 12.766 226.337 11.9709C226.337 11.144 226.885 10.3589 228.496 10.3589H230ZM228.152 12.7761H229.14V11.164H228.356C227.55 11.164 227.249 11.5401 227.249 11.991C227.249 12.4864 227.723 12.7761 228.152 12.7761Z" fill="black"/>
<path d="M145.81 28.1233C145.402 28.6497 144.693 28.9293 143.951 28.9293C142.415 28.9293 141.362 27.9293 141.362 26.4056C141.362 24.9976 142.394 23.881 143.811 23.881C144.585 23.881 145.262 24.0631 145.713 24.5149L145.315 25.1907C144.907 24.8154 144.434 24.6861 143.93 24.6861C143.06 24.6861 142.276 25.3846 142.276 26.4056C142.276 27.4685 143.06 28.1242 144.016 28.1242C144.596 28.1242 145.08 27.8665 145.401 27.5013L145.81 28.1233Z" fill="black"/>
<path d="M148.679 28.0157H149.28C149.602 27.6077 149.936 26.5877 150.021 25.2652L150.096 23.9874H153.394V28.0157H154.2V30.0039H153.394V28.8218H149.484V30.0039H148.678V28.0157H148.679ZM150.193 28.0157H152.535V24.7935H150.902L150.848 25.5995C150.741 26.8336 150.418 27.7152 150.193 28.0157Z" fill="black"/>
<path d="M155.135 28.8218V23.9874H155.993V27.5858L158.787 23.9874H159.646V28.8218H158.787V25.2233L155.993 28.8218H155.135Z" fill="black"/>
<path d="M161.204 23.9874C161.623 23.9874 162.256 23.9446 162.956 23.9446C164.309 23.9446 165.04 24.3198 165.04 25.1896C165.04 25.7597 164.652 26.2106 164.072 26.2971V26.318C164.846 26.4574 165.2 26.8554 165.2 27.4565C165.2 28.37 164.48 28.8645 162.977 28.8645C162.376 28.8645 161.644 28.8208 161.204 28.8208V23.9874ZM162.064 24.675V26.114H163.149C163.718 26.114 164.126 25.8344 164.126 25.3626C164.126 24.8362 163.643 24.6422 163.02 24.6422C162.633 24.6422 162.279 24.6641 162.064 24.675ZM162.064 26.6514V28.1341C162.322 28.145 162.666 28.166 163.052 28.166C163.847 28.166 164.288 27.8973 164.288 27.3927C164.288 26.8873 163.868 26.6514 163.095 26.6514H162.064Z" fill="black"/>
<path d="M166.544 24.3199C166.974 24.0512 167.553 23.88 168.156 23.88C169.531 23.88 170.014 24.5995 170.014 25.8573V28.8218H169.198V28.1979C168.908 28.5631 168.447 28.8974 167.651 28.8974C166.771 28.8974 166.169 28.3391 166.169 27.4037C166.169 26.4156 166.953 25.8673 167.995 25.8673C168.371 25.8673 168.876 25.942 169.198 26.1788C169.198 25.2762 169.059 24.6523 168.102 24.6523C167.512 24.6523 167.157 24.8035 166.771 25.0075L166.544 24.3199ZM169.197 27.5003V26.8873C168.896 26.6733 168.531 26.5649 168.112 26.5649C167.598 26.5649 167.081 26.8008 167.081 27.3591C167.081 27.8218 167.393 28.1223 167.951 28.1223C168.585 28.1232 168.949 27.7908 169.197 27.5003Z" fill="black"/>
<path d="M174.998 26.7798H172.312V28.8218H171.453V23.9874H172.312V25.9747H174.998V23.9874H175.857V28.8218H174.998V26.7798Z" fill="black"/>
<path d="M177.446 24.504C177.876 24.2353 178.456 24.0641 179.059 24.0641C180.434 24.0641 180.916 24.7836 180.916 26.0414V29.0059H180.1V28.382C179.81 28.7472 179.348 29.0815 178.553 29.0815C177.672 29.0815 177.07 28.5232 177.07 27.5878C177.07 26.5996 177.854 26.0514 178.897 26.0514C179.273 26.0514 179.778 26.126 180.1 26.3628C180.1 25.4603 179.961 24.8364 179.004 24.8364C178.414 24.8364 178.059 24.9876 177.672 25.1916L177.446 24.504ZM180.101 27.6844V27.0714C179.8 26.8574 179.436 26.749 179.017 26.749C178.501 26.749 177.985 26.9849 177.985 27.5432C177.985 28.0059 178.297 28.3064 178.855 28.3064C179.488 28.3073 179.854 27.9749 180.101 27.6844Z" fill="black"/>
<path d="M14.9156 26.6444C13.5494 28.1344 11.5193 29.3357 8.99014 29.3357C3.52101 29.3357 0 25.5651 0 19.8064C0 14.0057 4.30791 9.94463 10.1923 9.94463C12.1815 9.94463 13.6305 10.3581 14.9156 11.2707V0H18.2307V29.0051H14.9156V26.6444ZM14.9156 23.7427V14.503C13.3418 13.5066 11.8508 13.0522 10.3162 13.0522C6.62944 13.0522 3.52101 15.6205 3.52101 19.7226C3.52101 23.8256 6.13217 26.2282 9.6122 26.2282C11.7671 26.2282 13.7562 25.0269 14.9156 23.7427Z" fill="black"/>
<path d="M25.7657 1.36707C26.803 1.36707 27.7957 2.15488 27.7957 3.35708C27.7957 4.72414 26.8021 5.51195 25.7657 5.51195C24.6072 5.51195 23.6117 4.72414 23.6117 3.35708C23.6108 2.15488 24.6063 1.36707 25.7657 1.36707ZM24.0261 10.3581H27.3413V29.0051H24.0261V10.3581Z" fill="black"/>
<path d="M41.7812 29.171H39.3768L30.7173 10.3583H34.6117L39.1291 20.4286C39.6674 21.629 40.2475 23.2046 40.7029 24.5726C41.1182 23.2046 41.6984 21.588 42.2366 20.3448L46.5063 10.3583H50.0264L41.7812 29.171Z" fill="black"/>
<path d="M52.9455 11.6422C54.6031 10.6067 56.8399 9.94458 59.1614 9.94458C64.4657 9.94458 66.3301 12.7197 66.3301 17.5677V29.005H63.1806V26.6006C62.0613 28.0096 60.2789 29.2956 57.2142 29.2956C53.8162 29.2956 51.4946 27.1407 51.4946 23.535C51.4946 19.7225 54.5202 17.6096 58.5403 17.6096C59.9893 17.6096 61.9365 17.9001 63.1806 18.8109C63.1806 15.3317 62.6415 12.9264 58.9538 12.9264C56.6741 12.9264 55.3071 13.5066 53.8153 14.2944L52.9455 11.6422ZM63.1815 23.9084V21.5459C62.0203 20.7189 60.6123 20.3027 58.9957 20.3027C57.0066 20.3027 55.0184 21.2153 55.0184 23.3701C55.0184 25.1516 56.2197 26.311 58.3755 26.311C60.819 26.3119 62.228 25.0268 63.1815 23.9084Z" fill="black"/>
<path d="M71.4521 10.358H74.7673V12.6377C76.0515 11.2287 78.414 10.0283 80.8585 10.0283C85.7065 10.0283 88.6073 12.389 88.6073 18.2316V29.005H85.2912V18.8518C85.2912 14.9574 83.5107 13.1349 80.0297 13.1349C77.9158 13.1349 75.9686 14.1723 74.7673 15.5375V29.005H71.4521V10.358Z" fill="black"/>
<path d="M95.5866 24.5714C94.1357 24.5714 93.225 25.6907 93.225 26.7673C93.225 28.0104 94.1357 29.1298 95.5866 29.1298C96.8717 29.1298 97.7824 28.0104 97.7824 26.7673C97.7824 25.6907 96.8717 24.5714 95.5866 24.5714Z" fill="black"/>
<path d="M106.152 12.5548V10.359H102.837V29.0059H106.152V15.7871C106.856 14.4201 107.893 13.135 110.048 13.135C111.166 13.135 111.662 13.3017 112.574 13.839L113.734 10.7315C113.112 10.2752 112.366 10.0275 110.833 10.0275C108.473 10.0275 107.106 11.1459 106.152 12.5548Z" fill="black"/>
<path d="M129.979 23.5359C128.818 25.0278 126.787 26.3128 124.632 26.3128C121.235 26.3128 119.826 24.2409 119.826 20.718V10.359H116.511V21.4639C116.511 26.934 119.246 29.4195 123.39 29.4195C126.332 29.4195 128.693 27.9276 129.979 26.3529V29.006H133.294V10.359H129.979V23.5359Z" fill="black"/>
</svg>
