<svg width="22" height="22" viewBox="0 0 22 22" fill="none" xmlns="http://www.w3.org/2000/svg">
<path d="M15.0325 2.5H0.5V12.5055H15.0325V2.5Z" stroke="#404040" stroke-miterlimit="10"/>
<path d="M15.0537 12.1943V6.82617H20.0674L21.5 12.1943" stroke="#404040" stroke-miterlimit="10"/>
<path d="M21.4995 12.5059H0.519531V16.3685H21.4995V12.5059Z" stroke="#404040" stroke-miterlimit="10"/>
<path d="M17.4048 19.5004C18.7605 19.5004 19.8594 18.402 19.8594 17.0471C19.8594 15.6921 18.7605 14.5938 17.4048 14.5938C16.0492 14.5938 14.9502 15.6921 14.9502 17.0471C14.9502 18.402 16.0492 19.5004 17.4048 19.5004Z" fill="white" stroke="#404040" stroke-miterlimit="10"/>
<path d="M5.26615 19.5004C6.62179 19.5004 7.72077 18.402 7.72077 17.0471C7.72077 15.6921 6.62179 14.5938 5.26615 14.5938C3.9105 14.5938 2.81152 15.6921 2.81152 17.0471C2.81152 18.402 3.9105 19.5004 5.26615 19.5004Z" fill="white" stroke="#404040" stroke-miterlimit="10"/>
</svg>
