<svg width="42" height="35" viewBox="0 0 42 35" fill="none" xmlns="http://www.w3.org/2000/svg">
<path d="M4.42871 24.5H37.5" stroke="#404040" stroke-miterlimit="10"/>
<path d="M37.4287 7H4.42871V29.1667H37.4287V7Z" stroke="#404040" stroke-miterlimit="10"/>
<path d="M20.9998 21C23.8569 21 26.1426 18.6667 26.1426 15.75C26.1426 12.8333 23.8569 10.5 20.9998 10.5C18.1426 10.5 15.8569 12.8333 15.8569 15.75C15.8569 18.6667 18.1426 21 20.9998 21Z" stroke="#404040" stroke-miterlimit="10" stroke-linecap="round"/>
<path d="M10.7143 17.5C11.6286 17.5 12.4286 16.6833 12.4286 15.75C12.4286 14.8167 11.6286 14 10.7143 14C9.8 14 9 14.8167 9 15.75C9 16.6833 9.8 17.5 10.7143 17.5Z" stroke="#404040" stroke-miterlimit="10" stroke-linecap="round"/>
<path d="M31.2856 17.5C32.1999 17.5 32.9999 16.6833 32.9999 15.75C32.9999 14.8167 32.1999 14 31.2856 14C30.3713 14 29.5713 14.8167 29.5713 15.75C29.5713 16.6833 30.3713 17.5 31.2856 17.5Z" stroke="#404040" stroke-miterlimit="10" stroke-linecap="round"/>
</svg>
