<svg width="42" height="35" viewBox="0 0 42 35" fill="none" xmlns="http://www.w3.org/2000/svg">
<path d="M34.9998 9.33325H1.1665V32.6666H34.9998V9.33325Z" stroke="#404040" stroke-miterlimit="10"/>
<path d="M7 9.33325V2.33325H40.8333V25.6666H35" stroke="#404040" stroke-miterlimit="10"/>
<path d="M12.8335 28C16.6835 28 19.8335 24.85 19.8335 21C19.8335 17.15 16.6835 14 12.8335 14C8.9835 14 5.8335 17.15 5.8335 21C5.8335 24.85 8.9835 28 12.8335 28Z" stroke="#404040" stroke-miterlimit="10"/>
<path d="M23.3335 28C27.1835 28 30.3335 24.85 30.3335 21C30.3335 17.15 27.1835 14 23.3335 14C19.4835 14 16.3335 17.15 16.3335 21C16.3335 24.85 19.4835 28 23.3335 28Z" stroke="#404040" stroke-miterlimit="10"/>
</svg>
