<svg width="20" height="20" viewBox="0 0 20 20" fill="none" xmlns="http://www.w3.org/2000/svg">
<path d="M10 19.5C10 19.5 15.3127 12.6173 15.9382 11.2642C16.5603 9.91864 17 8.5275 17 7.26141C17 5.46201 16.2578 3.74027 14.9431 2.47382C13.629 1.20799 11.8506 0.5 10 0.5C8.14939 0.5 6.37099 1.20799 5.05692 2.47382C3.74222 3.74027 3 5.46201 3 7.26141C3 8.5275 3.43972 9.91864 4.06178 11.2642C4.68732 12.6173 10 19.5 10 19.5ZM10 10.1687C9.18644 10.1687 8.41106 9.85718 7.84321 9.31016C7.27622 8.76399 6.9626 8.02872 6.9626 7.26764C6.9626 6.50655 7.27622 5.77128 7.84321 5.22511C8.41106 4.67809 9.18644 4.36654 10 4.36654C10.8136 4.36654 11.589 4.67809 12.1567 5.22511C12.7238 5.77128 13.0374 6.50655 13.0374 7.26764C13.0374 8.02872 12.7238 8.76399 12.1567 9.31016C11.589 9.85718 10.8136 10.1687 10 10.1687Z" stroke="#404040" stroke-linecap="round" stroke-linejoin="round"/>
</svg>
