<svg width="31" height="21" viewBox="0 0 31 21" fill="none" xmlns="http://www.w3.org/2000/svg">
<ellipse cx="8.48205" cy="12.5" rx="7.48205" ry="7.5" fill="white" stroke="#989898" stroke-miterlimit="10"/>
<ellipse cx="8.48205" cy="8.5" rx="7.48205" ry="7.5" fill="white" stroke="#989898" stroke-miterlimit="10"/>
<path d="M11.4742 10.1167C11.5089 8.54086 10.224 7.21012 8.71905 7.23346C7.85083 7.23346 7.09837 7.63035 6.63531 8.29572C6.67004 6.62646 6.95945 5.84436 9.22841 5.50584C10.0272 5.41245 10.606 5.29572 10.9764 5.14397V4C10.6639 4.1284 10.0619 4.25681 9.17053 4.38521C7.16782 4.67704 6.16068 5.4358 5.77867 6.59144C5.58187 7.16342 5.48926 7.88716 5.48926 8.76265V9.68482C5.48926 11.6576 6.70477 13 8.48752 13C10.1661 13 11.4742 11.7393 11.4742 10.1167ZM10.224 10.1167C10.224 11.0973 9.44836 11.8794 8.47595 11.8794C7.51511 11.8794 6.7395 11.0973 6.7395 10.1167C6.7395 9.14786 7.51511 8.36576 8.47595 8.36576C9.44836 8.36576 10.224 9.14786 10.224 10.1167Z" fill="#989898"/>
<path d="M27.2769 13.6602L29.0247 11.8122C29.743 11.0562 30.15 10.5762 30.4493 9.90424C30.6049 9.56824 30.6767 9.22024 30.6767 8.84824C30.6767 7.50424 29.6352 6.44824 28.1867 6.44824C26.6424 6.44824 25.6368 7.64824 25.6368 8.90824C25.6368 9.16024 25.6608 9.38824 25.7206 9.60424H26.6783C26.6304 9.38824 26.6065 9.17224 26.6065 8.94424C26.6065 8.50024 26.7501 8.11624 27.0375 7.79224C27.3248 7.46824 27.7078 7.31224 28.1867 7.31224C29.1085 7.31224 29.707 8.02024 29.707 8.89624C29.707 9.65224 29.2761 10.2522 28.3184 11.2602L25.5051 14.2602V14.5002H30.9999V13.6602H27.2769Z" fill="#989898"/>
<path d="M19.3724 13.083L23.529 8.91634M23.5289 13.083L19.3723 8.91634" stroke="#989898" stroke-miterlimit="10"/>
</svg>
