<svg width="20" height="20" viewBox="0 0 20 20" fill="none" xmlns="http://www.w3.org/2000/svg">
<circle cx="10" cy="12" r="7.5" fill="white" stroke="#989898" stroke-miterlimit="10"/>
<circle cx="10" cy="8" r="7.5" fill="white" stroke="#989898" stroke-miterlimit="10"/>
<path d="M12.9993 9.61673C13.0341 8.04086 11.7461 6.71012 10.2375 6.73346C9.36723 6.73346 8.61297 7.13035 8.1488 7.79572C8.18362 6.12646 8.47372 5.34436 10.7481 5.00584C11.5488 4.91245 12.129 4.79572 12.5003 4.64397V3.5C12.187 3.6284 11.5836 3.75681 10.6901 3.88521C8.68259 4.17704 7.67304 4.9358 7.2901 6.09144C7.09283 6.66342 7 7.38716 7 8.26265V9.18483C7 11.1576 8.21843 12.5 10.0055 12.5C11.688 12.5 12.9993 11.2393 12.9993 9.61673ZM11.7461 9.61673C11.7461 10.5973 10.9686 11.3794 9.99385 11.3794C9.03071 11.3794 8.25324 10.5973 8.25324 9.61673C8.25324 8.64786 9.03071 7.86576 9.99385 7.86576C10.9686 7.86576 11.7461 8.64786 11.7461 9.61673Z" fill="#989898"/>
</svg>
