<svg width="32" height="16" viewBox="0 0 32 16" fill="none" xmlns="http://www.w3.org/2000/svg">
<path d="M10 12.8516H21.6456L23.5588 12.788M4.5 12.7693L2.25126 12.7296C1.46693 12.7158 0.567655 12.4663 0.503313 11.6845V11.6845C0.444354 10.9677 1.17034 7.65057 2.83851 6.74968C4.50608 5.84879 6.52762 5.48025 6.97885 5.15224C7.43048 4.82485 12.4932 1.65105 12.4932 1.65105C12.4932 1.65105 13.239 1.1183 14.9266 1.0364C16.6142 0.9545 28.2231 1.0364 28.2231 1.0364C28.2231 1.0364 28.9102 0.974771 29.1649 1.48684C29.4202 1.99871 30.8525 5.95096 30.8525 5.95096L31.4999 11.8886C31.4999 11.8886 31.52 12.3397 30.931 12.4005C30.685 12.4264 29.848 12.4951 28.9578 12.5664" stroke="currentColor" stroke-miterlimit="10"/>
<path d="M7.24531 14.9998C8.63235 14.9998 9.76406 13.7771 9.76406 12.2777C9.76406 10.7789 8.63235 9.55615 7.24531 9.55615C5.85771 9.55615 4.72656 10.7789 4.72656 12.2777C4.72656 13.7771 5.85771 14.9998 7.24531 14.9998Z" stroke="currentColor" stroke-miterlimit="10"/>
<path d="M26.269 14.9998C27.6559 14.9998 28.7875 13.7771 28.7875 12.2777C28.7875 10.7789 27.6559 9.55615 26.269 9.55615C24.8816 9.55615 23.75 10.7789 23.75 12.2777C23.75 13.7771 24.8816 14.9998 26.269 14.9998Z" stroke="currentColor" stroke-miterlimit="10"/>
</svg>
