<svg width="90" height="90" viewBox="0 0 90 90" fill="none" xmlns="http://www.w3.org/2000/svg">
<path fill-rule="evenodd" clip-rule="evenodd" d="M16.5789 0H0V16.5789L0 35.5263L0 54.4737L0 73.4211L0 90H16.5789H35.5263H54.4737H73.4211H90V73.4211V54.4737V35.5263V16.5789V0H73.4211H54.4737H35.5263H16.5789ZM16.5789 0L26.0526 9.47368L35.5263 0L45 9.47368L54.4737 0L63.9474 9.47368L73.4211 0L90 16.5789L80.5263 26.0526L90 35.5263L80.5263 45L90 54.4737L80.5263 63.9474L90 73.4211L73.4211 90L63.9474 80.5263L54.4737 90L45 80.5263L35.5263 90L26.0526 80.5263L16.5789 90L0 73.4211L9.47368 63.9474L0 54.4737L9.47368 45L0 35.5263L9.47368 26.0526L0 16.5789L16.5789 0Z" fill="white"/>
</svg>
