<svg width="52" height="44" viewBox="0 0 52 44" fill="none" xmlns="http://www.w3.org/2000/svg">
<rect x="0.5" y="0.5" width="51" height="38" rx="1" fill="#252069"/>
<rect x="0.5" y="0.5" width="51" height="38" rx="1" stroke="#252069"/>
<path d="M21.9647 38.8997C21.7901 38.6492 21.3029 38.5 21 38.5V38H31V38.5C30.6971 38.5 30.21 38.6492 30.0354 38.8997L26.7616 43.1004C26.3908 43.6332 25.61 43.6332 25.2388 43.1004L21.9647 38.8997Z" fill="#252069"/>
<path d="M21 38.5C21.3029 38.5 21.7901 38.6492 21.9647 38.8997L25.2388 43.1004C25.61 43.6332 26.3908 43.6332 26.7616 43.1004L30.0354 38.8997C30.21 38.6492 30.6971 38.5 31 38.5" stroke="#252069"/>
<path fill-rule="evenodd" clip-rule="evenodd" d="M22.4454 14.3278C21.294 14.3749 18.7515 14.5297 18.7248 14.5544C18.7179 14.5608 18.8192 15.1193 18.9499 15.7956L19.1875 17.0253L19.411 17.0181C19.5339 17.0142 19.9977 16.9901 20.4418 16.9647C21.6176 16.8975 23.3662 16.8756 24.105 16.9189C24.7872 16.9589 25.5978 17.0278 25.6176 17.0476C25.6291 17.0591 25.6861 17.4599 25.732 17.8526L25.7486 17.9942H23.5811H21.4137V19.1866V20.379H23.5668H25.7198L25.7189 20.4461C25.7177 20.5326 25.6706 20.9047 25.6285 21.1588L25.5958 21.3573L25.3513 21.3905C24.3298 21.5291 22.3996 21.5415 20.382 21.4224C20.1353 21.4078 19.7652 21.3867 19.5596 21.3754L19.1858 21.3549L18.9507 22.5827C18.8214 23.258 18.7225 23.8174 18.731 23.8258C18.7649 23.8596 20.7675 23.9893 22.1762 24.0489C23.0748 24.087 25.2069 24.0693 25.974 24.0174C26.6685 23.9704 27.8999 23.87 28.027 23.85C28.0929 23.8397 28.142 23.813 28.1509 23.7828C28.3219 23.2015 28.4 22.9079 28.4856 22.5254C29.0033 20.2112 28.9988 17.8814 28.4724 15.7136C28.3327 15.1383 28.1511 14.567 28.1026 14.5504C28.045 14.5307 26.6885 14.4208 25.8993 14.3718C24.9913 14.3155 23.2808 14.2937 22.4454 14.3278ZM7.02001 14.5559C7.009 14.5669 7 16.6596 7 19.2065V23.8371H8.68957H10.3791V20.5132V17.1893H12.248H14.1169L14.1245 20.5057L14.1321 23.8222L15.8292 23.8299L17.5263 23.8376L17.5188 19.1943L17.5112 14.551L12.2756 14.5435C9.39605 14.5393 7.03104 14.5449 7.02001 14.5559ZM30.2254 14.556C30.2144 14.5669 30.2054 16.6596 30.2054 19.2065V23.8371H31.88H33.5547V22.0925V20.348L34.1592 20.3561L34.7638 20.3641L36.1053 22.1006L37.4469 23.8371H39.5079C40.6414 23.8371 41.5682 23.8271 41.5674 23.8147C41.5666 23.8024 40.6714 22.6992 39.578 21.363C38.4846 20.0269 37.5938 18.9177 37.5983 18.8981C37.6029 18.8786 38.4407 17.9032 39.4602 16.7306C40.4796 15.558 41.3185 14.5845 41.3242 14.5674C41.3314 14.5458 40.7391 14.5361 39.409 14.5361H37.4834L36.1395 16.2179L34.7957 17.8998L34.1752 17.9023L33.5547 17.9047V16.2204V14.5361H31.9C30.9899 14.5361 30.2363 14.545 30.2254 14.556Z" fill="white"/>
<path d="M42.8896 14.5275C42.9965 14.515 43.3329 14.4936 43.6372 14.4801C43.9415 14.4665 44.3653 14.4606 44.5792 14.4669C45.058 14.481 45.8763 14.5331 45.9476 14.554C45.997 14.5685 45.9997 14.6561 45.9924 15.9908L45.9846 17.4122L44.3321 17.4199L42.6797 17.4276L42.6874 15.989L42.6952 14.5504L42.8896 14.5275Z" fill="#E4003C"/>
<path d="M42.6803 22.4812C42.6803 21.74 42.6893 21.1246 42.7004 21.1135C42.7115 21.1024 43.455 21.0968 44.3526 21.1011L45.9846 21.1088L45.9924 22.4571L46.0002 23.8054L45.9326 23.8201C45.778 23.8537 45.1711 23.8992 44.6539 23.916C44.1602 23.9321 43.2235 23.8965 42.8223 23.8465L42.6803 23.8288V22.4812Z" fill="#E4003C"/>
</svg>
