<svg width="21" height="22" viewBox="0 0 21 22" fill="none" xmlns="http://www.w3.org/2000/svg">
<path d="M7.64257 4.57137C7.47997 2.75831 5.98434 1.35496 4.1646 1.308C2.29072 1.25966 0.575606 2.70282 0.73652 4.68436C1.41862 13.084 7.89547 19.9041 16.2486 21.0187C18.2196 21.2817 19.7496 19.643 19.7979 17.7688C19.8449 15.9493 18.5211 14.3833 16.7192 14.1267L15.955 14.0179C14.6082 13.8261 13.2477 14.2605 12.2613 15.1973L11.2476 16.1599C8.71373 14.7107 6.65832 12.5385 5.34138 9.94012L6.33981 8.99192C7.32894 8.05255 7.8346 6.71269 7.71276 5.35404L7.64257 4.57137Z" fill="#F5F3F1" stroke="#F5F3F1"/>
</svg>
