<svg width="40" height="40" viewBox="0 0 40 40" fill="none" xmlns="http://www.w3.org/2000/svg">
<path d="M0 20C0 8.95431 8.95431 0 20 0C31.0457 0 40 8.95431 40 20C40 31.0457 31.0457 40 20 40C8.95431 40 0 31.0457 0 20Z" fill="#404040"/>
<path d="M17.6426 13.5714C17.48 11.7583 15.9843 10.355 14.1646 10.308C12.2907 10.2597 10.5756 11.7028 10.7365 13.6844C11.4186 22.084 17.8955 28.9041 26.2486 30.0187C28.2196 30.2817 29.7496 28.643 29.7979 26.7688C29.8449 24.9493 28.5211 23.3833 26.7192 23.1267L25.955 23.0179C24.6082 22.8261 23.2477 23.2605 22.2613 24.1973L21.2476 25.1599C18.7137 23.7107 16.6583 21.5385 15.3414 18.9401L16.3398 17.9919C17.3289 17.0525 17.8346 15.7127 17.7128 14.354L17.6426 13.5714Z" fill="#F5F3F1" stroke="#F5F3F1"/>
<path d="M20 39C9.50659 39 1 30.4934 1 20H-1C-1 31.598 8.40202 41 20 41V39ZM39 20C39 30.4934 30.4934 39 20 39V41C31.598 41 41 31.598 41 20H39ZM20 1C30.4934 1 39 9.50659 39 20H41C41 8.40202 31.598 -1 20 -1V1ZM20 -1C8.40202 -1 -1 8.40202 -1 20H1C1 9.50659 9.50659 1 20 1V-1Z" fill="#404040"/>
</svg>
