<svg width="30" height="30" viewBox="0 0 30 30" fill="none" xmlns="http://www.w3.org/2000/svg">
<path d="M27.1487 25.4774C27.4124 25.3954 27.5597 25.1151 27.4776 24.8515L26.1408 20.5546C26.0588 20.2909 25.7786 20.1437 25.5149 20.2257C25.2512 20.3077 25.104 20.588 25.186 20.8517L26.3742 24.6711L22.5548 25.8594C22.2911 25.9414 22.1439 26.2216 22.2259 26.4853C22.3079 26.749 22.5882 26.8963 22.8519 26.8142L27.1487 25.4774ZM2.52257 24.8515C2.44054 25.1151 2.58779 25.3954 2.85146 25.4774L7.14831 26.8142C7.41199 26.8963 7.69224 26.749 7.77428 26.4854C7.85631 26.2217 7.70906 25.9414 7.44538 25.8594L3.62596 24.6711L4.81425 20.8517C4.89628 20.588 4.74903 20.3078 4.48536 20.2257C4.22168 20.1437 3.94143 20.2909 3.85939 20.5546L2.52257 24.8515ZM15.3538 2.64645C15.1585 2.45118 14.8419 2.45118 14.6467 2.64645L11.4647 5.82843C11.2694 6.02369 11.2694 6.34027 11.4647 6.53553C11.6599 6.7308 11.9765 6.7308 12.1718 6.53553L15.0002 3.70711L17.8286 6.53553C18.0239 6.7308 18.3405 6.7308 18.5357 6.53553C18.731 6.34027 18.731 6.02369 18.5357 5.82843L15.3538 2.64645ZM14.7676 19.1375L26.7676 25.4426L27.2328 24.5574L15.2328 18.2523L14.7676 19.1375ZM14.7676 18.2523L2.76744 24.5574L3.23256 25.4426L15.2328 19.1375L14.7676 18.2523ZM15.5002 18.6949V3H14.5002V18.6949H15.5002Z" fill="white"/>
</svg>
