<svg width="20" height="21" viewBox="0 0 20 21" fill="none" xmlns="http://www.w3.org/2000/svg">
<circle cx="10" cy="12.5" r="7.5" fill="#E3EDF3" stroke="#989898" stroke-miterlimit="10"/>
<circle cx="10" cy="8.5" r="7.5" fill="#E3EDF3" stroke="#989898" stroke-miterlimit="10"/>
<path d="M12.9993 10.1167C13.0341 8.54086 11.7461 7.21012 10.2375 7.23346C9.36723 7.23346 8.61297 7.63035 8.1488 8.29572C8.18362 6.62646 8.47372 5.84436 10.7481 5.50584C11.5488 5.41245 12.129 5.29572 12.5003 5.14397V4C12.187 4.1284 11.5836 4.25681 10.6901 4.38521C8.68259 4.67704 7.67304 5.4358 7.2901 6.59144C7.09283 7.16342 7 7.88716 7 8.76265V9.68482C7 11.6576 8.21843 13 10.0055 13C11.688 13 12.9993 11.7393 12.9993 10.1167ZM11.7461 10.1167C11.7461 11.0973 10.9686 11.8794 9.99385 11.8794C9.03071 11.8794 8.25324 11.0973 8.25324 10.1167C8.25324 9.14786 9.03071 8.36576 9.99385 8.36576C10.9686 8.36576 11.7461 9.14786 11.7461 10.1167Z" fill="#989898"/>
</svg>
