<svg width="275" height="275" viewBox="0 0 275 275" fill="none" xmlns="http://www.w3.org/2000/svg">
<rect x="1" y="1" width="273" height="273" rx="136.5" stroke="#C4C4C4" stroke-miterlimit="10"/>
<path d="M43.6442 170.861V166.729H137.979V170.861" stroke="#989898" stroke-miterlimit="10"/>
<path d="M43.4761 120.23C43.9802 120.16 44.4842 120.125 44.9882 120.125C49.7763 120.125 53.6824 123.346 53.6824 127.373V166.729H36.3359" stroke="#989898" stroke-miterlimit="10"/>
<path d="M137.979 166.729H53.6827V152.548C53.6827 150.587 55.5728 149.012 57.9248 149.012H138.021V166.729H137.979Z" stroke="#989898" stroke-miterlimit="10"/>
<path d="M133.527 149.013H58.1348C55.6568 149.013 53.6827 147.367 53.6827 145.301V140.784C53.6827 135.602 58.7229 131.435 64.897 131.435H126.765C132.981 131.435 137.979 135.637 137.979 140.784V145.301C137.979 147.332 136.005 149.013 133.527 149.013Z" stroke="#989898" stroke-miterlimit="10"/>
<path d="M137.98 101.252V140.749" stroke="#989898" stroke-miterlimit="10"/>
<path d="M59.1844 132.695V116.973" stroke="#989898" stroke-miterlimit="10"/>
<path d="M216.816 132.695V116.974" stroke="#989898" stroke-miterlimit="10"/>
<path d="M232.736 120.264C232.19 120.159 231.602 120.124 230.972 120.124C226.183 120.124 222.277 123.346 222.277 127.372V166.729H239.624" stroke="#989898" stroke-miterlimit="10"/>
<path d="M232.315 170.861V166.73H137.98V170.861" stroke="#989898" stroke-miterlimit="10"/>
<path d="M137.98 166.729H222.277V152.548C222.277 150.588 220.387 149.012 218.035 149.012H137.98V166.729Z" stroke="#989898" stroke-miterlimit="10"/>
<path d="M142.43 149.013H217.865C220.343 149.013 222.317 147.367 222.317 145.302V140.785C222.317 135.603 217.276 131.436 211.102 131.436H149.235C143.018 131.436 138.02 135.638 138.02 140.785V145.302C137.978 147.332 139.994 149.013 142.43 149.013Z" stroke="#989898" stroke-miterlimit="10"/>
<path d="M239.664 166.729V127.338C239.664 123.346 235.8 120.089 230.97 120.089L216.815 116.973V101.252C216.815 98.4155 214.043 96.1045 210.641 96.1045H144.153C140.751 96.1045 137.979 98.4155 137.979 101.252C137.979 98.4155 135.207 96.1045 131.805 96.1045H65.3168C61.9147 96.1045 59.1426 98.4155 59.1426 101.252V116.973L43.6442 120.089V120.195C39.4861 120.755 36.336 123.731 36.336 127.338V166.729L36.168 179.824H40.8721L43.5182 171.071V170.826H138.021H232.524V171.071L233.847 175.448L235.17 179.824H239.874L239.664 166.729Z" stroke="#989898" stroke-miterlimit="10" stroke-dasharray="7 2"/>
</svg>
