<svg width="34" height="26" viewBox="0 0 34 26" fill="none" xmlns="http://www.w3.org/2000/svg">
<path d="M3.27563 13.0469V10.3106V7.57423C3.27563 6.56077 4.06843 5.75 5.05942 5.75L15.365 5.75" stroke="#404040" stroke-miterlimit="10"/>
<path d="M30.8233 13.0469H30.7242V10.3106V7.57423C30.7242 6.56077 29.9314 5.75 28.9404 5.75H18.8323" stroke="#404040" stroke-miterlimit="10"/>
<path d="M17.0479 7.57423C17.0479 6.56077 17.8406 5.75 18.8316 5.75" stroke="#404040" stroke-miterlimit="10"/>
<path d="M17.0488 7.57423C17.0488 6.56077 16.256 5.75 15.265 5.75" stroke="#404040" stroke-miterlimit="10"/>
<path d="M17.0479 13.0478V10.3114V7.57507" stroke="#404040" stroke-miterlimit="10"/>
<path d="M33.3009 13.0471H0.697266" stroke="#404040" stroke-miterlimit="10"/>
<path d="M31.7162 18.9252H33.3018C33.4009 18.9252 33.5 18.8238 33.5 18.7225V15.9355V13.1485C33.5 13.0471 33.4009 13.0471 33.3018 13.0471H31.7162H1.98649H0.698198C0.599099 13.0471 0.5 13.1485 0.5 13.2498V16.0368V18.8238C0.5 18.9252 0.599099 18.9252 0.698198 18.9252H1.98649" stroke="#404040" stroke-miterlimit="10"/>
<path d="M0.5 18.8238C0.5 18.9252 0.599099 18.9252 0.698198 18.9252H1.98649M33.5 18.7225C33.5 18.8238 33.4009 18.9252 33.3018 18.9252H31.7162M33.5 13.6558V13.1485C33.5 13.0471 33.4009 13.0471 33.3018 13.0471H31.7162H1.98649H0.698198C0.599099 13.0471 0.5 13.1485 0.5 13.2498V13.6558" stroke="#404040" stroke-miterlimit="10"/>
<path d="M0.697266 18.9249H33.3009" stroke="#404040" stroke-miterlimit="10"/>
<path d="M15.3638 18.9249H18.3367" stroke="#404040" stroke-miterlimit="10"/>
<path d="M1.49023 18.723V18.723V20.7499" stroke="#404040" stroke-miterlimit="10"/>
<path d="M32.2107 20.7499V18.723" stroke="#404040" stroke-miterlimit="10"/>
<path d="M17.0488 13.0469V18.9249" stroke="#404040" stroke-miterlimit="10"/>
</svg>
