<svg width="34" height="26" viewBox="0 0 34 26" fill="none" xmlns="http://www.w3.org/2000/svg">
<path d="M8.80495 10.8191C8.96767 10.8191 9.1304 10.6975 9.1304 10.4949C9.1304 10.2922 9.00836 10.2111 8.80495 10.2111C8.64222 10.2111 8.47949 10.3327 8.47949 10.5354C8.47949 10.7381 8.64222 10.8191 8.80495 10.8191Z" stroke="#404040" stroke-miterlimit="10"/>
<path d="M8.80495 15.8191C8.96767 15.8191 9.1304 15.6975 9.1304 15.4949C9.1304 15.2922 9.00836 15.2111 8.80495 15.2111C8.64222 15.2111 8.47949 15.3327 8.47949 15.5354C8.47949 15.7381 8.64222 15.8191 8.80495 15.8191Z" stroke="#404040" stroke-miterlimit="10"/>
<path d="M14.7039 10.8191C14.8666 10.8191 15.0293 10.6975 15.0293 10.4949C15.0293 10.2922 14.8666 10.2111 14.7039 10.2111C14.5411 10.2111 14.3784 10.3327 14.3784 10.5354C14.3784 10.7381 14.5411 10.8191 14.7039 10.8191Z" stroke="#404040" stroke-miterlimit="10"/>
<path d="M14.7039 15.8191C14.8666 15.8191 15.0293 15.6975 15.0293 15.4949C15.0293 15.2922 14.8666 15.2111 14.7039 15.2111C14.5411 15.2111 14.3784 15.3327 14.3784 15.5354C14.3784 15.7381 14.5411 15.8191 14.7039 15.8191Z" stroke="#404040" stroke-miterlimit="10"/>
<path d="M5.14111 4.75252C10.066 5.22813 12.5495 5.3146 16.8009 4.96871C17.3902 4.92547 17.9795 4.88223 18.6109 4.79576C18.6951 4.79576 18.7793 4.79576 18.8635 4.75252C19.4528 4.70929 20 5.22813 20 5.83344V5.87667C19.537 11.3677 19.4949 14.1348 20 19.6259C20 19.7123 20 19.7988 20 19.842C19.9158 20.3609 19.4528 20.75 18.9056 20.75C18.9056 20.75 18.9056 20.75 18.8635 20.75C13.5177 20.3609 10.4448 20.2744 5.09901 20.75C5.05692 20.75 5.05692 20.75 5.01483 20.75C4.84645 20.75 4.67808 20.7068 4.5518 20.6203C4.21506 20.4473 3.9625 20.0582 4.00459 19.6691V19.6259C4.38343 14.3078 4.46761 11.1948 4.00459 5.87667C4.00459 5.83344 4.00459 5.83344 4.00459 5.7902C4.04668 5.22813 4.5518 4.70929 5.14111 4.75252Z" stroke="#404040" stroke-miterlimit="10"/>
<path d="M19 20.75H27.637C28.9407 20.75 30 19.1985 30 17.3076V16.1924C30 14.3015 28.9407 12.75 27.637 12.75H19.5" stroke="#404040" stroke-miterlimit="10"/>
<path d="M20 18.25H26C26.6667 18.25 27.5 17.5726 27.5 16.75C27.5 15.9274 26.6667 15.25 26 15.25L20 15.25" stroke="#404040" stroke-miterlimit="10"/>
</svg>
