<svg width="60" height="50" viewBox="0 0 60 50" fill="none" xmlns="http://www.w3.org/2000/svg">
<circle cx="30" cy="25" r="21.5" stroke="#404040"/>
<circle cx="30" cy="25" r="1.5" stroke="#404040"/>
<path d="M30 23.5V9" stroke="#404040"/>
<path d="M31.5 25H42" stroke="#404040"/>
<circle cx="44" cy="39" r="9" fill="white"/>
<path d="M38.6185 35.3657C37.9315 36.4126 37.4999 37.6652 37.4999 38.9938L38.4999 38.9938C38.4999 37.8833 38.8611 36.8187 39.4546 35.9143L38.6185 35.3657ZM37.4999 38.9938C37.4999 42.5933 40.4068 45.5002 44.0063 45.5002L44.0063 44.5002C40.9591 44.5002 38.4999 42.041 38.4999 38.9938L37.4999 38.9938ZM44.0063 45.5002C44.969 45.5002 45.8873 45.2989 46.7108 44.9161L46.2892 44.0093C45.6028 44.3284 44.829 44.5002 44.0063 44.5002L44.0063 45.5002Z" fill="#404040"/>
<path d="M49.3822 42.6346C50.0692 41.5877 50.5008 40.335 50.5008 39.0064H49.5008C49.5008 40.1169 49.1396 41.1815 48.5461 42.0859L49.3822 42.6346ZM50.5008 39.0064C50.5008 35.4069 47.5939 32.5 43.9944 32.5V33.5C47.0416 33.5 49.5008 35.9592 49.5008 39.0064H50.5008ZM43.9944 32.5C43.0314 32.5 42.1129 32.7015 41.2892 33.0845L41.7108 33.9913C42.3975 33.6719 43.1715 33.5 43.9944 33.5V32.5Z" fill="#404040"/>
<path d="M39.6768 38.25L38.9896 35.6854L36.425 36.3726" stroke="#404040"/>
<path d="M48.2578 39.75L48.9725 42.4174L51.6399 41.7027" stroke="#404040"/>
</svg>
