<svg width="60" height="50" viewBox="0 0 60 50" fill="none" xmlns="http://www.w3.org/2000/svg">
<path d="M13.1174 36.8621C13.0612 37.1324 12.7966 37.3061 12.5262 37.25L8.12008 36.3355C7.84969 36.2794 7.676 36.0147 7.73212 35.7443C7.78824 35.474 8.05291 35.3003 8.3233 35.3564L12.2398 36.1693L13.0527 32.2527C13.1088 31.9824 13.3735 31.8087 13.6439 31.8648C13.9143 31.9209 14.088 32.1856 14.0318 32.456L13.1174 36.8621ZM12.2098 37.0348C9.92208 33.5487 8.49963 29.3997 8.49963 25.0222L9.49963 25.0222C9.49963 29.1816 10.8516 33.1426 13.0458 36.4861L12.2098 37.0348ZM8.49963 25.0222C8.49963 13.1145 18.114 3.5 30.0216 3.5L30.0216 4.5C18.6663 4.5 9.49963 13.6668 9.49963 25.0222L8.49963 25.0222ZM30.0216 3.5C34.4953 3.5 38.6525 4.80987 42.0491 7.22044L41.4704 8.03594C38.251 5.7512 34.2982 4.5 30.0216 4.5L30.0216 3.5Z" fill="#404040"/>
<path d="M46.8826 13.1382C46.9388 12.8678 47.2034 12.6941 47.4738 12.7502L51.8799 13.6647C52.1503 13.7208 52.324 13.9855 52.2679 14.2559C52.2118 14.5263 51.9471 14.7 51.6767 14.6439L47.7602 13.831L46.9473 17.7475C46.8912 18.0179 46.6265 18.1916 46.3561 18.1355C46.0857 18.0793 45.912 17.8147 45.9682 17.5443L46.8826 13.1382ZM47.7902 12.9655C50.0779 16.4515 51.5004 20.6006 51.5004 24.9781H50.5004C50.5004 20.8187 49.1483 16.8576 46.9542 13.5141L47.7902 12.9655ZM51.5004 24.9781C51.5004 36.8858 41.886 46.5002 29.9784 46.5002V45.5002C41.3337 45.5002 50.5004 36.3335 50.5004 24.9781H51.5004ZM29.9784 46.5002C25.5047 46.5002 21.3475 45.1904 17.9509 42.7798L18.5296 41.9643C21.749 44.249 25.7018 45.5002 29.9784 45.5002V46.5002Z" fill="#404040"/>
<circle cx="45" cy="39" r="8.5" fill="white" stroke="#404040"/>
<path d="M42.9743 44H43.901V42.1727H47.0495V41.2455H43.901V39.9773H45.6119C46.3366 39.9773 46.9069 39.7455 47.3465 39.2955C47.7861 38.8318 48 38.2318 48 37.4955C48 36.7455 47.7861 36.1455 47.3465 35.6955C46.9188 35.2318 46.3366 35 45.6119 35H42.9743V39.05H42V39.9773H42.9743V41.2455H42V42.1727H42.9743V44ZM43.901 39.05V35.9273H45.5881C46.5386 35.9273 47.097 36.5682 47.097 37.5091C47.097 38.4364 46.5386 39.05 45.5881 39.05H43.901Z" fill="#404040"/>
</svg>
