<svg width="768" height="65" viewBox="0 0 768 65" fill="none" xmlns="http://www.w3.org/2000/svg">
<line y1="64.5" x2="15" y2="64.5" stroke="#989898"/>
<line x1="15" y1="64.5" x2="384" y2="64.5" stroke="#989898"/>
<mask id="path-3-outside-1" maskUnits="userSpaceOnUse" x="383" y="-0.5" width="371" height="66" fill="black">
<rect fill="white" x="383" y="-0.5" width="371" height="66"/>
<path d="M479.291 12.8429C481.891 12.8429 484.027 13.6657 485.698 15.1286C487.277 16.6829 488.112 18.6029 488.112 20.98C488.112 23.4486 487.277 25.46 485.698 26.9229C484.027 28.4771 481.891 29.2086 479.291 29.2086H464.063V12.8429H479.291Z"/>
<path d="M658.389 52.1571V12.8429H670.831C676.403 12.8429 680.953 14.7629 684.574 18.42C688.195 22.0771 690.053 26.8314 690.053 32.5C690.053 38.26 688.195 43.0143 684.574 46.6714C680.86 50.3286 676.31 52.1571 670.831 52.1571H658.389Z"/>
</mask>
<path d="M384 12.8429H383.5V13.3429H384V12.8429ZM405.728 12.8429H406.228V12.3429H405.728V12.8429ZM405.728 64.5V65H406.228V64.5H405.728ZM420.492 64.5H419.992V65H420.492V64.5ZM420.492 12.8429V12.3429H419.992V12.8429H420.492ZM442.221 12.8429V13.3429H442.721V12.8429H442.221ZM442.221 0.5H442.721V0H442.221V0.5ZM384 0.5V0H383.5V0.5H384ZM449.299 64.5V65H449.799V64.5H449.299ZM464.063 64.5H463.563V65H464.063V64.5ZM464.063 41.5514V41.0514H463.563V41.5514H464.063ZM482.355 43.9286L482.812 43.7246L482.804 43.7079L482.796 43.6918L482.355 43.9286ZM491.548 64.5V65H492.319L492.004 64.296L491.548 64.5ZM506.683 64.5L506.227 64.7038L506.359 65H506.683V64.5ZM496.562 41.8257L496.104 42.0253L496.106 42.0295L496.562 41.8257ZM492.662 36.98L492.431 36.5366L491.715 36.9102L492.369 37.3847L492.662 36.98ZM500.184 30.2143L500.606 30.4823L500.612 30.4725L500.184 30.2143ZM496.376 6.07714L496.702 5.69731L496.698 5.69391L496.376 6.07714ZM449.299 0.5V0H448.799V0.5H449.299ZM513.772 64.5V65H514.272V64.5H513.772ZM563.728 64.5H563.228V65H563.728V64.5ZM563.728 52.1571H564.228V51.6571H563.728V52.1571ZM528.536 52.1571H528.036V52.6571H528.536V52.1571ZM528.536 38.1686V37.6686H528.036V38.1686H528.536ZM558.714 38.1686V38.6686H559.214V38.1686H558.714ZM558.714 26.1914H559.214V25.6914H558.714V26.1914ZM528.536 26.1914H528.036V26.6914H528.536V26.1914ZM528.536 12.8429V12.3429H528.036V12.8429H528.536ZM562.8 12.8429V13.3429H563.3V12.8429H562.8ZM562.8 0.5H563.3V0H562.8V0.5ZM513.772 0.5V0H513.272V0.5H513.772ZM572.623 64.5V65H573.123V64.5H572.623ZM587.015 64.5H586.515V65H587.015V64.5ZM587.015 25.8257L587.385 25.4892L586.515 24.5333V25.8257H587.015ZM622.208 64.5V65H623.339L622.577 64.1635L622.208 64.5ZM632.329 64.5H631.829V65H632.329V64.5ZM632.329 0.5H632.829V0H632.329V0.5ZM617.936 0.5V0H617.436V0.5H617.936ZM617.936 39.1743L617.568 39.5127L618.436 40.4567V39.1743H617.936ZM582.373 0.5L582.741 0.161557L582.592 0H582.373V0.5ZM572.623 0.5V0H572.123V0.5H572.623ZM643.625 64.5V65H644.125V64.5H643.625ZM695.16 55.6314L695.497 56.0004L695.5 55.998L695.16 55.6314ZM695.252 9.55143L695.598 9.18995L695.595 9.18745L695.252 9.55143ZM643.625 0.5V0H643.125V0.5H643.625ZM711.029 48.1343V47.6343H710.711L710.576 47.9221L711.029 48.1343ZM716.229 61.8486L716.506 61.432L716.501 61.4291L716.229 61.8486ZM746.964 61.4829L746.675 61.0751L746.669 61.0795L746.964 61.4829ZM747.15 39.9971L747.403 39.5656L747.392 39.5593L747.15 39.9971ZM734.522 36.1571L734.624 35.6677L734.573 35.6571H734.522V36.1571ZM732.665 35.7914L732.784 35.3059L732.763 35.3007L732.741 35.2974L732.665 35.7914ZM726.629 34.42L726.812 33.9548L726.792 33.9467L726.771 33.9405L726.629 34.42ZM724.679 33.4143L724.328 33.7706V33.7706L724.679 33.4143ZM726.072 30.0314L726.266 30.4923L726.279 30.4866L726.072 30.0314ZM737.772 35.2429L737.287 35.1198L737.129 35.7429H737.772V35.2429ZM750.307 35.2429V35.7429H750.627L750.761 35.4524L750.307 35.2429ZM745.479 21.7114L745.195 22.1231L745.479 21.7114ZM716.508 22.0771L716.204 21.6796L716.198 21.6844L716.508 22.0771ZM716.415 43.6543L716.68 43.2304L716.669 43.2238L716.415 43.6543ZM728.486 47.3114L728.707 46.8628L728.645 46.8323L728.577 46.8197L728.486 47.3114ZM729.972 47.5857L730.076 47.0967L730.024 47.0857H729.972V47.5857ZM737.4 49.3229L737.573 48.8538L737.56 48.849L737.547 48.845L737.4 49.3229ZM737.493 53.4371L737.32 52.9681L737.493 53.4371ZM723.565 48.1343L723.997 48.3853L724.433 47.6343H723.565V48.1343ZM721.94 64.5V65L722.085 64.0216L721.94 64.5ZM740.865 64.5L740.717 64.0224L740.865 65V64.5ZM384 13.3429H405.728V12.3429H384V13.3429ZM405.228 12.8429V64.5H406.228V12.8429H405.228ZM420.992 64.5V12.8429H419.992V64.5H420.992ZM420.492 13.3429H442.221V12.3429H420.492V13.3429ZM442.721 12.8429V0.5H441.721V12.8429H442.721ZM442.221 0H384V1H442.221V0ZM383.5 0.5V12.8429H384.5V0.5H383.5ZM464.563 64.5V41.5514H463.563V64.5H464.563ZM464.063 42.0514H478.084V41.0514H464.063V42.0514ZM478.084 42.0514C479.038 42.0514 479.808 42.2432 480.426 42.5925C481.042 42.9404 481.536 43.4609 481.915 44.1654L482.796 43.6918C482.339 42.842 481.718 42.1739 480.918 41.7218C480.12 41.2711 479.173 41.0514 478.084 41.0514V42.0514ZM481.899 44.1326L491.091 64.704L492.004 64.296L482.812 43.7246L481.899 44.1326ZM507.14 64.2962L497.019 41.6219L496.106 42.0295L506.227 64.7038L507.14 64.2962ZM497.021 41.6262C496.15 39.6252 494.793 37.9083 492.956 36.5753L492.369 37.3847C494.06 38.6117 495.303 40.1862 496.104 42.0253L497.021 41.6262ZM492.893 37.4234C496.12 35.7415 498.697 33.49 500.606 30.4822L499.761 29.9463C497.956 32.79 495.519 34.9271 492.431 36.5366L492.893 37.4234ZM500.612 30.4725C502.425 27.4661 503.376 24.0849 503.376 20.2486H502.376C502.376 23.9094 501.471 27.111 499.755 29.9561L500.612 30.4725ZM503.376 20.2486C503.376 14.3419 501.084 9.44911 496.702 5.69734L496.051 6.45695C500.212 10.0195 502.376 14.6352 502.376 20.2486H503.376ZM496.698 5.69391C492.228 1.94858 486.444 0 479.384 0V1C486.252 1 491.796 2.89142 496.055 6.46037L496.698 5.69391ZM479.384 0H449.299V1H479.384V0ZM448.799 0.5V64.5H449.799V0.5H448.799ZM564.228 64.5V52.1571H563.228V64.5H564.228ZM563.728 51.6571H528.536V52.6571H563.728V51.6571ZM529.036 52.1571V38.1686H528.036V52.1571H529.036ZM528.536 38.6686H558.714V37.6686H528.536V38.6686ZM559.214 38.1686V26.1914H558.214V38.1686H559.214ZM558.714 25.6914H528.536V26.6914H558.714V25.6914ZM529.036 26.1914V12.8429H528.036V26.1914H529.036ZM528.536 13.3429H562.8V12.3429H528.536V13.3429ZM563.3 12.8429V0.5H562.3V12.8429H563.3ZM562.8 0H513.772V1H562.8V0ZM513.272 0.5V64.5H514.272V0.5H513.272ZM587.515 64.5V25.8257H586.515V64.5H587.515ZM586.645 26.1622L621.838 64.8365L622.577 64.1635L587.385 25.4892L586.645 26.1622ZM632.829 64.5V0.5H631.829V64.5H632.829ZM632.329 0H617.936V1H632.329V0ZM617.436 0.5V39.1743H618.436V0.5H617.436ZM618.304 38.8358L582.741 0.161557L582.004 0.838443L617.568 39.5127L618.304 38.8358ZM582.373 0H572.623V1H582.373V0ZM572.123 0.5V64.5H573.123V0.5H572.123ZM670.831 65C680.69 65 688.894 62.0375 695.497 56.0004L694.822 55.2624C688.425 61.111 680.472 64 670.831 64V65ZM695.5 55.998C702.016 49.9533 705.317 42.1368 705.317 32.5H704.317C704.317 41.8804 701.117 49.4238 694.82 55.2648L695.5 55.998ZM705.317 32.5C705.317 23.0427 702.014 15.3219 695.598 9.18996L694.907 9.91291C701.119 15.8495 704.317 23.3059 704.317 32.5H705.317ZM695.595 9.18745C689.084 3.05477 680.784 0 670.831 0V1C680.564 1 688.607 3.97951 694.91 9.91541L695.595 9.18745ZM670.831 0H643.625V1H670.831V0ZM643.125 0.5V64.5H644.125V0.5H643.125ZM710.576 47.9221C709.988 49.1777 709.694 50.5303 709.694 51.8829H710.694C710.694 50.6754 710.956 49.468 711.482 48.3465L710.576 47.9221ZM709.694 51.8829C709.694 56.1075 711.759 59.5435 715.957 62.268L716.501 61.4291C712.528 58.8508 710.694 55.7039 710.694 51.8829H709.694ZM747.254 61.8906C751.373 58.9669 753.5 54.9779 753.5 50.0543H752.5C752.5 54.6392 750.542 58.3303 746.675 61.0751L747.254 61.8906ZM753.5 50.0543C753.5 45.484 751.452 41.9391 747.403 39.5658L746.897 40.4285C750.648 42.6266 752.5 45.8474 752.5 50.0543H753.5ZM747.392 39.5593C744.999 38.2398 740.754 36.9481 734.624 35.6677L734.419 36.6466C740.546 37.9262 744.659 39.1945 746.909 40.435L747.392 39.5593ZM734.522 35.6571C734.346 35.6571 734.111 35.6214 733.805 35.5544C733.499 35.4877 733.167 35.4001 732.784 35.3059L732.545 36.2769C732.905 36.3657 733.269 36.4609 733.591 36.5313C733.911 36.6015 734.233 36.6571 734.522 36.6571V35.6571ZM732.741 35.2974C730.956 35.0197 729.791 34.8424 729.179 34.6701L728.908 35.6327C729.595 35.8261 730.845 36.0146 732.588 36.2855L732.741 35.2974ZM729.179 34.6701C728.496 34.4781 727.709 34.3082 726.812 33.9548L726.446 34.8852C727.406 35.2633 728.29 35.459 728.908 35.6327L729.179 34.6701ZM726.771 33.9405C725.887 33.6795 725.322 33.3455 725.03 33.058L724.328 33.7706C724.779 34.2145 725.514 34.612 726.487 34.8995L726.771 33.9405ZM725.03 33.058C724.893 32.923 724.823 32.8054 724.781 32.6825C724.737 32.5509 724.715 32.3843 724.715 32.1343H723.715C723.715 32.4328 723.739 32.7234 723.834 33.0032C723.932 33.2917 724.094 33.5398 724.328 33.7706L725.03 33.058ZM724.715 32.1343C724.715 31.5994 725.055 31.003 726.266 30.4921L725.877 29.5708C724.488 30.157 723.715 31.0234 723.715 32.1343H724.715ZM726.279 30.4866C727.394 29.9797 728.985 29.7086 730.993 29.7086V28.7086C728.916 28.7086 727.164 28.986 725.865 29.5762L726.279 30.4866ZM730.993 29.7086C733.329 29.7086 735.012 30.0496 736.095 30.6709C737.138 31.2688 737.643 32.1333 737.643 33.3229H738.643C738.643 31.7696 737.941 30.5769 736.593 29.8034C735.285 29.0533 733.393 28.7086 730.993 28.7086V29.7086ZM737.643 33.3229C737.643 33.7913 737.483 34.349 737.287 35.1198L738.256 35.3659C738.432 34.6738 738.643 33.9515 738.643 33.3229H737.643ZM737.772 35.7429H750.307V34.7429H737.772V35.7429ZM750.761 35.4524C751.257 34.3782 751.55 33.1177 751.55 31.6771H750.55C750.55 32.9794 750.286 34.0961 749.853 35.0333L750.761 35.4524ZM751.55 31.6771C751.55 27.4721 749.597 23.9425 745.762 21.2997L745.195 22.1231C748.789 24.6004 750.55 27.8365 750.55 31.6771H751.55ZM745.762 21.2997C741.948 18.6705 737.014 17.28 731.179 17.28V18.28C736.858 18.28 741.581 19.6324 745.195 22.1231L745.762 21.2997ZM731.179 17.28C724.97 17.28 720.026 18.7633 716.204 21.6797L716.811 22.4746C720.418 19.7224 725.131 18.28 731.179 18.28V17.28ZM716.198 21.6844C712.362 24.7066 710.436 28.6924 710.436 33.6886H711.436C711.436 28.9933 713.225 25.2992 716.817 22.4699L716.198 21.6844ZM710.436 33.6886C710.436 35.9949 710.891 38.0237 711.844 39.7683C712.798 41.5146 714.236 42.9481 716.161 44.0848L716.669 43.2238C714.879 42.1662 713.578 40.8568 712.722 39.2888C711.864 37.7192 711.436 35.8623 711.436 33.6886H710.436ZM716.149 44.078C718.28 45.4131 722.45 46.7055 728.395 47.8031L728.577 46.8197C722.637 45.7231 718.635 44.4555 716.68 43.2306L716.149 44.078ZM728.265 47.76C728.479 47.8654 728.839 47.9943 729.136 47.9943V46.9943C729.062 46.9943 728.864 46.9403 728.707 46.8628L728.265 47.76ZM729.136 47.9943C729.176 47.9943 729.23 48.005 729.403 48.0334C729.551 48.0577 729.745 48.0857 729.972 48.0857V47.0857C729.827 47.0857 729.696 47.068 729.565 47.0466C729.46 47.0293 729.282 46.9943 729.136 46.9943V47.9943ZM729.868 48.0748C733.313 48.8082 735.794 49.3517 737.253 49.8007L737.547 48.845C736.035 48.3797 733.502 47.8261 730.076 47.0967L729.868 48.0748ZM737.227 49.7919C737.948 50.0581 738.466 50.3312 738.797 50.6086C739.119 50.8793 739.222 51.1166 739.222 51.3343H740.222C740.222 50.7291 739.907 50.235 739.44 49.8428C738.981 49.4573 738.338 49.1362 737.573 48.8538L737.227 49.7919ZM739.222 51.3343C739.222 51.6325 739.109 51.8932 738.825 52.1555C738.524 52.4332 738.039 52.7028 737.32 52.9681L737.666 53.9062C738.433 53.623 739.062 53.2982 739.504 52.8903C739.962 52.4667 740.222 51.9504 740.222 51.3343H739.222ZM737.32 52.9681C735.911 53.4884 734.026 53.76 731.643 53.76V54.76C734.089 54.76 736.104 54.483 737.666 53.9062L737.32 52.9681ZM731.643 53.76C728.787 53.76 726.745 53.417 725.434 52.7714C724.786 52.4524 724.333 52.0679 724.042 51.63C723.752 51.195 723.6 50.677 723.6 50.0543H722.6C722.6 50.8487 722.797 51.565 723.21 52.1843C723.62 52.8007 724.224 53.2905 724.992 53.6686C726.513 54.4172 728.742 54.76 731.643 54.76V53.76ZM723.6 50.0543C723.6 49.4658 723.685 48.9226 723.997 48.3853L723.132 47.8833C722.701 48.626 722.6 49.3627 722.6 50.0543H723.6ZM723.565 47.6343H711.029V48.6343H723.565V47.6343ZM405.728 64H384V65H405.728V64ZM420.492 65H449.299V64H420.492V65ZM464.063 65H491.548V64H464.063V65ZM506.683 65H513.772V64H506.683V65ZM563.728 65H572.623V64H563.728V65ZM587.015 65H622.208V64H587.015V65ZM643.625 64H632.329V65H643.625V64ZM715.953 62.2651C717.7 63.4253 719.65 64.3265 721.794 64.9784L722.085 64.0216C720.026 63.3955 718.165 62.5338 716.506 61.432L715.953 62.2651ZM670.831 65H721.94V64H670.831V65ZM741.013 64.9776C743.332 64.2593 745.419 63.2354 747.26 61.8862L746.669 61.0795C744.925 62.3572 742.94 63.3337 740.717 64.0224L741.013 64.9776ZM740.865 65H753V64H740.865V65ZM485.698 15.1286L486.4 14.416L486.379 14.3954L486.357 14.3761L485.698 15.1286ZM485.698 26.9229L485.018 26.1894L485.017 26.1906L485.698 26.9229ZM464.063 29.2086H463.063V30.2086H464.063V29.2086ZM464.063 12.8429V11.8429H463.063V12.8429H464.063ZM658.389 52.1571H657.389V53.1571H658.389V52.1571ZM658.389 12.8429V11.8429H657.389V12.8429H658.389ZM684.574 18.42L685.285 17.7164L684.574 18.42ZM684.574 46.6714L685.276 47.384L685.285 47.375L684.574 46.6714ZM479.291 13.8429C481.664 13.8429 483.561 14.5875 485.039 15.8811L486.357 14.3761C484.492 12.744 482.118 11.8429 479.291 11.8429V13.8429ZM484.996 15.8411C486.384 17.207 487.112 18.8701 487.112 20.98H489.112C489.112 18.3357 488.17 16.1587 486.4 14.416L484.996 15.8411ZM487.112 20.98C487.112 23.2058 486.368 24.9387 485.018 26.1894L486.378 27.6563C488.185 25.9813 489.112 23.6914 489.112 20.98H487.112ZM485.017 26.1906C483.566 27.5401 481.691 28.2086 479.291 28.2086V30.2086C482.091 30.2086 484.488 29.4142 486.379 27.6552L485.017 26.1906ZM479.291 28.2086H464.063V30.2086H479.291V28.2086ZM465.063 29.2086V12.8429H463.063V29.2086H465.063ZM464.063 13.8429H479.291V11.8429H464.063V13.8429ZM659.389 52.1571V12.8429H657.389V52.1571H659.389ZM658.389 13.8429H670.831V11.8429H658.389V13.8429ZM670.831 13.8429C676.145 13.8429 680.436 15.6625 683.863 19.1236L685.285 17.7164C681.469 13.8633 676.661 11.8429 670.831 11.8429V13.8429ZM683.863 19.1236C687.281 22.5747 689.053 27.0672 689.053 32.5H691.053C691.053 26.5957 689.11 21.5796 685.285 17.7164L683.863 19.1236ZM689.053 32.5C689.053 38.0267 687.279 42.5184 683.863 45.9678L685.285 47.375C689.112 43.5102 691.053 38.4933 691.053 32.5H689.053ZM683.872 45.9589C680.354 49.4234 676.06 51.1571 670.831 51.1571V53.1571C676.56 53.1571 681.366 51.2338 685.276 47.384L683.872 45.9589ZM670.831 51.1571H658.389V53.1571H670.831V51.1571Z" fill="#989898" mask="url(#path-3-outside-1)"/>
<line x1="753" y1="64.5" x2="768" y2="64.5" stroke="#989898"/>
</svg>
