<svg width="1920" height="121" viewBox="0 0 1920 121" fill="none" xmlns="http://www.w3.org/2000/svg">
<line y1="120.5" x2="70" y2="120.5" stroke="#989898"/>
<line x1="70" y1="120.5" x2="1167" y2="120.5" stroke="#989898"/>
<mask id="path-3-outside-1" maskUnits="userSpaceOnUse" x="1166" y="-0.5" width="685" height="122" fill="black">
<rect fill="white" x="1166" y="-0.5" width="685" height="122"/>
<path d="M1343.38 23.6429C1348.19 23.6429 1352.14 25.1857 1355.24 27.9286C1358.16 30.8429 1359.71 34.4429 1359.71 38.9C1359.71 43.5286 1358.16 47.3 1355.24 50.0429C1352.14 52.9571 1348.19 54.3286 1343.38 54.3286H1315.19V23.6429H1343.38Z"/>
<path d="M1674.88 97.3571V23.6429H1697.91C1708.22 23.6429 1716.64 27.2429 1723.35 34.1C1730.05 40.9571 1733.49 49.8714 1733.49 60.5C1733.49 71.3 1730.05 80.2143 1723.35 87.0714C1716.47 93.9286 1708.05 97.3571 1697.91 97.3571H1674.88Z"/>
</mask>
<path d="M1167 23.6429H1166.5V24.1429H1167V23.6429ZM1207.22 23.6429H1207.72V23.1429H1207.22V23.6429ZM1207.22 120.5V121H1207.72V120.5H1207.22ZM1234.55 120.5H1234.05V121H1234.55V120.5ZM1234.55 23.6429V23.1429H1234.05V23.6429H1234.55ZM1274.76 23.6429V24.1429H1275.26V23.6429H1274.76ZM1274.76 0.5H1275.26V0H1274.76V0.5ZM1167 0.5V0H1166.5V0.5H1167ZM1287.86 120.5V121H1288.36V120.5H1287.86ZM1315.19 120.5H1314.69V121H1315.19V120.5ZM1315.19 77.4714V76.9714H1314.69V77.4714H1315.19ZM1349.05 81.9286L1349.51 81.7268L1349.5 81.7102L1349.49 81.6942L1349.05 81.9286ZM1366.07 120.5V121H1366.83L1366.52 120.298L1366.07 120.5ZM1394.08 120.5L1393.62 120.702L1393.75 121H1394.08V120.5ZM1375.35 77.9857L1374.89 78.1831L1374.89 78.1873L1375.35 77.9857ZM1368.13 68.9L1367.89 68.4578L1367.19 68.8304L1367.83 69.3029L1368.13 68.9ZM1382.05 56.2143L1382.47 56.4798L1382.48 56.47L1382.05 56.2143ZM1375 10.9571L1375.33 10.5794L1375.33 10.576L1375 10.9571ZM1287.86 0.5V0H1287.36V0.5H1287.86ZM1407.2 120.5V121H1407.7V120.5H1407.2ZM1499.67 120.5H1499.17V121H1499.67V120.5ZM1499.67 97.3571H1500.17V96.8571H1499.67V97.3571ZM1434.53 97.3571H1434.03V97.8571H1434.53V97.3571ZM1434.53 71.1286V70.6286H1434.03V71.1286H1434.53ZM1490.39 71.1286V71.6286H1490.89V71.1286H1490.39ZM1490.39 48.6714H1490.89V48.1714H1490.39V48.6714ZM1434.53 48.6714H1434.03V49.1714H1434.53V48.6714ZM1434.53 23.6429V23.1429H1434.03V23.6429H1434.53ZM1497.95 23.6429V24.1429H1498.45V23.6429H1497.95ZM1497.95 0.5H1498.45V0H1497.95V0.5ZM1407.2 0.5V0H1406.7V0.5H1407.2ZM1516.13 120.5V121H1516.63V120.5H1516.13ZM1542.77 120.5H1542.27V121H1542.77V120.5ZM1542.77 47.9857L1543.14 47.6516L1542.27 46.6809V47.9857H1542.77ZM1607.91 120.5V121H1609.03L1608.28 120.166L1607.91 120.5ZM1626.64 120.5H1626.14V121H1626.64V120.5ZM1626.64 0.5H1627.14V0H1626.64V0.5ZM1600 0.5V0H1599.5V0.5H1600ZM1600 73.0143L1599.63 73.3503L1600.5 74.309V73.0143H1600ZM1534.18 0.5L1534.55 0.16393L1534.4 0H1534.18V0.5ZM1516.13 0.5V0H1515.63V0.5H1516.13ZM1647.55 120.5V121H1648.05V120.5H1647.55ZM1742.94 103.871L1743.28 104.238L1743.28 104.236L1742.94 103.871ZM1743.11 17.4714L1743.46 17.1122L1743.46 17.1097L1743.11 17.4714ZM1647.55 0.5V0H1647.05V0.5H1647.55ZM1772.31 89.8143V89.3143H1771.99L1771.86 89.6043L1772.31 89.8143ZM1781.94 115.529L1782.22 115.114L1782.21 115.111L1781.94 115.529ZM1838.83 114.843L1838.54 114.437L1838.53 114.441L1838.83 114.843ZM1839.17 74.5571L1839.43 74.1271L1839.42 74.1206L1839.17 74.5571ZM1815.8 67.3571L1815.9 66.868L1815.85 66.8571H1815.8V67.3571ZM1812.36 66.6714L1812.48 66.1863L1812.46 66.1809L1812.44 66.1775L1812.36 66.6714ZM1801.19 64.1L1801.37 63.6356L1801.35 63.6274L1801.33 63.621L1801.19 64.1ZM1797.58 62.2143L1797.23 62.5683V62.5683L1797.58 62.2143ZM1800.16 55.8714L1800.35 56.3314L1800.37 56.3256L1800.16 55.8714ZM1821.81 65.6429L1821.33 65.5213L1821.17 66.1429H1821.81V65.6429ZM1845.02 65.6429V66.1429H1845.34L1845.47 65.8502L1845.02 65.6429ZM1836.08 40.2714L1835.79 40.6814L1836.08 40.2714ZM1782.45 40.9571L1782.15 40.5615L1782.14 40.5663L1782.45 40.9571ZM1782.28 81.4143L1782.55 80.992L1782.54 80.9852L1782.28 81.4143ZM1804.63 88.2714L1804.85 87.824L1804.79 87.7928L1804.72 87.7799L1804.63 88.2714ZM1807.38 88.7857L1807.48 88.2969L1807.43 88.2857H1807.38V88.7857ZM1821.13 92.0429L1821.3 91.5745L1821.29 91.5697L1821.27 91.5655L1821.13 92.0429ZM1821.3 99.7571L1821.12 99.2888L1821.3 99.7571ZM1795.52 89.8143L1795.95 90.0628L1796.38 89.3143H1795.52V89.8143ZM1792.51 120.5V121L1792.66 120.022L1792.51 120.5ZM1827.54 120.5L1827.39 120.023L1827.54 121V120.5ZM1167 24.1429H1207.22V23.1429H1167V24.1429ZM1206.72 23.6429V120.5H1207.72V23.6429H1206.72ZM1235.05 120.5V23.6429H1234.05V120.5H1235.05ZM1234.55 24.1429H1274.76V23.1429H1234.55V24.1429ZM1275.26 23.6429V0.5H1274.26V23.6429H1275.26ZM1274.76 0H1167V1H1274.76V0ZM1166.5 0.5V23.6429H1167.5V0.5H1166.5ZM1315.69 120.5V77.4714H1314.69V120.5H1315.69ZM1315.19 77.9714H1341.14V76.9714H1315.19V77.9714ZM1341.14 77.9714C1342.97 77.9714 1344.47 78.3428 1345.69 79.0411C1346.91 79.7382 1347.87 80.778 1348.61 82.163L1349.49 81.6942C1348.68 80.1648 1347.59 78.976 1346.18 78.1732C1344.78 77.3715 1343.1 76.9714 1341.14 76.9714V77.9714ZM1348.59 82.1304L1365.61 120.702L1366.52 120.298L1349.51 81.7268L1348.59 82.1304ZM1394.54 120.298L1375.8 77.7841L1374.89 78.1873L1393.62 120.702L1394.54 120.298ZM1375.81 77.7883C1374.22 74.108 1371.76 70.9508 1368.42 68.4971L1367.83 69.3029C1371.02 71.6492 1373.38 74.6634 1374.89 78.1831L1375.81 77.7883ZM1368.36 69.3421C1374.28 66.2196 1378.98 62.0474 1382.47 56.4798L1381.63 55.9488C1378.24 61.3526 1373.67 65.409 1367.89 68.4578L1368.36 69.3421ZM1382.48 56.47C1385.79 50.904 1387.53 44.6436 1387.53 37.5286H1386.53C1386.53 44.4707 1384.84 50.5532 1381.62 55.9585L1382.48 56.47ZM1387.53 37.5286C1387.53 26.5843 1383.35 17.532 1375.33 10.5794L1374.68 11.3349C1382.47 18.0966 1386.53 26.8728 1386.53 37.5286H1387.53ZM1375.33 10.576C1367.14 3.62953 1356.54 0 1343.55 0V1C1356.34 1 1366.71 4.57048 1374.68 11.3383L1375.33 10.576ZM1343.55 0H1287.86V1H1343.55V0ZM1287.36 0.5V120.5H1288.36V0.5H1287.36ZM1500.17 120.5V97.3571H1499.17V120.5H1500.17ZM1499.67 96.8571H1434.53V97.8571H1499.67V96.8571ZM1435.03 97.3571V71.1286H1434.03V97.3571H1435.03ZM1434.53 71.6286H1490.39V70.6286H1434.53V71.6286ZM1490.89 71.1286V48.6714H1489.89V71.1286H1490.89ZM1490.39 48.1714H1434.53V49.1714H1490.39V48.1714ZM1435.03 48.6714V23.6429H1434.03V48.6714H1435.03ZM1434.53 24.1429H1497.95V23.1429H1434.53V24.1429ZM1498.45 23.6429V0.5H1497.45V23.6429H1498.45ZM1497.95 0H1407.2V1H1497.95V0ZM1406.7 0.5V120.5H1407.7V0.5H1406.7ZM1543.27 120.5V47.9857H1542.27V120.5H1543.27ZM1542.4 48.3198L1607.54 120.834L1608.28 120.166L1543.14 47.6516L1542.4 48.3198ZM1627.14 120.5V0.5H1626.14V120.5H1627.14ZM1626.64 0H1600V1H1626.64V0ZM1599.5 0.5V73.0143H1600.5V0.5H1599.5ZM1600.37 72.6782L1534.55 0.16393L1533.81 0.83607L1599.63 73.3503L1600.37 72.6782ZM1534.18 0H1516.13V1H1534.18V0ZM1515.63 0.5V120.5H1516.63V0.5H1515.63ZM1697.91 121C1716.07 121 1731.15 115.476 1743.28 104.238L1742.6 103.505C1730.67 114.552 1715.85 120 1697.91 120V121ZM1743.28 104.236C1755.25 92.9906 1761.31 78.4546 1761.31 60.5H1760.31C1760.31 78.2025 1754.35 92.4666 1742.6 103.507L1743.28 104.236ZM1761.31 60.5C1761.31 42.8848 1755.25 28.5247 1743.46 17.1122L1742.76 17.8307C1754.35 29.0467 1760.31 43.1438 1760.31 60.5H1761.31ZM1743.46 17.1097C1731.49 5.696 1716.24 0 1697.91 0V1C1716.02 1 1731.01 6.61828 1742.77 17.8332L1743.46 17.1097ZM1697.91 0H1647.55V1H1697.91V0ZM1647.05 0.5V120.5H1648.05V0.5H1647.05ZM1771.86 89.6043C1770.8 91.8995 1770.27 94.3713 1770.27 96.8428H1771.27C1771.27 94.5145 1771.77 92.1862 1772.77 90.0243L1771.86 89.6043ZM1770.27 96.8428C1770.27 104.584 1773.99 110.901 1781.66 115.946L1782.21 115.111C1774.76 110.214 1771.27 104.187 1771.27 96.8428H1770.27ZM1839.12 115.249C1846.64 109.844 1850.5 102.495 1850.5 93.4143H1849.5C1849.5 102.162 1845.8 109.213 1838.54 114.437L1839.12 115.249ZM1850.5 93.4143C1850.5 85.0071 1846.8 78.5019 1839.43 74.1272L1838.92 74.9871C1845.99 79.1838 1849.5 85.3643 1849.5 93.4143H1850.5ZM1839.42 74.1206C1835.05 71.6804 1827.25 69.2684 1815.9 66.868L1815.69 67.8463C1827.04 70.2459 1834.7 72.6339 1838.93 74.9937L1839.42 74.1206ZM1815.8 66.8571C1815.42 66.8571 1814.95 66.7817 1814.38 66.6547C1813.81 66.528 1813.18 66.3605 1812.48 66.1863L1812.24 67.1566C1812.92 67.3252 1813.58 67.5006 1814.16 67.631C1814.75 67.7612 1815.31 67.8571 1815.8 67.8571V66.8571ZM1812.44 66.1775C1809.15 65.6598 1806.96 65.3227 1805.79 64.9906L1805.52 65.9523C1806.76 66.3059 1809.04 66.6545 1812.28 67.1653L1812.44 66.1775ZM1805.79 64.9906C1804.56 64.6384 1803.06 64.3087 1801.37 63.6356L1801 64.5644C1802.75 65.2627 1804.35 65.6188 1805.52 65.9523L1805.79 64.9906ZM1801.33 63.621C1799.66 63.1203 1798.54 62.4671 1797.93 61.8603L1797.23 62.5683C1797.99 63.3329 1799.28 64.0511 1801.05 64.579L1801.33 63.621ZM1797.93 61.8603C1797.64 61.5657 1797.47 61.288 1797.37 60.9844C1797.26 60.672 1797.22 60.3047 1797.22 59.8143H1796.22C1796.22 60.3524 1796.26 60.8423 1796.42 61.3013C1796.57 61.7691 1796.83 62.1772 1797.23 62.5683L1797.93 61.8603ZM1797.22 59.8143C1797.22 58.5558 1798.04 57.3205 1800.35 56.3312L1799.96 55.4117C1797.46 56.4795 1796.22 57.9871 1796.22 59.8143H1797.22ZM1800.37 56.3256C1802.51 55.3396 1805.52 54.8286 1809.27 54.8286V53.8286C1805.45 53.8286 1802.27 54.3461 1799.95 55.4172L1800.37 56.3256ZM1809.27 54.8286C1813.62 54.8286 1816.82 55.4694 1818.92 56.6895C1820.98 57.886 1822 59.6501 1822 62.0429H1823C1823 59.2927 1821.79 57.1997 1819.42 55.8248C1817.1 54.4734 1813.68 53.8286 1809.27 53.8286V54.8286ZM1822 62.0429C1822 62.9923 1821.68 64.111 1821.33 65.5213L1822.3 65.7644C1822.63 64.4319 1823 63.1505 1823 62.0429H1822ZM1821.81 66.1429H1845.02V65.1429H1821.81V66.1429ZM1845.47 65.8502C1846.36 63.8964 1846.89 61.5968 1846.89 58.9571H1845.89C1845.89 61.4604 1845.39 63.6179 1844.56 65.4355L1845.47 65.8502ZM1846.89 58.9571C1846.89 51.2349 1843.36 44.7454 1836.36 39.8615L1835.79 40.6814C1842.55 45.3974 1845.89 51.5936 1845.89 58.9571H1846.89ZM1836.36 39.8615C1829.39 34.9911 1820.35 32.4 1809.61 32.4V33.4C1820.19 33.4 1829.02 35.9518 1835.79 40.6814L1836.36 39.8615ZM1809.61 32.4C1798.18 32.4 1789.13 35.164 1782.15 40.5616L1782.76 41.3527C1789.53 36.1217 1798.35 33.4 1809.61 33.4V32.4ZM1782.14 40.5663C1775.15 46.1494 1771.64 53.4949 1771.64 62.7286H1772.64C1772.64 53.7908 1776.01 46.7363 1782.77 41.348L1782.14 40.5663ZM1771.64 62.7286C1771.64 66.9939 1772.47 70.7218 1774.19 73.9159C1775.92 77.1119 1778.52 79.7459 1782.03 81.8433L1782.54 80.9852C1779.17 78.9684 1776.7 76.4595 1775.07 73.4412C1773.45 70.421 1772.64 66.8633 1772.64 62.7286H1771.64ZM1782.01 81.8364C1785.88 84.2925 1793.53 86.7052 1804.53 88.7629L1804.72 87.7799C1793.72 85.7233 1786.24 83.3361 1782.55 80.9921L1782.01 81.8364ZM1804.4 88.7189C1804.77 88.9044 1805.37 89.1143 1805.83 89.1143V88.1143C1805.6 88.1143 1805.16 87.9813 1804.85 87.824L1804.4 88.7189ZM1805.83 89.1143C1805.95 89.1143 1806.1 89.1447 1806.39 89.1932C1806.66 89.2376 1806.99 89.2857 1807.38 89.2857V88.2857C1807.07 88.2857 1806.8 88.2481 1806.56 88.2068C1806.33 88.1696 1806.05 88.1143 1805.83 88.1143V89.1143ZM1807.27 89.2745C1813.64 90.648 1818.25 91.6714 1820.98 92.5202L1821.27 91.5655C1818.5 90.7001 1813.83 89.6663 1807.48 88.2969L1807.27 89.2745ZM1820.95 92.5112C1822.3 93.0171 1823.32 93.5498 1823.98 94.1165C1824.64 94.6762 1824.92 95.234 1824.92 95.8143H1825.92C1825.92 94.8517 1825.43 94.038 1824.63 93.3549C1823.83 92.6787 1822.7 92.0971 1821.3 91.5745L1820.95 92.5112ZM1824.92 95.8143C1824.92 96.5148 1824.65 97.1162 1824.05 97.6776C1823.43 98.2547 1822.47 98.7838 1821.12 99.2888L1821.47 100.225C1822.87 99.7019 1823.97 99.1167 1824.73 98.4081C1825.51 97.6838 1825.92 96.828 1825.92 95.8143H1824.92ZM1821.12 99.2888C1818.45 100.288 1814.91 100.8 1810.47 100.8V101.8C1814.97 101.8 1818.65 101.283 1821.47 100.225L1821.12 99.2888ZM1810.47 100.8C1805.16 100.8 1801.31 100.157 1798.79 98.9025C1797.54 98.2792 1796.64 97.5128 1796.05 96.6137C1795.46 95.7172 1795.16 94.6583 1795.16 93.4143H1794.16C1794.16 94.8274 1794.5 96.0828 1795.21 97.1631C1795.92 98.2407 1796.97 99.1137 1798.34 99.7974C1801.07 101.157 1805.12 101.8 1810.47 101.8V100.8ZM1795.16 93.4143C1795.16 92.265 1795.32 91.1608 1795.95 90.0628L1795.08 89.5657C1794.34 90.8678 1794.16 92.1636 1794.16 93.4143H1795.16ZM1795.52 89.3143H1772.31V90.3143H1795.52V89.3143ZM1207.22 120H1167V121H1207.22V120ZM1234.55 121H1287.86V120H1234.55V121ZM1315.19 121H1366.07V120H1315.19V121ZM1394.08 121H1407.2V120H1394.08V121ZM1499.67 121H1516.13V120H1499.67V121ZM1542.77 121H1607.91V120H1542.77V121ZM1647.55 120H1626.64V121H1647.55V120ZM1781.66 115.943C1784.86 118.094 1788.43 119.767 1792.36 120.978L1792.66 120.022C1788.81 118.837 1785.33 117.205 1782.22 115.114L1781.66 115.943ZM1697.91 121H1792.51V120H1697.91V121ZM1827.69 120.977C1831.94 119.643 1835.76 117.743 1839.13 115.244L1838.53 114.441C1835.26 116.868 1831.54 118.719 1827.39 120.023L1827.69 120.977ZM1827.54 121H1850V120H1827.54V121ZM1355.24 27.9286L1355.94 27.2206L1355.92 27.1998L1355.9 27.1803L1355.24 27.9286ZM1355.24 50.0429L1354.55 49.3138L1354.55 49.315L1355.24 50.0429ZM1315.19 54.3286H1314.19V55.3286H1315.19V54.3286ZM1315.19 23.6429V22.6429H1314.19V23.6429H1315.19ZM1674.88 97.3571H1673.88V98.3571H1674.88V97.3571ZM1674.88 23.6429V22.6429H1673.88V23.6429H1674.88ZM1723.35 34.1L1724.06 33.401L1723.35 34.1ZM1723.35 87.0714L1724.05 87.7795L1724.06 87.7704L1723.35 87.0714ZM1343.38 24.6429C1347.96 24.6429 1351.67 26.105 1354.57 28.6768L1355.9 27.1803C1352.61 24.2664 1348.42 22.6429 1343.38 22.6429V24.6429ZM1354.53 28.6366C1357.26 31.3614 1358.71 34.7059 1358.71 38.9H1360.71C1360.71 34.1798 1359.06 30.3243 1355.94 27.2206L1354.53 28.6366ZM1358.71 38.9C1358.71 43.2899 1357.25 46.7842 1354.55 49.3138L1355.92 50.7719C1359.07 47.8158 1360.71 43.7672 1360.71 38.9H1358.71ZM1354.55 49.315C1351.68 52.0223 1347.99 53.3286 1343.38 53.3286V55.3286C1348.39 55.3286 1352.61 53.892 1355.92 50.7708L1354.55 49.315ZM1343.38 53.3286H1315.19V55.3286H1343.38V53.3286ZM1316.19 54.3286V23.6429H1314.19V54.3286H1316.19ZM1315.19 24.6429H1343.38V22.6429H1315.19V24.6429ZM1675.88 97.3571V23.6429H1673.88V97.3571H1675.88ZM1674.88 24.6429H1697.91V22.6429H1674.88V24.6429ZM1697.91 24.6429C1707.96 24.6429 1716.12 28.1394 1722.63 34.799L1724.06 33.401C1717.17 26.3464 1708.48 22.6429 1697.91 22.6429V24.6429ZM1722.63 34.799C1729.13 41.4493 1732.49 50.1033 1732.49 60.5H1734.49C1734.49 49.6396 1730.97 40.465 1724.06 33.401L1722.63 34.799ZM1732.49 60.5C1732.49 71.0706 1729.13 79.7237 1722.63 86.3724L1724.06 87.7704C1730.97 80.7048 1734.49 71.5294 1734.49 60.5H1732.49ZM1722.64 86.3634C1715.96 93.0263 1707.8 96.3571 1697.91 96.3571V98.3571C1708.3 98.3571 1716.98 94.8308 1724.05 87.7794L1722.64 86.3634ZM1697.91 96.3571H1674.88V98.3571H1697.91V96.3571Z" fill="#989898" mask="url(#path-3-outside-1)"/>
<line x1="1850" y1="120.5" x2="1920" y2="120.5" stroke="#989898"/>
</svg>
