<svg width="60" height="61" viewBox="0 0 60 61" fill="none" xmlns="http://www.w3.org/2000/svg">
<circle cx="30" cy="30.5557" r="30" fill="#404040"/>
<path d="M9.53125 34.5556H10.5913V32.0056H11.9412C13.2713 32.0056 14.1813 31.1556 14.1813 29.9756C14.1813 28.7856 13.2713 27.9556 11.9412 27.9556H9.53125V34.5556ZM10.5913 31.0656V28.8956H11.9213C12.6713 28.8956 13.0912 29.3356 13.0912 29.9856C13.0912 30.6356 12.6713 31.0656 11.9213 31.0656H10.5913Z" fill="white"/>
<path d="M20.7213 34.5556L18.7413 31.8356C19.5313 31.5256 20.0113 30.8456 20.0113 29.9756C20.0113 28.7856 19.1013 27.9556 17.7713 27.9556H15.3613V34.5556H16.4213V32.0056H17.6313L19.5113 34.5556H20.7213ZM16.4213 28.8956H17.7513C18.4813 28.8956 18.9213 29.3356 18.9213 29.9856C18.9213 30.6256 18.4813 31.0656 17.7513 31.0656H16.4213V28.8956Z" fill="white"/>
<path d="M21.6699 34.5556H26.1299V33.6056H22.7299V31.5156H25.1999V30.5956H22.7299V28.9056H26.0099V27.9556H21.6699V34.5556Z" fill="white"/>
<path d="M33.2733 27.8456L30.5033 31.5356L27.7333 27.8456H27.3633V34.5556H28.4233V30.4056L30.3233 32.8956H30.6833L32.5733 30.4156V34.5556H33.6333V27.8456H33.2733Z" fill="white"/>
<path d="M35.293 34.5556H36.353V27.9556H35.293V34.5556Z" fill="white"/>
<path d="M37.9476 31.8856C37.9476 33.6256 39.0876 34.6656 40.6676 34.6656C42.2176 34.6656 43.3676 33.6256 43.3676 31.8856V27.9556H42.3076V31.9556C42.3076 33.0756 41.6276 33.6956 40.6676 33.6956C39.6976 33.6956 39.0076 33.0756 39.0076 31.9556V27.9556H37.9476V31.8856Z" fill="white"/>
<path d="M50.8709 27.8456L48.1009 31.5356L45.3309 27.8456H44.9609V34.5556H46.0209V30.4056L47.9209 32.8956H48.2809L50.1709 30.4156V34.5556H51.2309V27.8456H50.8709Z" fill="white"/>
</svg>
