<svg width="60" height="61" viewBox="0 0 60 61" fill="none" xmlns="http://www.w3.org/2000/svg">
<circle cx="30" cy="30.5557" r="30" fill="white"/>
<path d="M24.1545 27.6356C24.1545 26.8256 23.6945 26.2056 22.9245 25.9556C23.2845 25.6456 23.4745 25.2256 23.4745 24.7156C23.4745 23.6956 22.6845 22.9556 21.4945 22.9556H19.1845V29.5556H22.0145C23.3045 29.5556 24.1545 28.7456 24.1545 27.6356ZM21.3945 23.8856C22.0445 23.8856 22.4145 24.2156 22.4145 24.7656C22.4145 25.3156 22.0445 25.6656 21.3945 25.6656H20.2245V23.8856H21.3945ZM23.0845 27.6056C23.0845 28.2356 22.6545 28.6256 21.9245 28.6256H20.2245V26.5756H21.9245C22.6545 26.5756 23.0845 26.9756 23.0845 27.6056Z" fill="#989898"/>
<path d="M25.3661 29.5556H29.8261V28.6056H26.4261V26.5156H28.8961V25.5956H26.4261V23.9056H29.7061V22.9556H25.3661V29.5556Z" fill="#989898"/>
<path d="M30.5895 28.2356C31.0995 29.1256 31.9995 29.6656 33.0795 29.6656C34.3495 29.6656 35.2895 28.9056 35.2895 27.7556C35.2895 26.8856 34.7795 26.3656 33.7095 25.8756L32.9695 25.5356C32.3195 25.2056 32.0895 25.1156 32.0495 24.5956C32.0495 24.0756 32.4895 23.7956 33.0495 23.7956C33.6095 23.7956 34.0895 24.0756 34.4395 24.5956L35.1795 24.0256C34.7695 23.3156 33.9795 22.8456 33.0495 22.8456C31.9095 22.8456 30.9695 23.5556 30.9695 24.6356C30.9695 25.5156 31.5495 26.0256 32.5095 26.4656L33.2395 26.8056C33.9295 27.1256 34.2095 27.3256 34.2095 27.7956C34.2095 28.3556 33.7495 28.7156 33.0695 28.7156C32.3095 28.7156 31.7795 28.3056 31.3395 27.6656L30.5895 28.2356Z" fill="#989898"/>
<path d="M38.1954 29.5556H39.2554V23.9056H41.4854V22.9556H35.9754V23.9056H38.1954V29.5556Z" fill="#989898"/>
<path d="M13.5729 37.2356C14.0829 38.1256 14.9829 38.6656 16.0629 38.6656C17.3329 38.6656 18.2729 37.9056 18.2729 36.7556C18.2729 35.8856 17.7629 35.3656 16.6929 34.8756L15.9529 34.5356C15.3029 34.2056 15.0729 34.1156 15.0329 33.5956C15.0329 33.0756 15.4729 32.7956 16.0329 32.7956C16.5929 32.7956 17.0729 33.0756 17.4229 33.5956L18.1629 33.0256C17.7529 32.3156 16.9629 31.8456 16.0329 31.8456C14.8929 31.8456 13.9529 32.5556 13.9529 33.6356C13.9529 34.5156 14.5329 35.0256 15.4929 35.4656L16.2229 35.8056C16.9129 36.1256 17.1929 36.3256 17.1929 36.7956C17.1929 37.3556 16.7329 37.7156 16.0529 37.7156C15.2929 37.7156 14.7629 37.3056 14.3229 36.6656L13.5729 37.2356Z" fill="#989898"/>
<path d="M19.6288 38.5556H24.0888V37.6056H20.6888V35.5156H23.1588V34.5956H20.6888V32.9056H23.9688V31.9556H19.6288V38.5556Z" fill="#989898"/>
<path d="M25.3222 38.5556H29.4022V37.6056H26.3822V31.9556H25.3222V38.5556Z" fill="#989898"/>
<path d="M30.4687 38.5556H34.5487V37.6056H31.5287V31.9556H30.4687V38.5556Z" fill="#989898"/>
<path d="M35.6151 38.5556H40.0751V37.6056H36.6751V35.5156H39.1451V34.5956H36.6751V32.9056H39.9551V31.9556H35.6151V38.5556Z" fill="#989898"/>
<path d="M46.6685 38.5556L44.6885 35.8356C45.4785 35.5256 45.9585 34.8456 45.9585 33.9756C45.9585 32.7856 45.0485 31.9556 43.7185 31.9556H41.3085V38.5556H42.3685V36.0056H43.5785L45.4585 38.5556H46.6685ZM42.3685 32.8956H43.6985C44.4285 32.8956 44.8685 33.3356 44.8685 33.9856C44.8685 34.6256 44.4285 35.0656 43.6985 35.0656H42.3685V32.8956Z" fill="#989898"/>
</svg>
