<svg width="60" height="61" viewBox="0 0 60 61" fill="none" xmlns="http://www.w3.org/2000/svg">
<path d="M0 30.5557C0 13.9871 13.4315 0.555664 30 0.555664C46.5685 0.555664 60 13.9871 60 30.5557C60 47.1242 46.5685 60.5557 30 60.5557C13.4315 60.5557 0 47.1242 0 30.5557Z" fill="white"/>
<path d="M30.2963 43.2225C37.0873 43.2225 42.5926 40.9342 42.5926 38.1114C42.5926 35.2886 37.0873 33.0003 30.2963 33.0003C23.5052 33.0003 18 35.2886 18 38.1114C18 40.9342 23.5052 43.2225 30.2963 43.2225Z" stroke="#989898" stroke-miterlimit="10"/>
<path d="M30.2963 35.9613C37.0873 35.9613 42.5926 33.673 42.5926 30.8502C42.5926 28.0274 37.0873 25.7391 30.2963 25.7391C23.5052 25.7391 18 28.0274 18 30.8502C18 33.673 23.5052 35.9613 30.2963 35.9613Z" stroke="#989898" stroke-miterlimit="10"/>
<path d="M30.2975 28.7779C37.0886 28.7779 42.5938 26.4896 42.5938 23.6668C42.5938 20.844 37.0886 18.5557 30.2975 18.5557C23.5064 18.5557 18.0012 20.844 18.0012 23.6668C18.0012 26.4896 23.5064 28.7779 30.2975 28.7779Z" stroke="#989898" stroke-miterlimit="10"/>
</svg>
