<svg width="50" height="22" viewBox="0 0 50 22" fill="none" xmlns="http://www.w3.org/2000/svg">
<mask id="path-1-inside-1" fill="white">
<path fill-rule="evenodd" clip-rule="evenodd" d="M10.7169 0H45.9226C48.1544 0 50.0048 1.51333 50 3.40839V18.5916C50 20.4549 48.1878 22 45.9226 22H10.7217C9.39592 22 8.17509 21.4728 7.40729 20.6003L0.783292 13.0246C-0.261097 11.8294 -0.261097 10.1979 0.783292 9.00269L7.40252 1.42698C8.17032 0.554431 9.39115 0.0272671 10.7169 0ZM8 12C8.55229 12 9 11.5523 9 11C9 10.4477 8.55229 10 8 10C7.44772 10 7 10.4477 7 11C7 11.5523 7.44772 12 8 12Z"/>
</mask>
<path fill-rule="evenodd" clip-rule="evenodd" d="M10.7169 0H45.9226C48.1544 0 50.0048 1.51333 50 3.40839V18.5916C50 20.4549 48.1878 22 45.9226 22H10.7217C9.39592 22 8.17509 21.4728 7.40729 20.6003L0.783292 13.0246C-0.261097 11.8294 -0.261097 10.1979 0.783292 9.00269L7.40252 1.42698C8.17032 0.554431 9.39115 0.0272671 10.7169 0ZM8 12C8.55229 12 9 11.5523 9 11C9 10.4477 8.55229 10 8 10C7.44772 10 7 10.4477 7 11C7 11.5523 7.44772 12 8 12Z" fill="white"/>
<path d="M10.7169 0V-1H10.7066L10.6963 -0.999789L10.7169 0ZM50 3.40839L49 3.40587V3.40839H50ZM7.40729 20.6003L6.65448 21.2585L6.65656 21.2609L7.40729 20.6003ZM0.783292 13.0246L0.0302724 13.6826L0.0304812 13.6828L0.783292 13.0246ZM0.783292 9.00269L1.53631 9.66068L1.53634 9.66065L0.783292 9.00269ZM7.40252 1.42698L6.65178 0.76637L6.64948 0.769009L7.40252 1.42698ZM45.9226 -1H10.7169V1H45.9226V-1ZM51 3.41091C51.0066 0.794159 48.5228 -1 45.9226 -1V1C47.7861 1 49.0029 2.23249 49 3.40587L51 3.41091ZM51 18.5916V3.40839H49V18.5916H51ZM45.9226 23C48.5709 23 51 21.1623 51 18.5916H49C49 19.7474 47.8047 21 45.9226 21V23ZM10.7217 23H45.9226V21H10.7217V23ZM6.65656 21.2609C7.63571 22.3736 9.14278 23 10.7217 23V21C9.64907 21 8.71446 20.572 8.15803 19.9397L6.65656 21.2609ZM0.0304812 13.6828L6.65448 21.2585L8.1601 19.9421L1.5361 12.3663L0.0304812 13.6828ZM0.0302725 8.34469C-1.34342 9.91676 -1.34342 12.1105 0.0302725 13.6826L1.53631 12.3666C0.82123 11.5482 0.82123 10.479 1.53631 9.66068L0.0302725 8.34469ZM6.64948 0.769009L0.0302465 8.34472L1.53634 9.66065L8.15557 2.08495L6.64948 0.769009ZM10.6963 -0.999789C9.13254 -0.967625 7.6308 -0.346213 6.65179 0.766374L8.15326 2.08758C8.70983 1.45507 9.64977 1.02216 10.7375 0.999789L10.6963 -0.999789ZM8 11V13C9.10457 13 10 12.1046 10 11H8ZM8 11H10C10 9.89543 9.10457 9 8 9V11ZM8 11V9C6.89543 9 6 9.89543 6 11H8ZM8 11H6C6 12.1046 6.89543 13 8 13V11Z" fill="#C4C4C4" mask="url(#path-1-inside-1)"/>
</svg>
