<svg width="30" height="30" viewBox="0 0 30 30" fill="none" xmlns="http://www.w3.org/2000/svg">
<path d="M29.5 15C29.5 23.0081 23.0081 29.5 15 29.5C6.99187 29.5 0.5 23.0081 0.5 15C0.5 6.99187 6.99187 0.5 15 0.5C23.0081 0.5 29.5 6.99187 29.5 15Z" stroke="#989898" stroke-miterlimit="10"/>
<path d="M16.4002 23.9999V15.7999H19.1002L19.5002 12.5999H16.3002V10.5999C16.3002 9.6999 16.6002 9.0999 17.9002 9.0999H19.6002V6.1999C18.8002 6.0999 18.0002 6.0999 17.1002 6.0999C15.0002 5.8999 13.2002 7.4999 13.0002 9.5999C13.0002 9.7999 13.0002 9.9999 13.0002 10.2999V12.6999H10.2002V15.8999H13.0002V24.0999L16.4002 23.9999Z" fill="#989898"/>
</svg>
