<svg width="30" height="30" viewBox="0 0 30 30" fill="none" xmlns="http://www.w3.org/2000/svg">
<path d="M15 30C23.2843 30 30 23.2843 30 15C30 6.71573 23.2843 0 15 0C6.71573 0 0 6.71573 0 15C0 23.2843 6.71573 30 15 30Z" fill="#19579A"/>
<path d="M16.4002 23.9999V15.7999H19.1002L19.5002 12.5999H16.3002V10.5999C16.3002 9.6999 16.6002 9.0999 17.9002 9.0999H19.6002V6.1999C18.8002 6.0999 18.0002 6.0999 17.1002 6.0999C15.0002 5.8999 13.2002 7.4999 13.0002 9.5999C13.0002 9.7999 13.0002 9.9999 13.0002 10.2999V12.6999H10.2002V15.8999H13.0002V24.0999L16.4002 23.9999Z" fill="white"/>
</svg>
