<svg width="30" height="30" viewBox="0 0 30 30" fill="none" xmlns="http://www.w3.org/2000/svg">
<path d="M15 30C23.2843 30 30 23.2843 30 15C30 6.71573 23.2843 0 15 0C6.71573 0 0 6.71573 0 15C0 23.2843 6.71573 30 15 30Z" fill="url(#paint0_linear)"/>
<path fill-rule="evenodd" clip-rule="evenodd" d="M18.2 23.0998H11.8C9.1 23.0998 7 20.8998 7 18.1998V11.6998C7 8.9998 9.2 6.8998 11.8 6.7998H18.2C20.9 6.7998 23 8.9998 23 11.6998V18.1998C23.1 20.8998 20.9 23.0998 18.2 23.0998ZM15.1 18.2998C13.3 18.2998 11.8 16.7998 11.8 14.9998C11.8 13.1998 13.3 11.6998 15.1 11.6998C16.9 11.6998 18.4 13.1998 18.4 14.9998C18.4 16.7998 16.9 18.2998 15.1 18.2998ZM18.5 10.7998C18.5 10.1998 18.9 9.7998 19.5 9.7998C20.1 9.7998 20.5 10.2998 20.5 10.7998C20.5 11.3998 20.1 11.7998 19.5 11.7998C18.9 11.7998 18.5 11.3998 18.5 10.7998Z" fill="white"/>
<defs>
<linearGradient id="paint0_linear" x1="15" y1="0" x2="15" y2="30" gradientUnits="userSpaceOnUse">
<stop stop-color="#9B36C2"/>
<stop offset="0.503125" stop-color="#FF218E"/>
<stop offset="1" stop-color="#FE9611"/>
</linearGradient>
</defs>
</svg>
