<svg width="32" height="30" viewBox="0 0 32 30" fill="none" xmlns="http://www.w3.org/2000/svg">
<path fill-rule="evenodd" clip-rule="evenodd" d="M19.1985 23H12.7985C10.0985 23 7.99854 20.8405 7.99854 18.1902V11.8098C7.99854 9.15951 10.1985 7.09816 12.7985 7H19.1985C21.8985 7 23.9985 9.15951 23.9985 11.8098V18.1902C24.0985 20.8405 21.8985 23 19.1985 23ZM16.0983 18.2884C14.2983 18.2884 12.7983 16.816 12.7983 15.0491C12.7983 13.2822 14.2983 11.8098 16.0983 11.8098C17.8983 11.8098 19.3983 13.2822 19.3983 15.0491C19.3983 16.816 17.8983 18.2884 16.0983 18.2884ZM19.4985 10.9264C19.4985 10.3374 19.8985 9.94479 20.4985 9.94479C21.0985 9.94479 21.4985 10.4356 21.4985 10.9264C21.4985 11.5153 21.0985 11.908 20.4985 11.908C19.8985 11.908 19.4985 11.5153 19.4985 10.9264Z" fill="#989898"/>
<rect x="1.49854" y="0.5" width="29.0033" height="29" rx="14.5" stroke="#989898"/>
</svg>
