<svg width="30" height="31" viewBox="0 0 30 31" fill="none" xmlns="http://www.w3.org/2000/svg">
<path d="M29.5 15.5C29.5 23.5239 23.0239 30 15 30C6.97614 30 0.5 23.5239 0.5 15.5C0.5 7.47614 6.97614 1 15 1C23.0239 1 29.5 7.47614 29.5 15.5Z" stroke="#989898" stroke-miterlimit="10"/>
<path d="M20.625 13.5646C20.5312 13.5646 20.3438 13.5646 20.25 13.5646C18.8438 13.5646 17.625 12.8872 16.7812 11.7259V18.113C16.7812 20.7259 14.7188 22.855 12.0938 22.855C9.5625 22.855 7.40625 20.7259 7.40625 18.113C7.40625 15.5001 9.46875 13.3711 12.0938 13.3711C12.1875 13.3711 12.2812 13.3711 12.375 13.3711V15.6937C12.2812 15.6937 12.1875 15.6937 12.0938 15.6937C10.7812 15.6937 9.75 16.7582 9.75 18.113C9.75 19.4679 10.7812 20.5324 12.0938 20.5324C13.4062 20.5324 14.5313 19.4679 14.5313 18.2098V7.37109H16.6875C16.875 9.40335 18.4688 10.9517 20.4375 11.0485L20.625 13.5646Z" fill="#989898"/>
</svg>
