<svg width="30" height="31" viewBox="0 0 30 31" fill="none" xmlns="http://www.w3.org/2000/svg">
<path d="M15 30.5C23.3 30.5 30 23.8 30 15.5C30 7.2 23.3 0.5 15 0.5C6.7 0.5 0 7.2 0 15.5C0 23.8 6.7 30.5 15 30.5Z" fill="black"/>
<path d="M21.2188 13.5646C21.125 13.5646 20.9375 13.5646 20.8438 13.5646C19.4375 13.5646 18.2188 12.8872 17.375 11.7259V18.113C17.375 20.7259 15.3125 22.855 12.6875 22.855C10.1562 22.855 8 20.7259 8 18.113C8 15.5001 10.0625 13.3711 12.6875 13.3711C12.7812 13.3711 12.875 13.3711 12.9688 13.3711V15.6937C12.875 15.6937 12.7812 15.6937 12.6875 15.6937C11.375 15.6937 10.3438 16.7582 10.3438 18.113C10.3438 19.4679 11.375 20.5324 12.6875 20.5324C14 20.5324 15.125 19.4679 15.125 18.2098V7.37109H17.2812C17.4688 9.40335 19.0625 10.9517 21.0312 11.0485L21.2188 13.5646Z" fill="white"/>
</svg>
