<svg width="30" height="30" viewBox="0 0 30 30" fill="none" xmlns="http://www.w3.org/2000/svg">
<path d="M15 30C23.2843 30 30 23.2843 30 15C30 6.71573 23.2843 0 15 0C6.71573 0 0 6.71573 0 15C0 23.2843 6.71573 30 15 30Z" fill="#383C41"/>
<path fill-rule="evenodd" clip-rule="evenodd" d="M16.5984 16.6004C15.2984 17.9004 15.1984 19.5004 15.0984 23.1004C18.3984 23.1004 20.6984 23.1004 21.8984 21.9004C23.0984 20.7004 23.0984 18.3004 23.0984 15.1004C19.4984 15.2004 17.8984 15.3004 16.5984 16.6004ZM6.89844 15.1004C6.89844 18.3004 6.89843 20.7004 8.09843 21.9004C9.29843 23.1004 11.5984 23.1004 14.8984 23.1004C14.7984 19.5004 14.6984 17.9004 13.3984 16.6004C12.0984 15.3004 10.4984 15.2004 6.89844 15.1004ZM14.8984 6.90039C11.5984 6.90039 9.29843 6.90039 8.09843 8.10039C6.89843 9.30039 6.89844 11.7004 6.89844 14.9004C10.4984 14.8004 12.0984 14.7004 13.3984 13.4004C14.6984 12.1004 14.7984 10.5004 14.8984 6.90039ZM16.5984 13.4004C15.2984 12.1004 15.1984 10.5004 15.0984 6.90039C18.3984 6.90039 20.6984 6.90039 21.8984 8.10039C23.0984 9.30039 23.0984 11.7004 23.0984 14.9004C19.4984 14.8004 17.8984 14.7004 16.5984 13.4004Z" fill="white"/>
</svg>
