<svg width="32" height="26" viewBox="0 0 32 26" fill="none" xmlns="http://www.w3.org/2000/svg">
<path d="M10 18.6016H21.6456L23.5588 18.538M4.5 18.5193L2.25126 18.4796C1.46693 18.4658 0.567655 18.2163 0.503313 17.4345V17.4345C0.444354 16.7177 1.17034 13.4006 2.83851 12.4997C4.50608 11.5988 6.52762 11.2302 6.97885 10.9022C7.43048 10.5748 12.4932 7.40105 12.4932 7.40105C12.4932 7.40105 13.239 6.8683 14.9266 6.7864C16.6142 6.7045 28.2231 6.7864 28.2231 6.7864C28.2231 6.7864 28.9102 6.72477 29.1649 7.23684C29.4202 7.74871 30.8525 11.701 30.8525 11.701L31.4999 17.6386C31.4999 17.6386 31.52 18.0897 30.931 18.1505C30.685 18.1764 29.848 18.2451 28.9578 18.3164" stroke="#404040" stroke-miterlimit="10"/>
<path d="M7.2458 20.75C8.63284 20.75 9.76455 19.5273 9.76455 18.0279C9.76455 16.5291 8.63284 15.3063 7.2458 15.3063C5.85819 15.3063 4.72705 16.5291 4.72705 18.0279C4.72705 19.5273 5.85819 20.75 7.2458 20.75Z" stroke="#404040" stroke-miterlimit="10"/>
<path d="M26.269 20.75C27.6559 20.75 28.7875 19.5273 28.7875 18.0279C28.7875 16.5291 27.6559 15.3063 26.269 15.3063C24.8816 15.3063 23.75 16.5291 23.75 18.0279C23.75 19.5273 24.8816 20.75 26.269 20.75Z" stroke="#404040" stroke-miterlimit="10"/>
</svg>
