<svg width="34" height="26" viewBox="0 0 34 26" fill="none" xmlns="http://www.w3.org/2000/svg">
<path d="M30.9807 1.25H3.01951C2.73261 1.25 2.5 1.4941 2.5 1.79519L2.5 22.0288C2.5 22.3298 2.73261 22.5739 3.01951 22.5739H14.3248C14.4937 22.5739 14.6521 22.6602 14.7495 22.8052L16.5754 25.0188C16.7824 25.3271 17.2179 25.3271 17.4246 25.0188L19.2505 22.8052C19.3479 22.6602 19.5063 22.5739 19.6752 22.5739H30.9805C31.2674 22.5739 31.5 22.3298 31.5 22.0288V1.79519C31.5003 1.4941 31.2677 1.25 30.9807 1.25Z" stroke="#404040" stroke-miterlimit="10"/>
<path d="M17.0391 12.7711H8.66455V9.51764C8.66455 8.91515 9.14654 8.43317 9.74902 8.43317H15.8944C16.4969 8.43317 16.9788 8.91515 16.9788 9.51764V12.7711H17.0391Z" stroke="#404040" stroke-miterlimit="10"/>
<path d="M25.4112 12.7711H17.0366V9.51764C17.0366 8.91515 17.5186 8.43317 18.1211 8.43317H24.2664C24.8689 8.43317 25.3509 8.91515 25.3509 9.51764V12.7711H25.4112Z" stroke="#404040" stroke-miterlimit="10"/>
<path d="M26.9193 12.7713H7.09755C7.0373 12.7713 6.97705 12.8315 6.97705 12.8918V16.2055C6.97705 16.2657 7.0373 16.2657 7.09755 16.2657H26.9193C26.9795 16.2657 27.0398 16.2055 27.0398 16.1452V12.8315C27.0398 12.7713 26.9795 12.7713 26.9193 12.7713Z" stroke="#404040" stroke-miterlimit="10"/>
<path d="M7.03396 16.2652C6.97371 16.2652 6.97371 16.2652 7.03396 16.2652V17.4702" stroke="#404040" stroke-miterlimit="10"/>
<path d="M27.0356 17.471V16.3262" stroke="#404040" stroke-miterlimit="10"/>
<path d="M17.0366 12.7713V16.2657" stroke="#404040" stroke-miterlimit="10"/>
</svg>
