<svg width="30" height="30" viewBox="0 0 30 30" fill="none" xmlns="http://www.w3.org/2000/svg">
<path d="M15 30C23.2843 30 30 23.2843 30 15C30 6.71573 23.2843 0 15 0C6.71573 0 0 6.71573 0 15C0 23.2843 6.71573 30 15 30Z" fill="#2675CD"/>
<path fill-rule="evenodd" clip-rule="evenodd" d="M23.5984 10.4002C23.6984 10.0002 23.5984 9.7002 22.9984 9.7002H20.9984C20.5984 9.7002 20.2984 9.9002 20.0984 10.3002C19.4984 11.7002 18.6984 13.1002 17.6984 14.3002C17.1984 14.8002 16.9984 14.9002 16.7984 14.9002C16.6984 14.9002 16.4984 14.8002 16.4984 14.3002V10.4002C16.4984 9.9002 16.3984 9.7002 15.8984 9.7002H12.7984C12.4984 9.7002 12.2984 9.9002 12.2984 10.1002C12.2984 10.6002 12.9984 10.7002 13.0984 12.0002V14.9002C13.0984 15.5002 12.9984 15.7002 12.6984 15.7002C11.9984 15.7002 10.3984 13.3002 9.49844 10.5002C9.29844 10.0002 9.09843 9.7002 8.59843 9.7002H6.59843C5.99843 9.7002 5.89844 10.0002 5.89844 10.3002C5.89844 10.8002 6.59844 13.4002 8.99844 16.8002C10.2984 18.9002 12.4984 20.2002 14.9984 20.4002C16.1984 20.4002 16.3984 20.1002 16.3984 19.6002V17.8002C16.3984 17.2002 16.4984 17.1002 16.8984 17.1002C17.1984 17.1002 17.6984 17.2002 18.8984 18.4002C20.1984 19.7002 20.4984 20.3002 21.1984 20.3002H23.1984C23.7984 20.3002 23.9984 20.0002 23.8984 19.5002C23.4984 18.6002 22.8984 17.9002 22.1984 17.2002C21.6984 16.7002 21.0984 16.1002 20.7984 15.8002C20.4984 15.4002 20.5984 15.3002 20.7984 14.9002C20.9984 14.9002 23.3984 11.5002 23.5984 10.4002Z" fill="white"/>
</svg>
