<svg width="30" height="30" viewBox="0 0 30 30" fill="none" xmlns="http://www.w3.org/2000/svg">
<path d="M15 30C23.2843 30 30 23.2843 30 15C30 6.71573 23.2843 0 15 0C6.71573 0 0 6.71573 0 15C0 23.2843 6.71573 30 15 30Z" fill="#FA141A"/>
<path d="M24.3808 10.5928C24.2675 10.1889 24.047 9.82326 23.7426 9.53471C23.4296 9.23729 23.0459 9.02453 22.6279 8.91653C21.0633 8.50413 14.7948 8.50413 14.7948 8.50413C12.1816 8.4744 9.56895 8.60517 6.97174 8.8957C6.55366 9.01168 6.17074 9.22919 5.85701 9.52888C5.54875 9.82547 5.32548 10.1912 5.20884 10.5919C4.92865 12.1014 4.79252 13.634 4.80227 15.1692C4.79227 16.7029 4.92807 18.2351 5.20884 19.7464C5.32298 20.1454 5.54542 20.5095 5.85451 20.8036C6.1636 21.0977 6.54851 21.3101 6.97174 21.4226C8.55718 21.8342 14.7948 21.8342 14.7948 21.8342C17.4114 21.8639 20.0273 21.7332 22.6279 21.4426C23.0459 21.3346 23.4296 21.1218 23.7426 20.8244C24.0508 20.5303 24.27 20.1646 24.3799 19.7663C24.6674 18.2575 24.8072 16.7243 24.7973 15.1883C24.819 13.6459 24.6793 12.1054 24.3808 10.5919V10.5928ZM12.802 18.0218V12.3174L18.0173 15.17L12.802 18.0218Z" fill="white"/>
</svg>
