<svg width="30" height="30" viewBox="0 0 30 30" fill="none" xmlns="http://www.w3.org/2000/svg">
<path d="M29.5 15C29.5 23.0081 23.0081 29.5 15 29.5C6.99187 29.5 0.5 23.0081 0.5 15C0.5 6.99187 6.99187 0.5 15 0.5C23.0081 0.5 29.5 6.99187 29.5 15Z" stroke="#989898" stroke-miterlimit="10"/>
<path d="M24.3788 10.5928C24.2656 10.1889 24.0451 9.82326 23.7406 9.53471C23.4276 9.23729 23.044 9.02453 22.6259 8.91653C21.0613 8.50413 14.7928 8.50413 14.7928 8.50413C12.1796 8.4744 9.567 8.60517 6.96978 8.8957C6.55171 9.01168 6.16878 9.22919 5.85506 9.52888C5.5468 9.82547 5.32352 10.1912 5.20689 10.5919C4.9267 12.1014 4.79056 13.634 4.80032 15.1692C4.79032 16.7029 4.92612 18.2351 5.20689 19.7464C5.32102 20.1454 5.54347 20.5095 5.85256 20.8036C6.16165 21.0977 6.54655 21.3101 6.96978 21.4226C8.55522 21.8342 14.7928 21.8342 14.7928 21.8342C17.4094 21.8639 20.0254 21.7332 22.6259 21.4426C23.044 21.3346 23.4276 21.1218 23.7406 20.8244C24.0489 20.5303 24.268 20.1646 24.378 19.7663C24.6655 18.2575 24.8053 16.7243 24.7954 15.1883C24.817 13.6459 24.6774 12.1054 24.3788 10.5919V10.5928ZM12.8 18.0218V12.3174L18.0154 15.17L12.8 18.0218Z" fill="#989898"/>
</svg>
