<svg width="56" height="23" viewBox="0 0 56 23" fill="none" xmlns="http://www.w3.org/2000/svg">
<path fill-rule="evenodd" clip-rule="evenodd" d="M22.1773 5.02341C20.5242 5.0909 16.8734 5.31309 16.8351 5.34851C16.8252 5.35762 16.9707 6.15902 17.1584 7.12932L17.4996 8.89359L17.8204 8.88328C17.9968 8.87759 18.6629 8.84312 19.3005 8.80668C20.9888 8.71023 23.4995 8.67883 24.5604 8.74089C25.5398 8.79825 26.7038 8.89722 26.7322 8.92562C26.7487 8.94205 26.8305 9.51714 26.8965 10.0805L26.9203 10.2836H23.8081H20.696V11.9945V13.7053H23.7875H26.879L26.8777 13.8016C26.876 13.9256 26.8083 14.4595 26.7479 14.8241L26.7009 15.1089L26.3498 15.1565C24.8832 15.3554 22.1116 15.3732 19.2146 15.2023C18.8604 15.1814 18.329 15.151 18.0338 15.1349L17.4971 15.1054L17.1595 16.867C16.9738 17.8359 16.8318 18.6385 16.844 18.6506C16.8927 18.6991 19.7681 18.8852 21.7909 18.9707C23.0811 19.0253 26.1425 18.9999 27.244 18.9254C28.2412 18.858 30.0093 18.714 30.1917 18.6853C30.2864 18.6704 30.3569 18.6322 30.3697 18.5889C30.6152 17.7548 30.7274 17.3336 30.8502 16.7848C31.5936 13.4646 31.5872 10.1218 30.8313 7.01166C30.6308 6.18622 30.3699 5.36647 30.3003 5.34273C30.2176 5.31451 28.2699 5.15677 27.1366 5.08649C25.8329 5.00566 23.377 4.97439 22.1773 5.02341ZM0.0287253 5.3506C0.0129243 5.36634 0 8.36891 0 12.023V18.6668H2.42598H4.85196V13.8978V9.12883H7.5354H10.2188L10.2297 13.8871L10.2406 18.6454L12.6775 18.6564L15.1143 18.6675L15.1035 12.0055L15.0926 5.34359L7.57503 5.33277C3.44039 5.32682 0.0445694 5.33486 0.0287253 5.3506ZM33.3483 5.35073C33.3325 5.36639 33.3197 8.36891 33.3197 12.023V18.6668H35.7242H38.1287V16.1638V13.6608L38.9968 13.6724L39.8648 13.6839L41.7911 16.1754L43.7174 18.6668H46.6767C48.3043 18.6668 49.6351 18.6524 49.6339 18.6347C49.6327 18.617 48.3473 17.0341 46.7774 15.1171C45.2074 13.2001 43.9283 11.6087 43.9349 11.5806C43.9414 11.5526 45.1444 10.1532 46.6082 8.47079C48.072 6.7884 49.2764 5.39171 49.2846 5.36707C49.295 5.33606 48.4445 5.3222 46.5347 5.3222H43.7698L41.8402 7.73522L39.9106 10.1483L39.0196 10.1518L38.1287 10.1553V7.73877V5.3222H35.7528C34.4461 5.3222 33.364 5.33504 33.3483 5.35073Z" fill="#404040"/>
<path d="M51.5338 5.30158C51.6873 5.28357 52.1704 5.25291 52.6072 5.23349C53.0441 5.21403 53.6528 5.20552 53.9598 5.21454C54.6474 5.23482 55.8223 5.30958 55.9246 5.3396C55.9955 5.36039 55.9995 5.48601 55.989 7.40104L55.9779 9.44036L53.6051 9.4514L51.2324 9.46248L51.2435 7.39839L51.2547 5.33434L51.5338 5.30158Z" fill="#404040"/>
<path d="M51.2332 16.7131C51.2332 15.6496 51.2463 14.7666 51.2622 14.7507C51.2782 14.7349 52.3457 14.7268 53.6345 14.7329L55.9779 14.744L55.989 16.6784L56.0002 18.6129L55.9031 18.634C55.6812 18.6822 54.8098 18.7476 54.0671 18.7717C53.3582 18.7947 52.0133 18.7437 51.4372 18.6719L51.2332 18.6465V16.7131Z" fill="#404040"/>
</svg>
