<svg width="40" height="50" viewBox="0 0 40 50" fill="none" xmlns="http://www.w3.org/2000/svg">
<rect x="3.24512" y="2.46082" width="36" height="47" stroke="#404040"/>
<rect x="1.28418" y="0.5" width="36" height="47" fill="white" stroke="#404040"/>
<path d="M7.15674 35.2941H31.6665" stroke="#404040"/>
<path d="M10.5879 38.2353H28.235" stroke="#404040"/>
<path d="M28.2842 19.5C28.2842 24.4706 24.2547 28.5 19.2842 28.5C14.3136 28.5 10.2842 24.4706 10.2842 19.5C10.2842 14.5294 14.3136 10.5 19.2842 10.5C24.2547 10.5 28.2842 14.5294 28.2842 19.5Z" stroke="#404040"/>
<path d="M11.2158 15.359C13.5311 16.8848 16.3039 17.7727 19.2841 17.7727C22.2643 17.7727 25.0371 16.8848 27.3524 15.359" stroke="#404040"/>
<path d="M15.4663 19.5001C15.4663 16.3153 16.5155 13.3771 18.2872 11.0102L17.4866 10.4109C15.5899 12.9449 14.4663 16.092 14.4663 19.5001H15.4663ZM18.3793 28.1116C16.5519 25.724 15.4663 22.7395 15.4663 19.5001H14.4663C14.4663 22.9668 15.6289 26.1635 17.5852 28.7194L18.3793 28.1116Z" fill="#404040"/>
<path d="M20.507 28.5181C22.4466 26.0295 23.6021 22.8997 23.6021 19.5C23.6021 16.079 22.432 12.9312 20.4702 10.4351" stroke="#404040"/>
<path d="M27.3884 23.6649C25.0658 22.1245 22.2796 21.2272 19.2838 21.2272C16.288 21.2272 13.5018 22.1245 11.1792 23.6649" stroke="#404040"/>
</svg>
