<svg width="75" height="50" viewBox="0 0 75 50" fill="none" xmlns="http://www.w3.org/2000/svg">
<rect x="6.39209" y="0.5" width="61" height="41" stroke="#404040"/>
<rect x="3.39209" y="41.5" width="67" height="3" stroke="#404040"/>
<path d="M62.8921 5L51.8921 14.5" stroke="#404040"/>
<path d="M62.8921 10L56.8921 15" stroke="#404040"/>
<path d="M57.8921 4L51.8921 9" stroke="#404040"/>
<rect x="11.3921" y="17.5" width="20" height="32" fill="white" stroke="#404040"/>
<path d="M25.3632 29.6219C24.347 28.6213 22.9077 28 21.3921 28C18.3671 28 15.8921 30.475 15.8921 33.5C15.8921 36.525 18.3671 39 21.3921 39C24.4171 39 26.8921 36.525 26.8921 33.5C26.8921 33.1667 26.8921 33.5 26.8921 33" stroke="#404040" stroke-miterlimit="1.41421"/>
<path d="M18.8921 33.189L21.4832 35L26.8921 30.5" stroke="#404040"/>
<path d="M11.3921 46H30.8921" stroke="#404040"/>
<path d="M18.8921 20.5H23.8921" stroke="#404040"/>
</svg>
