<svg width="42" height="35" viewBox="0 0 42 35" fill="none" xmlns="http://www.w3.org/2000/svg">
<circle cx="20.5" cy="17.5" r="17" stroke="#404040"/>
<path d="M12.5 12.4773C12.5 10.8351 13.8362 9.5 15.4773 9.5C17.1184 9.5 18.4545 10.8351 18.4545 12.4773C18.4545 14.1195 17.1195 15.4545 15.4773 15.4545C13.835 15.4545 12.5 14.1195 12.5 12.4773Z" stroke="#404040"/>
<path d="M25.5224 25.5C23.8803 25.5 22.5452 24.1638 22.5452 22.5227C22.5452 20.8816 23.8803 19.5454 25.5224 19.5454C27.1647 19.5454 28.4997 20.8804 28.4997 22.5227C28.4997 24.1649 27.1647 25.5 25.5224 25.5Z" stroke="#404040"/>
<path d="M12.7727 25.6137L27.4545 9.3864" stroke="#404040"/>
</svg>
