<svg width="36" height="25" viewBox="0 0 36 25" fill="none" xmlns="http://www.w3.org/2000/svg">
<path d="M34.8333 1.05664H1V24.39H34.8333V1.05664Z" stroke="#404040" stroke-miterlimit="10"/>
<path d="M28.1148 1L29.1212 2.00632C29.5117 2.39685 30.1449 2.39685 30.5354 2.00632L31.4852 1.05646M34.8889 2.11723L34.5354 1.76368C34.1449 1.37316 33.5117 1.37316 33.1212 1.76368L31.707 3.1779C31.3164 3.56842 31.3164 4.20158 31.707 4.59211L33.1212 6.00632C33.5117 6.39685 34.1449 6.39685 34.5354 6.00632L34.8889 5.65277M34.8889 13.6528L34.5354 14.0063C34.1449 14.3968 33.5117 14.3968 33.1212 14.0063L31.707 12.5921C31.3164 12.2016 31.3164 11.5684 31.707 11.1779L33.1212 9.76368C33.5117 9.37316 34.1449 9.37316 34.5354 9.76368L34.8889 10.1172M34.8889 21.6528L34.5354 22.0063C34.1449 22.3968 33.5117 22.3968 33.1212 22.0063L31.707 20.5921C31.3164 20.2016 31.3164 19.5684 31.707 19.1779L33.1212 17.7637C33.5117 17.3732 34.1449 17.3732 34.5354 17.7637L34.8889 18.1172M27.4288 24.0566C27.3752 23.747 27.4679 23.417 27.707 23.1779L29.1212 21.7637C29.5117 21.3732 30.1449 21.3732 30.5354 21.7637L31.9496 23.1779C32.1887 23.417 32.2814 23.747 32.2277 24.0566M22.5354 10.0063L23.9496 8.59211C24.3401 8.20159 24.3401 7.56842 23.9496 7.17789L22.5354 5.76368C22.1449 5.37316 21.5117 5.37316 21.1212 5.76368L19.707 7.17789C19.3164 7.56842 19.3164 8.20159 19.707 8.59211L21.1212 10.0063C21.5117 10.3968 22.1449 10.3968 22.5354 10.0063ZM30.5354 18.0063L31.9496 16.5921C32.3401 16.2016 32.3401 15.5684 31.9496 15.1779L30.5354 13.7637C30.1449 13.3732 29.5117 13.3732 29.1212 13.7637L27.707 15.1779C27.3164 15.5684 27.3164 16.2016 27.707 16.5921L29.1212 18.0063C29.5117 18.3968 30.1449 18.3968 30.5354 18.0063ZM26.5354 14.0063L27.9496 12.5921C28.3401 12.2016 28.3401 11.5684 27.9496 11.1779L26.5354 9.76368C26.1449 9.37316 25.5117 9.37316 25.1212 9.76368L23.707 11.1779C23.3164 11.5684 23.3164 12.2016 23.707 12.5921L25.1212 14.0063C25.5117 14.3968 26.1449 14.3968 26.5354 14.0063ZM18.5354 14.0063L19.9496 12.5921C20.3401 12.2016 20.3401 11.5684 19.9496 11.1779L18.5354 9.76368C18.1449 9.37316 17.5117 9.37316 17.1212 9.76368L15.707 11.1779C15.3164 11.5684 15.3164 12.2016 15.707 12.5921L17.1212 14.0063C17.5117 14.3968 18.1449 14.3968 18.5354 14.0063ZM26.5354 22.0063L27.9496 20.5921C28.3401 20.2016 28.3401 19.5684 27.9496 19.1779L26.5354 17.7637C26.1449 17.3732 25.5117 17.3732 25.1212 17.7637L23.707 19.1779C23.3164 19.5684 23.3164 20.2016 23.707 20.5921L25.1212 22.0063C25.5117 22.3968 26.1449 22.3968 26.5354 22.0063ZM26.5354 6.00632L27.9496 4.59211C28.3401 4.20158 28.3401 3.56842 27.9496 3.1779L26.5354 1.76368C26.1449 1.37316 25.5117 1.37316 25.1212 1.76368L23.707 3.1779C23.3164 3.56842 23.3164 4.20158 23.707 4.59211L25.1212 6.00632C25.5117 6.39685 26.1449 6.39685 26.5354 6.00632ZM22.5354 18.0063L23.9496 16.5921C24.3401 16.2016 24.3401 15.5684 23.9496 15.1779L22.5354 13.7637C22.1449 13.3732 21.5117 13.3732 21.1212 13.7637L19.707 15.1779C19.3164 15.5684 19.3164 16.2016 19.707 16.5921L21.1212 18.0063C21.5117 18.3968 22.1449 18.3968 22.5354 18.0063ZM30.5354 10.0063L31.9496 8.59211C32.3401 8.20159 32.3401 7.56842 31.9496 7.17789L30.5354 5.76368C30.1449 5.37316 29.5117 5.37316 29.1212 5.76368L27.707 7.17789C27.3164 7.56842 27.3164 8.20159 27.707 8.59211L29.1212 10.0063C29.5117 10.3968 30.1449 10.3968 30.5354 10.0063Z" stroke="#404040" stroke-linejoin="round"/>
</svg>
