<svg width="36" height="25" viewBox="0 0 36 25" fill="none" xmlns="http://www.w3.org/2000/svg">
<path d="M34.8333 1H1V24.3333H34.8333V1Z" stroke="#404040" stroke-miterlimit="10"/>
<path d="M2.86868 16.5379V16.6692H3H8.44H8.57132V16.5379V15.9363V15.805H8.44H3.79692V12.4068H7.2624H7.39372V12.2755V11.6739V11.5426H7.2624H3.79692V8.82284H8.2864H8.41772V8.69151V8.08991V7.95859H8.2864H3H2.86868V8.08991V16.5379ZM10.0812 16.5379V16.6692H10.2125H10.8781H11.0094V16.5379V12.8804H13.0797C13.9007 12.8804 14.5749 12.6251 15.0449 12.1823C15.5155 11.7391 15.771 11.1176 15.771 10.4067C15.771 9.70791 15.515 9.09289 15.0446 8.65318C14.5747 8.2139 13.9007 7.95859 13.0797 7.95859H10.2125H10.0812V8.08991V16.5379ZM23.8247 7.83059H23.7606L23.7212 7.88114L18.2344 14.9145V8.08991V7.95859H18.1031H17.4375H17.3062V8.08991V16.6659V16.7972H17.4375H17.6935H17.7575L17.797 16.7468L23.2966 9.71269V16.5379V16.6692H23.4279H24.0935H24.2248V16.5379V7.96191V7.83059H24.0935H23.8247ZM26.4687 16.5379V16.6692H26.6H27.2656H27.3969V16.5379V8.82284H32.2031V16.5379V16.6692H32.3344H33H33.1313V16.5379V8.08991V7.95859H33H26.6H26.4687V8.08991V16.5379ZM11.0094 12.0162V8.82284H13.0541C13.637 8.82284 14.0754 8.99119 14.3671 9.26695C14.6582 9.54211 14.8172 9.9373 14.8172 10.4195C14.8172 10.9017 14.6582 11.2969 14.3671 11.5721C14.0754 11.8478 13.637 12.0162 13.0541 12.0162H11.0094Z" fill="#404040" stroke="#404040" stroke-width="0.262648"/>
</svg>
