<svg width="36" height="25" viewBox="0 0 36 25" fill="none" xmlns="http://www.w3.org/2000/svg">
<path d="M34.8333 1H1V24.3333H34.8333V1Z" stroke="#404040" stroke-miterlimit="10"/>
<path d="M19.259 10.5725L18.7899 10.7454C18.8498 10.908 18.9895 11.0279 19.1593 11.0625C19.329 11.097 19.5046 11.0413 19.6232 10.9151L19.259 10.5725ZM17.2177 5.03277L17.6869 4.85989C17.6144 4.66334 17.4272 4.53277 17.2177 4.53277V5.03277ZM11.3854 5.03277V4.53277C11.2105 4.53277 11.0484 4.62409 10.9578 4.7736C10.8671 4.9231 10.8612 5.10909 10.9421 5.26408L11.3854 5.03277ZM19.8423 5.61503L19.5999 5.17769C19.483 5.24249 19.3968 5.35143 19.3608 5.48018C19.3247 5.60892 19.3417 5.74675 19.408 5.86287L19.8423 5.61503ZM20.4935 13.0415L20.0463 13.265L20.4934 14.1595L20.9407 13.9359L20.4935 13.0415ZM16.2101 14.5824L16.6793 14.4095C16.6194 14.247 16.4796 14.127 16.3099 14.0925C16.1401 14.0579 15.9646 14.1137 15.8459 14.2399L16.2101 14.5824ZM18.2515 20.1222L17.7823 20.2951C17.8547 20.4916 18.042 20.6222 18.2515 20.6222V20.1222ZM24.0838 20.1222V20.6222C24.2572 20.6222 24.4183 20.5323 24.5093 20.3847C24.6004 20.2371 24.6085 20.0528 24.5307 19.8979L24.0838 20.1222ZM15.9185 19.5389L16.1609 19.9762C16.2778 19.9114 16.3639 19.8025 16.4 19.6737C16.4361 19.545 16.419 19.4071 16.3528 19.291L15.9185 19.5389ZM15.1083 12.1123L15.5556 11.8887L15.1084 10.9943L14.6612 11.2178L15.1083 12.1123ZM19.7282 10.3996L17.6869 4.85989L16.7485 5.20565L18.7899 10.7454L19.7282 10.3996ZM17.2177 4.53277H11.3854V5.53277H17.2177V4.53277ZM10.9421 5.26408L14.4415 11.9703L15.328 11.5077L11.8286 4.80146L10.9421 5.26408ZM19.6232 10.9151C20.4033 10.0857 20.9706 9.32088 21.1113 8.41056C21.2532 7.49196 20.9454 6.53913 20.2765 5.3672L19.408 5.86287C20.041 6.97192 20.2126 7.67793 20.123 8.25788C20.0321 8.84611 19.657 9.41956 18.8948 10.23L19.6232 10.9151ZM20.0846 6.05238C21.6271 5.1977 22.8658 5.03891 23.7253 5.25083C24.564 5.4576 25.095 6.02604 25.27 6.79374C25.6281 8.36472 24.4902 11.0436 20.4935 13.0415L20.9407 13.9359C25.1093 11.8521 26.7551 8.80936 26.245 6.5715C25.9859 5.4348 25.1699 4.57704 23.9647 4.2799C22.7804 3.98792 21.2786 4.24755 19.5999 5.17769L20.0846 6.05238ZM15.741 14.7553L17.7823 20.2951L18.7206 19.9493L16.6793 14.4095L15.741 14.7553ZM18.2515 20.6222H24.0838V19.6222H18.2515V20.6222ZM24.5307 19.8979L21.164 13.1915L20.2702 13.6402L23.6369 20.3465L24.5307 19.8979ZM15.8459 14.2399C15.0496 15.0866 14.5517 15.8644 14.4986 16.7916C14.4469 17.6964 14.8275 18.6359 15.4843 19.7867L16.3528 19.291C15.7078 18.1609 15.4631 17.442 15.497 16.8488C15.5297 16.278 15.8285 15.7181 16.5744 14.925L15.8459 14.2399ZM15.6762 19.1015C14.1353 19.9553 12.8856 20.1157 12.009 19.9026C11.1507 19.6941 10.6005 19.1199 10.409 18.3505C10.0192 16.7834 11.1131 14.1094 15.1083 12.1123L14.6612 11.2178C10.4912 13.3024 8.88086 16.3501 9.43862 18.5919C9.721 19.7269 10.5575 20.579 11.7729 20.8744C12.9699 21.1653 14.4806 20.9072 16.1609 19.9762L15.6762 19.1015Z" fill="#404040"/>
</svg>
