<svg width="36" height="25" viewBox="0 0 36 25" fill="none" xmlns="http://www.w3.org/2000/svg">
<path d="M34.8333 1H1V24.3333H34.8333V1Z" stroke="#404040" stroke-miterlimit="10"/>
<path d="M17.5108 20.2501H17.7608V20.0001V18.9051V18.6551H17.5108C16.2553 18.6551 15.23 18.2398 14.5174 17.48C13.8034 16.7185 13.3782 15.5843 13.3782 14.1008V8.08984V7.83984H13.1282H12H11.75V8.08984V14.0561C11.75 15.9706 12.3128 17.5232 13.3288 18.5991C14.3462 19.6764 15.7938 20.2501 17.5108 20.2501Z" fill="#404040" stroke="#404040" stroke-width="0.5"/>
<path d="M17.9999 20.2501H17.7499V20.0001V18.9051V18.6551H17.9999C19.2555 18.6551 20.2807 18.2398 20.9933 17.48C21.7074 16.7185 22.1325 15.5843 22.1325 14.1008V8.08984V7.83984H22.3825H23.5107H23.7607V8.08984V14.0561C23.7607 15.9706 23.1979 17.5232 22.1819 18.5991C21.1645 19.6764 19.7169 20.2501 17.9999 20.2501Z" fill="#404040" stroke="#404040" stroke-width="0.5"/>
<path d="M13.394 5V4.75H13.144H12H11.75V5V5.95989V6.20989H12H13.144H13.394V5.95989V5Z" fill="#404040" stroke="#404040" stroke-width="0.5"/>
<path d="M22.1167 5V4.75H22.3667H23.5107H23.7607V5V5.95989V6.20989H23.5107H22.3667H22.1167V5.95989V5Z" fill="#404040" stroke="#404040" stroke-width="0.5"/>
</svg>
