<svg width="36" height="25" viewBox="0 0 36 25" fill="none" xmlns="http://www.w3.org/2000/svg">
<path d="M34.8333 1H1V24.3333H34.8333V1Z" stroke="#404040" stroke-miterlimit="10"/>
<path d="M6 17.4452H7.07594V13.3349H10.9107V12.3355H7.07594V9.14018H11.697V8.15484H6V17.4452Z" fill="#404040"/>
<path d="M13.1097 13.7572C13.1097 16.1924 14.6133 17.6 16.7376 17.6C18.8205 17.6 20.3378 16.1924 20.3378 13.7572V8.15484H19.2619V13.8276C19.2619 15.6293 18.2273 16.5865 16.7376 16.5865C15.234 16.5865 14.1856 15.6293 14.1856 13.8276V8.15484H13.1097V13.7572Z" fill="#404040"/>
<path d="M28.9241 8.15484V15.1367L23.1305 8H22.7443V17.4452H23.8202V10.4774L29.6138 17.6H30V8.15484H28.9241Z" fill="#404040"/>
</svg>
