<svg width="30" height="30" viewBox="0 0 30 30" fill="none" xmlns="http://www.w3.org/2000/svg">
<path d="M21.2504 18.4393C23.1406 18.9314 24.3619 20.7621 24.0904 22.6964C23.8123 24.6772 21.9801 26.2684 19.875 25.7392C11.5577 23.6482 5.79651 16.0054 6.07616 7.43393C6.14696 5.26414 8.18148 3.94066 10.1626 4.21879C12.0966 4.49029 13.5203 6.16776 13.4739 8.12015L13.4554 8.89484C13.4211 10.3358 12.7299 11.682 11.579 12.5496L10.6068 13.2824C11.5954 15.855 13.2957 18.1029 15.4913 19.7611L16.4465 19.0411C17.6004 18.1713 19.0886 17.8764 20.4871 18.2405L21.2504 18.4393Z" stroke="#404040" stroke-width="1.5"/>
</svg>
