<svg width="35" height="32" viewBox="0 0 35 32" fill="none" xmlns="http://www.w3.org/2000/svg">
<path d="M10.6462 7C7.17925 7 5 10.0708 5 12.5472C5 17.9954 11.1415 23.0473 15.5 26.2171C19.8585 23.0473 26 17.9954 26 12.5472C26 10.0708 23.8208 7 20.3538 7C18.3726 7 16.6887 8.58495 15.5 10.0708C14.2123 8.58495 12.6274 7 10.6462 7Z" stroke="#989898" stroke-width="1.5" stroke-miterlimit="10"/>
<path d="M34.09 7.92004C34.09 11.8799 30.8799 15.0901 26.92 15.0901C22.9601 15.0901 19.75 11.8799 19.75 7.92004C19.75 3.96013 22.9601 0.75 26.92 0.75C30.8799 0.75 34.09 3.96013 34.09 7.92004Z" fill="white" stroke="#989898" stroke-width="1.5"/>
</svg>
