<svg width="20" height="20" viewBox="0 0 20 20" fill="none" xmlns="http://www.w3.org/2000/svg">
<g clip-path="url(#clip0)">
<path d="M8.76562 11.1645C9.47707 12.1185 10.2062 12.9155 10.8632 13.5456C10.953 13.5557 11.034 13.6443 11.2138 13.6645C11.2138 13.6645 11.3935 13.6848 11.582 13.6266C12.2464 13.3838 13.7622 12.0455 13.7622 12.0455C13.8698 11.8988 14.1658 11.6939 14.4354 11.7242C14.6151 11.7445 14.6961 11.8331 14.786 11.8432C15.8024 12.5138 16.8467 13.7435 16.8467 13.7435C17.2518 14.1863 17.8101 14.8847 18.1709 15.7197C18.2431 15.8866 18.3153 16.0536 18.2976 16.2105C18.2357 16.7595 17.6435 17.1694 16.8628 17.6374C15.9834 18.1737 15.4987 18.4367 14.7622 18.5126C14.0345 18.51 13.513 18.2923 13.1624 18.1734C10.7349 17.1054 9.07921 15.6479 8.74631 15.3721C8.08935 14.7421 7.18934 13.8463 6.226 12.7051C5.11831 11.23 4.35237 9.95219 3.91933 8.95022C3.91933 8.95022 2.89121 6.76916 2.635 4.19854C2.58051 3.87468 2.55254 3.31552 2.89284 2.71844C3.23314 2.12137 3.72663 1.77985 4.51621 1.23342C5.29695 0.765422 5.88914 0.3556 6.50929 0.504937C6.77002 0.613757 6.85104 0.702319 7.01307 0.879442C7.75988 1.51963 8.22829 2.20787 8.62453 2.72911C8.62453 2.72911 9.56134 4.10559 9.80583 5.16573C9.79699 5.24416 9.86916 5.41116 9.77046 5.47946C9.64524 5.78306 9.35799 5.90954 9.16944 5.96772C9.16944 5.96772 7.25737 6.78476 6.83605 7.29327C6.63866 7.42988 6.62982 7.50831 6.62982 7.50831C6.61213 7.66518 6.60329 7.74361 6.59445 7.82204C7.11735 8.83414 7.81112 9.94493 8.76562 11.1645Z" stroke="#404040" stroke-linecap="round" stroke-linejoin="round"/>
</g>
<defs>
<clipPath id="clip0">
<rect width="20" height="20" fill="white"/>
</clipPath>
</defs>
</svg>
