<svg width="38" height="31" viewBox="0 0 38 31" fill="none" xmlns="http://www.w3.org/2000/svg">
<path d="M29.5 7.5C31.9 7.5 34.9 7.5 37.3 7.5V29.4H1V7.5C3.2 7.5 6.3 7.5 8.5 7.5" stroke="#404040" stroke-miterlimit="10" stroke-linecap="round" stroke-linejoin="round"/>
<path d="M12.5 1.5C16.8 1.5 21.2 1.5 25.5 1.5" stroke="#404040" stroke-miterlimit="10" stroke-linecap="round" stroke-linejoin="round"/>
<path d="M12.5 1.5L8.5 7.5" stroke="#404040" stroke-miterlimit="10" stroke-linecap="round" stroke-linejoin="round"/>
<path d="M25.5 1.5L29.5 7.5" stroke="#404040" stroke-miterlimit="10" stroke-linecap="round" stroke-linejoin="round"/>
<path d="M19 25.5C23.1421 25.5 26.5 22.1421 26.5 18C26.5 13.8579 23.1421 10.5 19 10.5C14.8579 10.5 11.5 13.8579 11.5 18C11.5 22.1421 14.8579 25.5 19 25.5Z" stroke="#404040" stroke-miterlimit="10" stroke-linecap="round"/>
<path d="M18.9974 13.5V22.5M14.5 18.001H23.5" stroke="#404040"/>
<path d="M5 11.7002H8.4" stroke="#404040" stroke-miterlimit="10" stroke-linejoin="round"/>
</svg>
