<svg width="314" height="138" viewBox="0 0 314 138" fill="none" xmlns="http://www.w3.org/2000/svg">
<path d="M46.5464 137C58.3369 137 67.9571 127.408 67.9571 115.647C67.9571 103.89 58.3369 94.2981 46.5464 94.2981C34.751 94.2981 25.1357 103.89 25.1357 115.647C25.1357 127.408 34.751 137 46.5464 137Z" stroke="#989898" stroke-miterlimit="10"/>
<path d="M46.9349 128.458C54.2261 128.458 60.1706 122.526 60.1706 115.257C60.1706 107.987 54.2261 102.06 46.9349 102.06C39.6437 102.06 33.6992 107.987 33.6992 115.257C33.6992 122.526 39.6437 128.458 46.9349 128.458Z" stroke="#989898" stroke-miterlimit="10"/>
<path d="M46.9329 125.351C52.5053 125.351 57.0543 120.994 57.0543 115.644C57.0543 110.299 52.5053 105.941 46.9329 105.941C41.3606 105.941 36.8115 110.299 36.8115 115.644C36.8115 120.992 41.3606 125.351 46.9329 125.351Z" stroke="#989898" stroke-miterlimit="10"/>
<path d="M21.6574 120.694L5.52965 117.081C5.52965 117.081 1.51061 114.668 1.02717 109.046C0.543721 103.42 6.49654 77.3885 20.1748 70.3186C33.8483 63.2486 50.424 60.3563 54.124 57.7822C57.8272 55.213 99.339 30.3058 99.339 30.3058C99.339 30.3058 105.455 26.1249 119.292 25.4822C133.13 24.8395 262.98 25.4822 262.98 25.4822C262.98 25.4822 268.614 24.9985 270.703 29.0172C272.796 33.0342 284.54 64.0504 284.54 64.0504C284.54 64.0504 285.507 65.977 285.183 69.994C284.864 74.011 284.381 85.7407 284.381 85.7407C284.381 85.7407 283.897 86.8655 285.826 91.5252C287.76 96.1849 289.849 101.328 289.849 101.328V110.648C289.849 110.648 290.013 114.188 285.183 114.665C282.474 114.938 271.022 115.817 261.511 116.537C261.524 116.209 261.528 115.881 261.528 115.549C261.528 101.041 249.752 89.2789 235.224 89.2789C220.692 89.2789 208.915 101.041 208.915 115.549C208.915 116.445 208.955 117.329 209.047 118.205H72.0082C72.1001 117.331 72.1452 116.447 72.1452 115.549C72.1452 101.483 60.7294 90.0807 46.6434 90.0807C32.5575 90.0807 21.1385 101.483 21.1385 115.549C21.1385 117.313 21.3206 119.031 21.6574 120.694Z" stroke="#989898" stroke-miterlimit="10"/>
<path d="M234.964 136.995C246.753 136.995 256.372 127.404 256.372 115.642C256.372 103.885 246.753 94.2935 234.964 94.2935C223.17 94.2935 213.551 103.885 213.551 115.642C213.551 127.404 223.17 136.995 234.964 136.995Z" stroke="#989898" stroke-miterlimit="10"/>
<path d="M235.352 128.458C242.642 128.458 248.586 122.526 248.586 115.257C248.586 107.987 242.642 102.06 235.352 102.06C228.062 102.06 222.114 107.987 222.114 115.257C222.114 122.526 228.062 128.458 235.352 128.458Z" stroke="#989898" stroke-miterlimit="10"/>
<path d="M235.35 125.351C240.924 125.351 245.469 120.994 245.469 115.644C245.469 110.299 240.924 105.941 235.35 105.941C229.772 105.941 225.227 110.299 225.227 115.644C225.227 120.992 229.772 125.351 235.35 125.351Z" stroke="#989898" stroke-miterlimit="10"/>
<path d="M257.151 100.505L289.073 99.7289" stroke="#989898" stroke-miterlimit="10"/>
<path d="M281.361 54.7004H279.317C279.317 54.7004 274.343 67.9179 275.144 70.7252C275.944 73.5277 284.555 87.6197 284.555 87.6197" stroke="#989898" stroke-miterlimit="10"/>
<path d="M61.3537 59.0486C67.8192 54.1773 89.691 38.0334 100.653 34.2207C113.608 29.7145 125.918 29.8786 125.918 29.8786C125.918 29.8786 128.915 29.478 128.672 31.9668C128.429 34.462 127.134 48.9408 127.134 48.9408L121.707 57.1455C121.707 57.1455 120.33 58.0303 116.849 58.5129C113.829 58.9328 73.3082 62.3208 62.6432 63.2057C58.4761 63.5596 58.6221 61.1094 61.3537 59.0486Z" stroke="#989898" stroke-miterlimit="10"/>
<path d="M16.9282 76.9296C22.8294 72.8954 29.1908 71.0067 29.1908 71.0067L32.143 72.0745C32.143 72.0745 20.1135 89.7608 14.0584 92.6433C8.00324 95.5208 6.4502 95.8515 6.4502 95.8515C7.94261 87.9609 9.81278 81.7896 16.9282 76.9296Z" stroke="#989898" stroke-miterlimit="10"/>
<path d="M1 105.941H23.5785" stroke="#989898" stroke-miterlimit="10"/>
<path d="M133.354 25.1965V118.364" stroke="#989898" stroke-miterlimit="10"/>
<path d="M84.3086 61.6861V43.0525" stroke="#989898" stroke-miterlimit="10"/>
<rect x="254.692" y="77.8672" width="13.0142" height="9.24846" rx="2.5" stroke="#989898"/>
<path d="M148.387 44.2578C146.592 44.2578 145.382 45.3292 145.382 46.9166C145.382 48.1335 146.18 49.0991 147.443 49.4562L144.89 52.988H146.074L148.533 49.5885H150.275V52.988H151.312V44.2578H148.387ZM150.275 48.6494H148.387C147.217 48.6494 146.459 47.9748 146.459 46.9166C146.459 45.8716 147.217 45.1837 148.387 45.1837H150.275V48.6494Z" fill="#989898"/>
<path d="M162.686 51.0436C162.686 50.3028 162.22 49.7605 161.463 49.4959C161.888 49.2181 162.141 48.7684 162.141 48.2525C162.141 47.2076 161.33 46.5462 160.053 46.5462H157.381V52.988H160.386C161.782 52.988 162.686 52.1943 162.686 51.0436ZM158.404 47.4589H160.066C160.771 47.4589 161.13 47.7367 161.13 48.3054C161.13 48.8478 160.771 49.1785 160.066 49.1785H158.404V47.4589ZM161.662 51.0436C161.662 51.6652 161.17 52.0885 160.319 52.0885H158.404V50.0779H160.319C161.17 50.0779 161.662 50.4483 161.662 51.0436Z" fill="#989898"/>
<path d="M170.33 50.0779C170.383 49.8134 170.41 49.5621 170.41 49.3107C170.41 47.6044 169.134 46.4007 167.458 46.4007C165.61 46.4007 164.148 47.9086 164.148 49.7737C164.148 51.6652 165.65 53.1335 167.578 53.1335C168.602 53.1335 169.493 52.7102 170.171 52.0092L169.572 51.3213C168.987 51.9033 168.323 52.1943 167.591 52.1943C166.315 52.1943 165.331 51.3478 165.211 50.0779H170.33ZM165.251 49.1785C165.477 48.0673 166.355 47.3266 167.432 47.3266C168.509 47.3266 169.346 48.0277 169.36 49.1785H165.251Z" fill="#989898"/>
<path d="M176.441 51.1361C176.441 50.4086 176.042 49.8266 175.337 49.5488C175.856 49.2314 176.109 48.742 176.109 48.1599C176.109 47.0621 175.271 46.4007 173.981 46.4007C172.918 46.4007 172.12 46.8504 171.628 47.525L172.319 48.1335C172.745 47.6176 173.21 47.3398 173.941 47.3398C174.686 47.3398 175.098 47.6838 175.098 48.2261C175.098 48.7949 174.713 49.1256 173.968 49.1256H173.277V50.025H173.981C174.885 50.025 175.391 50.4483 175.391 51.07C175.391 51.7446 174.885 52.1943 173.981 52.1943C173.184 52.1943 172.638 51.8637 172.2 51.2816L171.508 51.8901C172.093 52.6838 172.931 53.1335 173.995 53.1335C175.47 53.1335 176.441 52.3531 176.441 51.1361Z" fill="#989898"/>
<path d="M182.86 46.5462L180.719 51.6785L178.579 46.5462H177.475L180.161 52.7896L179.815 53.5568C179.483 54.3372 179.031 54.5885 178.353 54.5885C178.167 54.5885 177.901 54.5621 177.568 54.5224V55.3822C177.901 55.4748 178.233 55.5145 178.565 55.5145C179.563 55.5145 180.267 55.0118 180.759 53.8875L183.95 46.5462H182.86Z" fill="#989898"/>
<path d="M149.823 68.143C149.823 67.4155 149.424 66.8335 148.719 66.5557C149.238 66.2382 149.491 65.7488 149.491 65.1668C149.491 64.0689 148.653 63.4075 147.363 63.4075C146.3 63.4075 145.502 63.8573 145.01 64.5319L145.701 65.1403C146.127 64.6245 146.592 64.3467 147.323 64.3467C148.068 64.3467 148.48 64.6906 148.48 65.2329C148.48 65.8017 148.095 66.1324 147.35 66.1324H146.659V67.0319H147.363C148.267 67.0319 148.773 67.4552 148.773 68.0769C148.773 68.7515 148.267 69.2012 147.363 69.2012C146.566 69.2012 146.02 68.8705 145.582 68.2885L144.89 68.897C145.475 69.6906 146.313 70.1404 147.377 70.1404C148.852 70.1404 149.823 69.3599 149.823 68.143Z" fill="#989898"/>
<path d="M156.495 66.0266C156.495 64.3335 155.497 63.4075 153.968 63.4075C152.891 63.4075 151.921 63.8705 151.336 64.8229L152.014 65.3784C152.546 64.6906 153.117 64.3467 153.902 64.3467C154.873 64.3467 155.471 64.9155 155.471 65.9737V66.5292H153.423C152.027 66.5292 151.096 67.2303 151.096 68.3282C151.096 69.4393 152.027 70.1404 153.357 70.1404C154.301 70.1404 155.059 69.7964 155.537 69.1615V69.9949H156.495V66.0266ZM155.471 67.5213C155.471 68.5134 154.553 69.2938 153.49 69.2938C152.732 69.2938 152.147 68.9234 152.147 68.2753C152.147 67.68 152.639 67.3626 153.543 67.3626H155.471V67.5213Z" fill="#989898"/>
<path d="M158.666 69.9949H159.69V65.643L161.897 68.2621H162.296L164.503 65.643V69.9949H165.527V63.4075H165.168L162.11 67.0319L159.038 63.4075H158.666V69.9949Z" fill="#989898"/>
<path d="M173.498 67.0848C173.552 66.8202 173.578 66.5689 173.578 66.3176C173.578 64.6112 172.302 63.4075 170.627 63.4075C168.778 63.4075 167.316 64.9155 167.316 66.7806C167.316 68.6721 168.818 70.1404 170.746 70.1404C171.77 70.1404 172.661 69.7171 173.339 69.016L172.741 68.3282C172.156 68.9102 171.491 69.2012 170.759 69.2012C169.483 69.2012 168.499 68.3546 168.38 67.0848H173.498ZM168.419 66.1853C168.645 65.0742 169.523 64.3335 170.6 64.3335C171.677 64.3335 172.515 65.0345 172.528 66.1853H168.419Z" fill="#989898"/>
<path d="M179.113 63.553V66.5557C178.728 66.7277 178.143 66.8335 177.677 66.8335C176.521 66.8335 175.935 66.2779 175.935 65.18V63.553H174.912V65.2329C174.912 66.8599 175.922 67.7462 177.478 67.7462C178.156 67.7462 178.701 67.6536 179.113 67.4552V69.9949H180.137V63.553H179.113Z" fill="#989898"/>
<path d="M187.255 66.0266C187.255 64.3335 186.257 63.4075 184.728 63.4075C183.651 63.4075 182.681 63.8705 182.096 64.8229L182.774 65.3784C183.306 64.6906 183.877 64.3467 184.662 64.3467C185.633 64.3467 186.231 64.9155 186.231 65.9737V66.5292H184.183C182.787 66.5292 181.856 67.2303 181.856 68.3282C181.856 69.4393 182.787 70.1404 184.117 70.1404C185.061 70.1404 185.819 69.7964 186.297 69.1615V69.9949H187.255V66.0266ZM186.231 67.5213C186.231 68.5134 185.313 69.2938 184.25 69.2938C183.492 69.2938 182.907 68.9234 182.907 68.2753C182.907 67.68 183.399 67.3626 184.303 67.3626H186.231V67.5213Z" fill="#989898"/>
<path d="M190.6 69.9949H191.61V64.4657H193.791V63.553H188.419V64.4657H190.6V69.9949Z" fill="#989898"/>
<path d="M200.908 67.0848C200.962 66.8202 200.988 66.5689 200.988 66.3176C200.988 64.6112 199.712 63.4075 198.037 63.4075C196.188 63.4075 194.726 64.9155 194.726 66.7806C194.726 68.6721 196.228 70.1404 198.156 70.1404C199.18 70.1404 200.071 69.7171 200.749 69.016L200.151 68.3282C199.566 68.9102 198.901 69.2012 198.17 69.2012C196.893 69.2012 195.909 68.3546 195.79 67.0848H200.908ZM195.829 66.1853C196.055 65.0742 196.933 64.3335 198.01 64.3335C199.087 64.3335 199.925 65.0345 199.938 66.1853H195.829Z" fill="#989898"/>
<path d="M203.292 63.553L203.252 65.2329C203.199 67.8785 202.893 69.1615 202.056 69.1615C201.989 69.1615 201.896 69.1483 201.79 69.1351V69.9949C201.896 70.0345 202.016 70.0478 202.136 70.0478C203.665 69.9949 204.103 68.6192 204.223 65.2594L204.25 64.4657H206.656V69.9949H207.68V63.553H203.292Z" fill="#989898"/>
<path d="M209.941 69.9949H212.508C213.983 69.9949 214.927 69.1483 214.927 67.8785C214.927 66.6086 213.983 65.7753 212.508 65.7753H210.965V63.553H209.941V69.9949ZM210.965 69.0954V66.6747H212.441C213.345 66.6747 213.877 67.1642 213.877 67.8917C213.877 68.6192 213.359 69.0954 212.454 69.0954H210.965Z" fill="#989898"/>
<path d="M216.719 69.9949H217.743V67.0187H220.921V69.9949H221.945V63.553H220.921V66.1192H217.743V63.553H216.719V69.9949Z" fill="#989898"/>
<path d="M224.185 69.9949H226.751C228.227 69.9949 229.171 69.1615 229.171 67.8785C229.171 66.6086 228.201 65.7753 226.751 65.7753H225.209V63.553H224.185V69.9949ZM230.115 69.9949H231.139V63.553H230.115V69.9949ZM225.209 69.0954V66.6747H226.685C227.602 66.6747 228.121 67.1113 228.121 67.8917C228.121 68.6721 227.616 69.0954 226.698 69.0954H225.209Z" fill="#989898"/>
<path d="M238.364 63.4075L234.415 68.1165V63.553H233.391V70.1404H233.764L237.712 65.4446V69.9949H238.736V63.4075H238.364ZM234.202 60.3255C234.202 61.5821 235 62.4155 236.21 62.4155C237.433 62.4155 238.231 61.5821 238.231 60.3255V59.9155H237.367V60.2991C237.367 61.1589 236.955 61.6483 236.21 61.6483C235.479 61.6483 235.067 61.1589 235.067 60.2991V59.9155H234.202V60.3255Z" fill="#989898"/>
<path d="M150.448 86.1022V80.5599H145.981L145.941 82.3721C145.901 84.3165 145.688 85.4806 145.09 86.1022H144.358V88.8668H145.382V87.0017H150.475V88.8668H151.498V86.1022H150.448ZM146.167 86.1022C146.592 85.507 146.871 84.1843 146.911 82.3853L146.951 81.4726H149.424V86.1022H146.167Z" fill="#989898"/>
<path d="M158.082 80.4144L154.133 85.1234V80.5599H153.109V87.1472H153.481L157.43 82.4514V87.0017H158.454V80.4144H158.082Z" fill="#989898"/>
<path d="M166.01 85.0573C166.01 84.3165 165.544 83.7742 164.787 83.5096C165.212 83.2319 165.465 82.7821 165.465 82.2663C165.465 81.2213 164.654 80.5599 163.377 80.5599H160.705V87.0017H163.71C165.106 87.0017 166.01 86.2081 166.01 85.0573ZM161.728 81.4726H163.39C164.095 81.4726 164.454 81.7504 164.454 82.3192C164.454 82.8615 164.095 83.1922 163.39 83.1922H161.728V81.4726ZM164.986 85.0573C164.986 85.679 164.494 86.1022 163.643 86.1022H161.728V84.0917H163.643C164.494 84.0917 164.986 84.462 164.986 85.0573Z" fill="#989898"/>
<path d="M172.79 83.0335C172.79 81.3403 171.793 80.4144 170.264 80.4144C169.187 80.4144 168.216 80.8774 167.631 81.8297L168.309 82.3853C168.841 81.6975 169.413 81.3536 170.197 81.3536C171.168 81.3536 171.766 81.9223 171.766 82.9805V83.5361H169.719C168.323 83.5361 167.392 84.2372 167.392 85.3351C167.392 86.4462 168.323 87.1472 169.652 87.1472C170.596 87.1472 171.354 86.8033 171.833 86.1684V87.0017H172.79V83.0335ZM171.766 84.5282C171.766 85.5202 170.849 86.3007 169.785 86.3007C169.027 86.3007 168.442 85.9303 168.442 85.2821C168.442 84.6869 168.934 84.3694 169.838 84.3694H171.766V84.5282Z" fill="#989898"/>
<path d="M174.962 87.0017H175.985V84.0255H179.163V87.0017H180.187V80.5599H179.163V83.126H175.985V80.5599H174.962V87.0017Z" fill="#989898"/>
<path d="M182.321 86.3139C182.321 86.7901 182.693 87.1472 183.159 87.1472C183.624 87.1472 183.996 86.7901 183.996 86.3139C183.996 85.8377 183.624 85.4806 183.159 85.4806C182.693 85.4806 182.321 85.8377 182.321 86.3139Z" fill="#989898"/>
<path d="M192.762 83.7742C192.762 81.8827 191.406 80.4144 189.558 80.4144C188.547 80.4144 187.603 80.8509 187.111 81.5917V80.5599H186.154V89.3827H187.178V86.0758C187.71 86.7504 188.601 87.1472 189.558 87.1472C191.379 87.1472 192.762 85.6657 192.762 83.7742ZM191.712 83.7874C191.712 85.1763 190.728 86.2081 189.412 86.2081C188.215 86.2081 187.165 85.4144 187.165 83.7742C187.165 82.1472 188.255 81.3536 189.412 81.3536C190.728 81.3536 191.712 82.3985 191.712 83.7874Z" fill="#989898"/>
<path d="M198.87 80.5599L196.729 85.6922L194.588 80.5599H193.485L196.171 86.8033L195.825 87.5705C195.493 88.3509 195.04 88.6023 194.362 88.6023C194.176 88.6023 193.91 88.5758 193.578 88.5361V89.3959C193.91 89.4885 194.243 89.5282 194.575 89.5282C195.572 89.5282 196.277 89.0255 196.769 87.9012L199.96 80.5599H198.87Z" fill="#989898"/>
<path d="M313.5 35.7398C313.5 55.2008 297.679 70.9795 278.16 70.9795C258.641 70.9795 242.82 55.2008 242.82 35.7398C242.82 16.2787 258.641 0.5 278.16 0.5C297.679 0.5 313.5 16.2787 313.5 35.7398Z" fill="white" stroke="#989898"/>
<path d="M263.824 36.1992C263.824 38.4927 264.264 40.4002 265.143 41.8763C266.045 43.3524 267.364 44.079 269.145 44.079C270.925 44.079 272.244 43.3524 273.124 41.8763C274.003 40.4002 274.443 38.4927 274.443 36.1992C274.443 33.9056 274.003 32.0662 273.102 30.681C272.222 29.2958 270.903 28.5918 269.145 28.5918C267.386 28.5918 266.067 29.2958 265.165 30.681C264.264 32.0662 263.824 33.9056 263.824 36.1992ZM272.662 36.2219C272.662 40.0369 271.585 42.444 269.145 42.444C266.704 42.444 265.605 40.0369 265.605 36.2219C265.605 32.475 266.682 30.2268 269.145 30.2268C271.607 30.2268 272.662 32.475 272.662 36.2219Z" fill="#989898"/>
<path d="M284.391 43.8292H286.106V40.7863H291.932V39.2421H286.106V37.1302H289.272C290.613 37.1302 291.668 36.7442 292.481 35.9948C293.295 35.2227 293.691 34.2235 293.691 32.9973C293.691 31.7483 293.295 30.7491 292.481 29.9997C291.69 29.2276 290.613 28.8416 289.272 28.8416H284.391V35.586H282.588V37.1302H284.391V39.2421H282.588V40.7863H284.391V43.8292ZM286.106 35.586V30.3858H289.228C290.987 30.3858 292.02 31.4531 292.02 33.02C292.02 34.5641 290.987 35.586 289.228 35.586H286.106Z" fill="#989898"/>
</svg>
