<svg width="76" height="74" viewBox="0 0 76 74" fill="none" xmlns="http://www.w3.org/2000/svg">
<path d="M1.30078 6.19995L7.20078 1.19995" stroke="#404040" stroke-miterlimit="10" stroke-linecap="round" stroke-linejoin="round"/>
<path d="M12.2992 4.79995L7.19922 1.19995" stroke="#404040" stroke-miterlimit="10" stroke-linecap="round" stroke-linejoin="round"/>
<path d="M4.90078 11L1.30078 6.19995" stroke="#404040" stroke-miterlimit="10" stroke-linecap="round" stroke-linejoin="round"/>
<path d="M1.19922 16.5L4.89922 11" stroke="#404040" stroke-miterlimit="10" stroke-linecap="round" stroke-linejoin="round"/>
<path d="M4.99922 21.8L1.19922 16.5" stroke="#404040" stroke-miterlimit="10" stroke-linecap="round" stroke-linejoin="round"/>
<path d="M1.19922 27.4L4.99922 21.8" stroke="#404040" stroke-miterlimit="10" stroke-linecap="round" stroke-linejoin="round"/>
<path d="M4.99922 32.3999L1.19922 27.3999" stroke="#404040" stroke-miterlimit="10" stroke-linecap="round" stroke-linejoin="round"/>
<path d="M1.39844 37.6999L4.99844 32.3999" stroke="#404040" stroke-miterlimit="10" stroke-linecap="round" stroke-linejoin="round"/>
<path d="M4.99844 43.2L1.39844 37.7" stroke="#404040" stroke-miterlimit="10" stroke-linecap="round" stroke-linejoin="round"/>
<path d="M1.30078 48.3999L5.00078 43.2" stroke="#404040" stroke-miterlimit="10" stroke-linecap="round" stroke-linejoin="round"/>
<path d="M5.10078 53.8999L1.30078 48.3999" stroke="#404040" stroke-miterlimit="10" stroke-linecap="round" stroke-linejoin="round"/>
<path d="M1 59.7999C2.4 57.7999 3.7 55.7999 5.1 53.8999" stroke="#404040" stroke-miterlimit="10" stroke-linecap="round" stroke-linejoin="round"/>
<path d="M5.3 63.9C3.9 62.5 2.5 61.2 1 59.8" stroke="#404040" stroke-miterlimit="10" stroke-linecap="round" stroke-linejoin="round"/>
<path d="M9.79922 60C8.29922 61.3 6.79922 62.6 5.19922 63.9" stroke="#404040" stroke-miterlimit="10" stroke-linecap="round" stroke-linejoin="round"/>
<path d="M15.6008 63.9L9.80078 60" stroke="#404040" stroke-miterlimit="10" stroke-linecap="round" stroke-linejoin="round"/>
<path d="M20.6016 60.1001L15.6016 63.9001" stroke="#404040" stroke-miterlimit="10" stroke-linecap="round" stroke-linejoin="round"/>
<path d="M26.3016 63.8001L20.6016 60.1001" stroke="#404040" stroke-miterlimit="10" stroke-linecap="round" stroke-linejoin="round"/>
<path d="M31.4008 60L26.3008 63.8" stroke="#404040" stroke-miterlimit="10" stroke-linecap="round" stroke-linejoin="round"/>
<path d="M36.9984 64L31.3984 60" stroke="#404040" stroke-miterlimit="10" stroke-linecap="round" stroke-linejoin="round"/>
<path d="M42.1 60.3L37 64" stroke="#404040" stroke-miterlimit="10" stroke-linecap="round" stroke-linejoin="round"/>
<path d="M47.4016 63.8L42.1016 60.3" stroke="#404040" stroke-miterlimit="10" stroke-linecap="round" stroke-linejoin="round"/>
<path d="M52.6984 60.2L47.3984 63.7999" stroke="#404040" stroke-miterlimit="10" stroke-linecap="round" stroke-linejoin="round"/>
<path d="M57.9992 63.7L52.6992 60.2" stroke="#404040" stroke-miterlimit="10" stroke-linecap="round" stroke-linejoin="round"/>
<path d="M63.8 59.3L58 63.7001" stroke="#404040" stroke-miterlimit="10" stroke-linecap="round" stroke-linejoin="round"/>
<path d="M60.1992 54.1001L63.7992 59.3001" stroke="#404040" stroke-miterlimit="10" stroke-linecap="round" stroke-linejoin="round"/>
<path d="M63.7992 48.5L60.1992 54.1" stroke="#404040" stroke-miterlimit="10" stroke-linecap="round" stroke-linejoin="round"/>
<path d="M60.1992 43.3L63.7992 48.5" stroke="#404040" stroke-miterlimit="10" stroke-linecap="round" stroke-linejoin="round"/>
<path d="M63.6992 37.8999L60.1992 43.2999" stroke="#404040" stroke-miterlimit="10" stroke-linecap="round" stroke-linejoin="round"/>
<path d="M60.1992 32.5L63.8992 38" stroke="#404040" stroke-miterlimit="10" stroke-linecap="round" stroke-linejoin="round"/>
<path d="M63.8992 27L60.1992 32.5" stroke="#404040" stroke-miterlimit="10" stroke-linecap="round" stroke-linejoin="round"/>
<path d="M60 21.7L63.9 27" stroke="#404040" stroke-miterlimit="10" stroke-linecap="round" stroke-linejoin="round"/>
<path d="M63.8 16.5L60 21.7" stroke="#404040" stroke-miterlimit="10" stroke-linecap="round" stroke-linejoin="round"/>
<path d="M60 10.8L63.8 16.5" stroke="#404040" stroke-miterlimit="10" stroke-linecap="round" stroke-linejoin="round"/>
<path d="M63.8 5.80005L60 10.8" stroke="#404040" stroke-miterlimit="10" stroke-linecap="round" stroke-linejoin="round"/>
<path d="M60.5 1.1001L63.8 5.8001" stroke="#404040" stroke-miterlimit="10" stroke-linecap="round" stroke-linejoin="round"/>
<path d="M55.1992 4.9001L60.4992 1.1001" stroke="#404040" stroke-miterlimit="10" stroke-linecap="round" stroke-linejoin="round"/>
<path d="M49.8984 1.19995L55.1984 4.89995" stroke="#404040" stroke-miterlimit="10" stroke-linecap="round" stroke-linejoin="round"/>
<path d="M44.5 4.79995L49.9 1.19995" stroke="#404040" stroke-miterlimit="10" stroke-linecap="round" stroke-linejoin="round"/>
<path d="M39.1016 1L44.5016 4.8" stroke="#404040" stroke-miterlimit="10" stroke-linecap="round" stroke-linejoin="round"/>
<path d="M33.8008 5L39.1008 1" stroke="#404040" stroke-miterlimit="10" stroke-linecap="round" stroke-linejoin="round"/>
<path d="M28.5 1.1001L33.8 5.0001" stroke="#404040" stroke-miterlimit="10" stroke-linecap="round" stroke-linejoin="round"/>
<path d="M23.1016 4.8001L28.5016 1.1001" stroke="#404040" stroke-miterlimit="10" stroke-linecap="round" stroke-linejoin="round"/>
<path d="M17.6992 1L23.0992 4.8" stroke="#404040" stroke-miterlimit="10" stroke-linecap="round" stroke-linejoin="round"/>
<path d="M12.3008 4.8L17.7008 1" stroke="#404040" stroke-miterlimit="10" stroke-linecap="round" stroke-linejoin="round"/>
<path d="M65.9008 14.2C64.2008 13 62.5008 11.9 60.8008 10.7" stroke="#404040" stroke-miterlimit="10" stroke-linecap="round" stroke-linejoin="round"/>
<path d="M71.3984 10.3999L65.8984 14.1999" stroke="#404040" stroke-miterlimit="10" stroke-linecap="round" stroke-linejoin="round"/>
<path d="M74.5984 15.3999L71.3984 10.3999" stroke="#404040" stroke-miterlimit="10" stroke-linecap="round" stroke-linejoin="round"/>
<path d="M71 20.2999L74.6 15.3999" stroke="#404040" stroke-miterlimit="10" stroke-linecap="round" stroke-linejoin="round"/>
<path d="M74.6 25.9L71 20.3" stroke="#404040" stroke-miterlimit="10" stroke-linecap="round" stroke-linejoin="round"/>
<path d="M70.8984 31.2999L74.5984 25.8999" stroke="#404040" stroke-miterlimit="10" stroke-linecap="round" stroke-linejoin="round"/>
<path d="M74.4984 36.5L70.8984 31.3" stroke="#404040" stroke-miterlimit="10" stroke-linecap="round" stroke-linejoin="round"/>
<path d="M71 41.9L74.5 36.5" stroke="#404040" stroke-miterlimit="10" stroke-linecap="round" stroke-linejoin="round"/>
<path d="M74.5 47.0999L71 41.8999" stroke="#404040" stroke-miterlimit="10" stroke-linecap="round" stroke-linejoin="round"/>
<path d="M70.8984 52.6001L74.4984 47.1001" stroke="#404040" stroke-miterlimit="10" stroke-linecap="round" stroke-linejoin="round"/>
<path d="M74.4984 58.0001L70.8984 52.6001" stroke="#404040" stroke-miterlimit="10" stroke-linecap="round" stroke-linejoin="round"/>
<path d="M70.6992 63.5L74.4992 58" stroke="#404040" stroke-miterlimit="10" stroke-linecap="round" stroke-linejoin="round"/>
<path d="M74.6992 68.7L70.6992 63.5" stroke="#404040" stroke-miterlimit="10" stroke-linecap="round" stroke-linejoin="round"/>
<path d="M68.8984 73.2999L74.6984 68.7" stroke="#404040" stroke-miterlimit="10" stroke-linecap="round" stroke-linejoin="round"/>
<path d="M63.3008 69.6001L68.9008 73.3001" stroke="#404040" stroke-miterlimit="10" stroke-linecap="round" stroke-linejoin="round"/>
<path d="M58 73.3001L63.3 69.6001" stroke="#404040" stroke-miterlimit="10" stroke-linecap="round" stroke-linejoin="round"/>
<path d="M52.8008 69.3999L58.0008 73.2999" stroke="#404040" stroke-miterlimit="10" stroke-linecap="round" stroke-linejoin="round"/>
<path d="M47.6992 73.3999L52.7992 69.3999" stroke="#404040" stroke-miterlimit="10" stroke-linecap="round" stroke-linejoin="round"/>
<path d="M42.1016 69.3999L47.7016 73.3999" stroke="#404040" stroke-miterlimit="10" stroke-linecap="round" stroke-linejoin="round"/>
<path d="M37 73.2999L42.1 69.3999" stroke="#404040" stroke-miterlimit="10" stroke-linecap="round" stroke-linejoin="round"/>
<path d="M31.3984 69.3999L36.9984 73.2999" stroke="#404040" stroke-miterlimit="10" stroke-linecap="round" stroke-linejoin="round"/>
<path d="M26.3008 73.0999L31.4008 69.3999" stroke="#404040" stroke-miterlimit="10" stroke-linecap="round" stroke-linejoin="round"/>
<path d="M20.6016 69.3C22.5016 70.5 24.4016 71.8 26.3016 73" stroke="#404040" stroke-miterlimit="10" stroke-linecap="round" stroke-linejoin="round"/>
<path d="M15.6016 73.2001L20.6016 69.3" stroke="#404040" stroke-miterlimit="10" stroke-linecap="round" stroke-linejoin="round"/>
<path d="M10.6992 69C12.2992 70.4 13.8992 71.8 15.5992 73.2" stroke="#404040" stroke-miterlimit="10" stroke-linecap="round" stroke-linejoin="round"/>
<path d="M15.4992 63.8999C13.8992 65.5999 12.2992 67.2999 10.6992 68.9999" stroke="#404040" stroke-miterlimit="10" stroke-linecap="round" stroke-linejoin="round"/>
<path d="M10.8789 15.2969H17.7475" stroke="#404040" stroke-miterlimit="10" stroke-linecap="round"/>
<path d="M23.2969 11.8V18.7062" stroke="#404040" stroke-miterlimit="10" stroke-linecap="round"/>
<path d="M28.5781 15.2969H35.5347" stroke="#404040" stroke-miterlimit="10" stroke-linecap="round"/>
<path d="M41.3477 11.8V18.7062" stroke="#404040" stroke-miterlimit="10" stroke-linecap="round"/>
<path d="M46.6289 15.2969H53.4975" stroke="#404040" stroke-miterlimit="10" stroke-linecap="round"/>
<path d="M14.4883 23.1646V30.0707" stroke="#404040" stroke-miterlimit="10" stroke-linecap="round"/>
<path d="M19.7734 26.6616H26.7301" stroke="#404040" stroke-miterlimit="10" stroke-linecap="round"/>
<path d="M32.5391 23.1646V30.0707" stroke="#404040" stroke-miterlimit="10" stroke-linecap="round"/>
<path d="M37.8242 26.6616H44.7808" stroke="#404040" stroke-miterlimit="10" stroke-linecap="round"/>
<path d="M50.418 23.1646V30.0707" stroke="#404040" stroke-miterlimit="10" stroke-linecap="round"/>
<path d="M10.8789 38.0261H17.7475" stroke="#404040" stroke-miterlimit="10" stroke-linecap="round"/>
<path d="M23.2969 34.5293V41.4355" stroke="#404040" stroke-miterlimit="10" stroke-linecap="round"/>
<path d="M28.5781 38.0261H35.5347" stroke="#404040" stroke-miterlimit="10" stroke-linecap="round"/>
<path d="M41.3477 34.5293V41.4355" stroke="#404040" stroke-miterlimit="10" stroke-linecap="round"/>
<path d="M46.6289 38.0261H53.4975" stroke="#404040" stroke-miterlimit="10" stroke-linecap="round"/>
<path d="M14.4883 45.8938V52.8" stroke="#404040" stroke-miterlimit="10" stroke-linecap="round"/>
<path d="M19.7734 49.3906H26.7301" stroke="#404040" stroke-miterlimit="10" stroke-linecap="round"/>
<path d="M32.5391 45.8938V52.8" stroke="#404040" stroke-miterlimit="10" stroke-linecap="round"/>
<path d="M37.8242 49.3906H44.7808" stroke="#404040" stroke-miterlimit="10" stroke-linecap="round"/>
<path d="M50.418 45.8938V52.8" stroke="#404040" stroke-miterlimit="10" stroke-linecap="round"/>
</svg>
