<svg width="84" height="66" viewBox="0 0 84 66" fill="none" xmlns="http://www.w3.org/2000/svg">
<path d="M77.668 65.1H5.66797C2.86797 65.1 0.667969 62.9 0.667969 60.1V6C0.667969 3.2 2.86797 1 5.66797 1H77.668C80.468 1 82.668 3.2 82.668 6V60.1C82.668 62.9 80.468 65.1 77.668 65.1Z" stroke="#404040" stroke-miterlimit="10" stroke-linecap="round" stroke-linejoin="round"/>
<path d="M0.667969 9.8999H82.668" stroke="#404040" stroke-miterlimit="10" stroke-linecap="round" stroke-linejoin="round"/>
<path d="M66.9688 6.19995C67.5521 6.19995 67.9688 5.78328 67.9688 5.19995C67.9688 4.61662 67.5521 4.19995 66.9688 4.19995C66.3854 4.19995 65.9688 4.61662 65.9688 5.19995C65.9688 5.78328 66.3854 6.19995 66.9688 6.19995Z" fill="#404040"/>
<path d="M71.9688 6.19995C72.5521 6.19995 72.9688 5.78328 72.9688 5.19995C72.9688 4.61662 72.5521 4.19995 71.9688 4.19995C71.3854 4.19995 70.9688 4.61662 70.9688 5.19995C70.9688 5.78328 71.3854 6.19995 71.9688 6.19995Z" fill="#404040"/>
<path d="M76.9688 6.19995C77.5521 6.19995 77.9688 5.78328 77.9688 5.19995C77.9688 4.61662 77.5521 4.19995 76.9688 4.19995C76.3854 4.19995 75.9688 4.61662 75.9688 5.19995C75.9688 5.78328 76.3854 6.19995 76.9688 6.19995Z" fill="#404040"/>
<path d="M36.5703 20.1001H50.4703" stroke="#404040" stroke-miterlimit="10" stroke-linecap="round" stroke-linejoin="round"/>
<path d="M27.3703 34.7999H9.77031C8.57031 34.7999 7.57031 33.7999 7.57031 32.5999V17.5999C7.57031 16.3999 8.57031 15.3999 9.77031 15.3999H27.3703C28.5703 15.3999 29.5703 16.3999 29.5703 17.5999V32.5999C29.5703 33.7999 28.5703 34.7999 27.3703 34.7999Z" stroke="#404040" stroke-miterlimit="10" stroke-linecap="round" stroke-linejoin="round"/>
<path d="M36.5703 27H71.5703" stroke="#404040" stroke-miterlimit="10" stroke-linecap="round" stroke-linejoin="round"/>
<path d="M36.5703 31.3999H71.5703" stroke="#404040" stroke-miterlimit="10" stroke-linecap="round" stroke-linejoin="round"/>
<path d="M27.3703 59.7999H9.77031C8.57031 59.7999 7.57031 58.7999 7.57031 57.5999V42.5999C7.57031 41.3999 8.57031 40.3999 9.77031 40.3999H27.3703C28.5703 40.3999 29.5703 41.3999 29.5703 42.5999V57.5999C29.5703 58.7999 28.5703 59.7999 27.3703 59.7999Z" stroke="#404040" stroke-miterlimit="10" stroke-linecap="round" stroke-linejoin="round"/>
<path d="M37.5703 44.1001H51.4703" stroke="#404040" stroke-miterlimit="10" stroke-linecap="round" stroke-linejoin="round"/>
<path d="M37.5703 51H48.3701" stroke="#404040" stroke-miterlimit="10" stroke-linecap="round" stroke-linejoin="round"/>
<path d="M37.5703 55.3999H48.3701" stroke="#404040" stroke-miterlimit="10" stroke-linecap="round" stroke-linejoin="round"/>
<path d="M67.8672 59.1001C73.9423 59.1001 78.8672 54.1752 78.8672 48.1001C78.8672 42.025 73.9423 37.1001 67.8672 37.1001C61.7921 37.1001 56.8672 42.025 56.8672 48.1001C56.8672 54.1752 61.7921 59.1001 67.8672 59.1001Z" stroke="#404040" stroke-miterlimit="10" stroke-linecap="round" stroke-linejoin="round"/>
<path d="M62.8672 47.6001L66.5672 50.9001" stroke="#404040" stroke-miterlimit="10" stroke-linecap="round" stroke-linejoin="round"/>
<path d="M73.4672 44.1001L66.8672 50.9001" stroke="#404040" stroke-miterlimit="10" stroke-linecap="round" stroke-linejoin="round"/>
</svg>
