<svg width="84" height="80" viewBox="0 0 84 80" fill="none" xmlns="http://www.w3.org/2000/svg">
<path d="M61.1328 10.425C66.9328 14.925 69.8328 20.825 69.8328 28.625V33.3251" stroke="#404040" stroke-miterlimit="10" stroke-linecap="round" stroke-linejoin="round"/>
<path d="M14.2344 33.4249V28.725C14.2344 21.425 17.5344 14.925 23.1344 10.325" stroke="#404040" stroke-miterlimit="10" stroke-linecap="round" stroke-linejoin="round"/>
<path d="M7.73203 56.225C4.23203 56.225 1.33203 52.2251 1.33203 47.3251C1.33203 42.4251 4.23203 38.425 7.73203 38.425" stroke="#404040" stroke-miterlimit="10" stroke-linecap="round" stroke-linejoin="round"/>
<path d="M27.5312 11.325C30.5312 9.02501 34.1312 7.42501 38.0312 6.82501C42.1312 6.22501 46.5312 6.62501 50.3312 7.92501C52.5312 8.72501 54.6313 9.82501 56.4313 11.125" stroke="#404040" stroke-miterlimit="10" stroke-linecap="round" stroke-linejoin="round"/>
<path d="M23.2344 7.02501C27.0344 3.82501 32.1344 2.02501 37.3344 1.32501C42.6344 0.625006 48.3344 1.02501 53.3344 2.82501C56.0344 3.72501 58.4344 5.02501 60.5344 6.72501" stroke="#404040" stroke-miterlimit="10" stroke-linecap="round" stroke-linejoin="round"/>
<path d="M27.7336 11.125C26.6336 12.125 24.4336 11.925 23.3336 10.825C22.3336 9.82495 22.2336 7.72495 23.4336 6.82495" stroke="#404040" stroke-miterlimit="10" stroke-linecap="round" stroke-linejoin="round"/>
<path d="M56.2344 11.0251C57.3344 12.0251 59.5344 11.8251 60.6344 10.8251C61.6344 9.8251 61.8344 7.7251 60.6344 6.7251" stroke="#404040" stroke-miterlimit="10" stroke-linecap="round" stroke-linejoin="round"/>
<path d="M48.5312 76.0251H60.1313C65.5313 76.0251 70.0313 72.1251 70.0313 67.3251V63.2251" stroke="#404040" stroke-miterlimit="10" stroke-linecap="round" stroke-linejoin="round"/>
<path d="M45.1336 79.225H38.2336C36.4336 79.225 34.9336 77.825 34.9336 75.925C34.9336 74.125 36.4336 72.625 38.2336 72.625H45.1336C46.9336 72.625 48.4336 74.025 48.4336 75.925C48.4336 77.825 46.9336 79.225 45.1336 79.225Z" stroke="#404040" stroke-miterlimit="10" stroke-linecap="round" stroke-linejoin="round"/>
<path d="M31.0312 35.625H52.8312C53.4312 35.625 53.8312 36.125 53.8312 36.625V58.525C53.8312 59.125 53.3312 59.525 52.8312 59.525H31.0312C30.4312 59.525 30.0312 59.025 30.0312 58.525V36.625C30.0312 36.025 30.4312 35.625 31.0312 35.625Z" stroke="#404040" stroke-linecap="round" stroke-linejoin="round"/>
<path d="M30.5312 41.325H53.3312" stroke="#404040" stroke-linecap="round" stroke-linejoin="round"/>
<path d="M40.5312 47.125H43.9313L41.3312 53.625H42.2313L44.9313 46.925V46.425H40.5312V47.125Z" fill="#404040"/>
<path d="M16.232 63.225H15.632C11.332 63.225 7.83203 59.725 7.83203 55.425V41.425C7.83203 37.125 11.332 33.625 15.632 33.625H16.232C20.532 33.625 24.032 37.125 24.032 41.425V55.325C24.032 59.725 20.532 63.225 16.232 63.225Z" stroke="#404040" stroke-miterlimit="10"/>
<path d="M76.832 38.325C80.332 38.325 83.132 42.3249 83.132 47.2249C83.132 52.1249 80.332 56.125 76.832 56.125" stroke="#404040" stroke-miterlimit="10" stroke-linecap="round" stroke-linejoin="round"/>
<path d="M68.3312 63.225H68.9312C73.2312 63.225 76.7313 59.725 76.7313 55.425V41.425C76.7313 37.125 73.2312 33.625 68.9312 33.625H68.3312C64.0312 33.625 60.5312 37.125 60.5312 41.425V55.325C60.5312 59.725 64.0312 63.225 68.3312 63.225Z" stroke="#404040" stroke-miterlimit="10"/>
</svg>
