<svg width="75" height="69" viewBox="0 0 75 69" fill="none" xmlns="http://www.w3.org/2000/svg">
<path d="M74.4 26.5632V64.2632C74.4 66.2632 72.4 67.7632 69.9 67.7632H5.5C3 67.7632 1 66.2632 1 64.2632V26.5632" stroke="#404040" stroke-miterlimit="10" stroke-linecap="round" stroke-linejoin="round"/>
<path d="M28.9984 40.6634L2.59842 28.2634C0.698423 27.3634 0.498423 24.7634 2.19842 23.5634L35.1984 1.46335C36.0984 0.863353 37.1984 0.863353 38.0984 1.36335L73.0984 22.8634C74.8984 23.9634 74.7984 26.6634 72.8984 27.5634L45.7984 40.8634" stroke="#404040" stroke-miterlimit="10" stroke-linecap="round" stroke-linejoin="round"/>
<path d="M45.6016 39.7634L47.9016 37.4634L44.7016 34.2634L47.9016 30.9634L44.7016 27.8634L47.9016 24.7634L41.2016 18.4634L37.9016 21.6634L34.6016 18.4634L31.5016 21.6634L28.4016 18.4634L25.2016 21.6634L22.2016 18.4634L15.6016 24.7634L18.8016 27.8634L15.6016 30.9634L18.8016 34.2634C18.4016 34.6634 18.1016 34.9634 17.7016 35.3634" stroke="#404040" stroke-miterlimit="10" stroke-linecap="round" stroke-linejoin="round"/>
<path d="M60.3002 33.7633L63.2002 30.3633L58.2002 24.8633L55.3002 27.6633L52.6002 24.8633L49.8002 27.6633L47.5 25.4999" stroke="#404040" stroke-miterlimit="10" stroke-linecap="round" stroke-linejoin="round"/>
<path d="M1.10156 59.4633L35.2016 36.6633C36.1016 36.0633 37.3016 36.0633 38.2016 36.5633L74.3016 58.7633" stroke="#404040" stroke-miterlimit="10" stroke-linecap="round" stroke-linejoin="round"/>
<path d="M30.8008 51.1633H44.6008" stroke="#404040" stroke-miterlimit="10" stroke-linecap="round" stroke-linejoin="round"/>
</svg>
