<svg width="1366" height="122" viewBox="0 0 1366 122" fill="none" xmlns="http://www.w3.org/2000/svg">
<line y1="121.068" x2="40" y2="121.068" stroke="#989898"/>
<line x1="40" y1="121.068" x2="643" y2="121.068" stroke="#989898"/>
<mask id="path-3-outside-1" maskUnits="userSpaceOnUse" x="642" y="0.0678711" width="685" height="122" fill="black">
<rect fill="white" x="642" y="0.0678711" width="685" height="122"/>
<path d="M819.379 24.2107C824.191 24.2107 828.144 25.7536 831.238 28.4964C834.16 31.4107 835.707 35.0107 835.707 39.4679C835.707 44.0964 834.16 47.8679 831.238 50.6107C828.144 53.525 824.191 54.8964 819.379 54.8964H791.192V24.2107H819.379Z"/>
<path d="M1150.88 97.925V24.2107H1173.91C1184.22 24.2107 1192.64 27.8107 1199.35 34.6679C1206.05 41.525 1209.49 50.4393 1209.49 61.0679C1209.49 71.8679 1206.05 80.7822 1199.35 87.6393C1192.47 94.4964 1184.05 97.925 1173.91 97.925H1150.88Z"/>
</mask>
<path d="M643 24.2107H642.5V24.7107H643V24.2107ZM683.218 24.2107H683.718V23.7107H683.218V24.2107ZM683.218 121.068V121.568H683.718V121.068H683.218ZM710.545 121.068H710.045V121.568H710.545V121.068ZM710.545 24.2107V23.7107H710.045V24.2107H710.545ZM750.763 24.2107V24.7107H751.263V24.2107H750.763ZM750.763 1.06787H751.263V0.567871H750.763V1.06787ZM643 1.06787V0.567871H642.5V1.06787H643ZM763.864 121.068V121.568H764.364V121.068H763.864ZM791.192 121.068H790.692V121.568H791.192V121.068ZM791.192 78.0393V77.5393H790.692V78.0393H791.192ZM825.051 82.4964L825.508 82.2946L825.501 82.278L825.492 82.262L825.051 82.4964ZM842.066 121.068V121.568H842.833L842.523 120.866L842.066 121.068ZM870.081 121.068L869.623 121.269L869.755 121.568H870.081V121.068ZM851.347 78.5536L850.887 78.751L850.889 78.7552L851.347 78.5536ZM844.128 69.4679L843.895 69.0257L843.189 69.3983L843.832 69.8708L844.128 69.4679ZM858.05 56.7822L858.474 57.0477L858.479 57.0379L858.05 56.7822ZM851.003 11.525L851.331 11.1473L851.327 11.1438L851.003 11.525ZM763.864 1.06787V0.567871H763.364V1.06787H763.864ZM883.201 121.068V121.568H883.701V121.068H883.201ZM975.667 121.068H975.167V121.568H975.667V121.068ZM975.667 97.925H976.167V97.425H975.667V97.925ZM910.528 97.925H910.028V98.425H910.528V97.925ZM910.528 71.6964V71.1964H910.028V71.6964H910.528ZM966.386 71.6964V72.1964H966.886V71.6964H966.386ZM966.386 49.2393H966.886V48.7393H966.386V49.2393ZM910.528 49.2393H910.028V49.7393H910.528V49.2393ZM910.528 24.2107V23.7107H910.028V24.2107H910.528ZM973.949 24.2107V24.7107H974.449V24.2107H973.949ZM973.949 1.06787H974.449V0.567871H973.949V1.06787ZM883.201 1.06787V0.567871H882.701V1.06787H883.201ZM992.131 121.068V121.568H992.631V121.068H992.131ZM1018.77 121.068H1018.27V121.568H1018.77V121.068ZM1018.77 48.5536L1019.14 48.2195L1018.27 47.2488V48.5536H1018.77ZM1083.91 121.068V121.568H1085.03L1084.28 120.734L1083.91 121.068ZM1102.64 121.068H1102.14V121.568H1102.64V121.068ZM1102.64 1.06787H1103.14V0.567871H1102.64V1.06787ZM1076 1.06787V0.567871H1075.5V1.06787H1076ZM1076 73.5822L1075.63 73.9182L1076.5 74.8768V73.5822H1076ZM1010.18 1.06787L1010.55 0.731801L1010.4 0.567871H1010.18V1.06787ZM992.131 1.06787V0.567871H991.631V1.06787H992.131ZM1123.55 121.068V121.568H1124.05V121.068H1123.55ZM1218.94 104.439L1219.28 104.806L1219.28 104.804L1218.94 104.439ZM1219.11 18.0393L1219.46 17.6801L1219.46 17.6775L1219.11 18.0393ZM1123.55 1.06787V0.567871H1123.05V1.06787H1123.55ZM1248.31 90.3822V89.8822H1247.99L1247.86 90.1722L1248.31 90.3822ZM1257.94 116.096L1258.22 115.682L1258.21 115.679L1257.94 116.096ZM1314.83 115.411L1314.54 115.005L1314.53 115.009L1314.83 115.411ZM1315.17 75.125L1315.43 74.6949L1315.42 74.6885L1315.17 75.125ZM1291.8 67.925L1291.9 67.4358L1291.85 67.425H1291.8V67.925ZM1288.36 67.2393L1288.48 66.7542L1288.46 66.7488L1288.44 66.7454L1288.36 67.2393ZM1277.19 64.6679L1277.37 64.2035L1277.35 64.1952L1277.33 64.1889L1277.19 64.6679ZM1273.58 62.7822L1273.23 63.1362V63.1362L1273.58 62.7822ZM1276.16 56.4393L1276.35 56.8992L1276.37 56.8935L1276.16 56.4393ZM1297.81 66.2107L1297.33 66.0892L1297.17 66.7107H1297.81V66.2107ZM1321.02 66.2107V66.7107H1321.34L1321.47 66.4181L1321.02 66.2107ZM1312.08 40.8393L1311.79 41.2493L1312.08 40.8393ZM1258.45 41.525L1258.15 41.1294L1258.14 41.1342L1258.45 41.525ZM1258.28 81.9822L1258.55 81.5599L1258.54 81.5531L1258.28 81.9822ZM1280.63 88.8393L1280.85 88.3919L1280.79 88.3607L1280.72 88.3478L1280.63 88.8393ZM1283.38 89.3536L1283.48 88.8648L1283.43 88.8536H1283.38V89.3536ZM1297.13 92.6107L1297.3 92.1424L1297.29 92.1375L1297.27 92.1334L1297.13 92.6107ZM1297.3 100.325L1297.12 99.8567L1297.3 100.325ZM1271.52 90.3822L1271.95 90.6307L1272.38 89.8822H1271.52V90.3822ZM1268.51 121.068V121.568L1268.66 120.59L1268.51 121.068ZM1303.54 121.068L1303.39 120.591L1303.54 121.568V121.068ZM643 24.7107H683.218V23.7107H643V24.7107ZM682.718 24.2107V121.068H683.718V24.2107H682.718ZM711.045 121.068V24.2107H710.045V121.068H711.045ZM710.545 24.7107H750.763V23.7107H710.545V24.7107ZM751.263 24.2107V1.06787H750.263V24.2107H751.263ZM750.763 0.567871H643V1.56787H750.763V0.567871ZM642.5 1.06787V24.2107H643.5V1.06787H642.5ZM791.692 121.068V78.0393H790.692V121.068H791.692ZM791.192 78.5393H817.144V77.5393H791.192V78.5393ZM817.144 78.5393C818.967 78.5393 820.467 78.9107 821.687 79.609C822.905 80.3061 823.874 81.3459 824.609 82.7309L825.492 82.262C824.68 80.7327 823.587 79.5439 822.184 78.7411C820.783 77.9394 819.103 77.5393 817.144 77.5393V78.5393ZM824.593 82.6982L841.608 121.27L842.523 120.866L825.508 82.2946L824.593 82.6982ZM870.538 120.866L851.804 78.352L850.889 78.7552L869.623 121.269L870.538 120.866ZM851.806 78.3562C850.225 74.6759 847.763 71.5187 844.424 69.065L843.832 69.8708C847.025 72.2171 849.375 75.2313 850.887 78.751L851.806 78.3562ZM844.362 69.91C850.275 66.7874 854.985 62.6153 858.473 57.0476L857.626 56.5167C854.24 61.9204 849.669 65.9769 843.895 69.0257L844.362 69.91ZM858.479 57.0379C861.793 51.4718 863.534 45.2115 863.534 38.0964H862.534C862.534 45.0385 860.838 51.121 857.62 56.5264L858.479 57.0379ZM863.534 38.0964C863.534 27.1522 859.347 18.0998 851.331 11.1473L850.675 11.9027C858.472 18.6645 862.534 27.4407 862.534 38.0964H863.534ZM851.327 11.1438C843.144 4.1974 832.538 0.567871 819.551 0.567871V1.56787C832.343 1.56787 842.707 5.13835 850.68 11.9062L851.327 11.1438ZM819.551 0.567871H763.864V1.56787H819.551V0.567871ZM763.364 1.06787V121.068H764.364V1.06787H763.364ZM976.167 121.068V97.925H975.167V121.068H976.167ZM975.667 97.425H910.528V98.425H975.667V97.425ZM911.028 97.925V71.6964H910.028V97.925H911.028ZM910.528 72.1964H966.386V71.1964H910.528V72.1964ZM966.886 71.6964V49.2393H965.886V71.6964H966.886ZM966.386 48.7393H910.528V49.7393H966.386V48.7393ZM911.028 49.2393V24.2107H910.028V49.2393H911.028ZM910.528 24.7107H973.949V23.7107H910.528V24.7107ZM974.449 24.2107V1.06787H973.449V24.2107H974.449ZM973.949 0.567871H883.201V1.56787H973.949V0.567871ZM882.701 1.06787V121.068H883.701V1.06787H882.701ZM1019.27 121.068V48.5536H1018.27V121.068H1019.27ZM1018.4 48.8877L1083.54 121.402L1084.28 120.734L1019.14 48.2195L1018.4 48.8877ZM1103.14 121.068V1.06787H1102.14V121.068H1103.14ZM1102.64 0.567871H1076V1.56787H1102.64V0.567871ZM1075.5 1.06787V73.5822H1076.5V1.06787H1075.5ZM1076.37 73.2461L1010.55 0.731801L1009.81 1.40394L1075.63 73.9182L1076.37 73.2461ZM1010.18 0.567871H992.131V1.56787H1010.18V0.567871ZM991.631 1.06787V121.068H992.631V1.06787H991.631ZM1173.91 121.568C1192.07 121.568 1207.15 116.044 1219.28 104.806L1218.6 104.072C1206.67 115.12 1191.85 120.568 1173.91 120.568V121.568ZM1219.28 104.804C1231.25 93.5584 1237.31 79.0225 1237.31 61.0679H1236.31C1236.31 78.7704 1230.35 93.0344 1218.6 104.075L1219.28 104.804ZM1237.31 61.0679C1237.31 43.4526 1231.25 29.0926 1219.46 17.6801L1218.76 18.3985C1230.35 29.6146 1236.31 43.7117 1236.31 61.0679H1237.31ZM1219.46 17.6775C1207.49 6.26387 1192.24 0.567871 1173.91 0.567871V1.56787C1192.02 1.56787 1207.01 7.18615 1218.77 18.4011L1219.46 17.6775ZM1173.91 0.567871H1123.55V1.56787H1173.91V0.567871ZM1123.05 1.06787V121.068H1124.05V1.06787H1123.05ZM1247.86 90.1722C1246.8 92.4674 1246.27 94.9391 1246.27 97.4107H1247.27C1247.27 95.0823 1247.77 92.7541 1248.77 90.5921L1247.86 90.1722ZM1246.27 97.4107C1246.27 105.152 1249.99 111.468 1257.66 116.514L1258.21 115.679C1250.76 110.782 1247.27 104.755 1247.27 97.4107H1246.27ZM1315.12 115.817C1322.64 110.412 1326.5 103.063 1326.5 93.9822H1325.5C1325.5 102.73 1321.8 109.781 1314.54 115.005L1315.12 115.817ZM1326.5 93.9822C1326.5 85.575 1322.8 79.0698 1315.43 74.6951L1314.92 75.5549C1321.99 79.7517 1325.5 85.9321 1325.5 93.9822H1326.5ZM1315.42 74.6885C1311.05 72.2483 1303.25 69.8363 1291.9 67.4358L1291.69 68.4142C1303.04 70.8137 1310.7 73.2018 1314.93 75.5615L1315.42 74.6885ZM1291.8 67.425C1291.42 67.425 1290.95 67.3495 1290.38 67.2226C1289.81 67.0959 1289.18 66.9284 1288.48 66.7542L1288.24 67.7244C1288.92 67.8931 1289.58 68.0684 1290.16 68.1989C1290.75 68.3291 1291.31 68.425 1291.8 68.425V67.425ZM1288.44 66.7454C1285.15 66.2277 1282.96 65.8905 1281.79 65.5584L1281.52 66.5202C1282.76 66.8738 1285.04 67.2224 1288.28 67.7332L1288.44 66.7454ZM1281.79 65.5584C1280.56 65.2063 1279.06 64.8766 1277.37 64.2035L1277 65.1323C1278.75 65.8306 1280.35 66.1866 1281.52 66.5202L1281.79 65.5584ZM1277.33 64.1889C1275.66 63.6882 1274.54 63.0349 1273.93 62.4281L1273.23 63.1362C1273.99 63.9008 1275.28 64.619 1277.05 65.1469L1277.33 64.1889ZM1273.93 62.4281C1273.64 62.1336 1273.47 61.8559 1273.37 61.5522C1273.26 61.2399 1273.22 60.8726 1273.22 60.3822H1272.22C1272.22 60.9203 1272.26 61.4101 1272.42 61.8692C1272.57 62.337 1272.83 62.745 1273.23 63.1362L1273.93 62.4281ZM1273.22 60.3822C1273.22 59.1236 1274.04 57.8884 1276.35 56.8991L1275.96 55.9795C1273.46 57.0473 1272.22 58.555 1272.22 60.3822H1273.22ZM1276.37 56.8935C1278.51 55.9074 1281.52 55.3964 1285.27 55.3964V54.3964C1281.45 54.3964 1278.27 54.914 1275.95 55.9851L1276.37 56.8935ZM1285.27 55.3964C1289.62 55.3964 1292.82 56.0373 1294.92 57.2573C1296.98 58.4538 1298 60.218 1298 62.6107H1299C1299 59.8606 1297.79 57.7676 1295.42 56.3927C1293.1 55.0413 1289.68 54.3964 1285.27 54.3964V55.3964ZM1298 62.6107C1298 63.5602 1297.68 64.6789 1297.33 66.0892L1298.3 66.3323C1298.63 64.9997 1299 63.7184 1299 62.6107H1298ZM1297.81 66.7107H1321.02V65.7107H1297.81V66.7107ZM1321.47 66.4181C1322.36 64.4643 1322.89 62.1647 1322.89 59.525H1321.89C1321.89 62.0282 1321.39 64.1857 1320.56 66.0034L1321.47 66.4181ZM1322.89 59.525C1322.89 51.8028 1319.36 45.3133 1312.36 40.4293L1311.79 41.2493C1318.55 45.9653 1321.89 52.1615 1321.89 59.525H1322.89ZM1312.36 40.4293C1305.39 35.5589 1296.35 32.9679 1285.61 32.9679V33.9679C1296.19 33.9679 1305.02 36.5197 1311.79 41.2493L1312.36 40.4293ZM1285.61 32.9679C1274.18 32.9679 1265.13 35.7319 1258.15 41.1294L1258.76 41.9206C1265.53 36.6896 1274.35 33.9679 1285.61 33.9679V32.9679ZM1258.14 41.1342C1251.15 46.7173 1247.64 54.0627 1247.64 63.2964H1248.64C1248.64 54.3587 1252.01 47.3041 1258.77 41.9158L1258.14 41.1342ZM1247.64 63.2964C1247.64 67.5617 1248.47 71.2897 1250.19 74.4838C1251.92 77.6798 1254.52 80.3138 1258.03 82.4112L1258.54 81.5531C1255.17 79.5362 1252.7 77.0274 1251.07 74.0091C1249.45 70.9889 1248.64 67.4311 1248.64 63.2964H1247.64ZM1258.01 82.4043C1261.88 84.8604 1269.53 87.2731 1280.53 89.3308L1280.72 88.3478C1269.72 86.2912 1262.24 83.9039 1258.55 81.56L1258.01 82.4043ZM1280.4 89.2867C1280.77 89.4723 1281.37 89.6822 1281.83 89.6822V88.6822C1281.6 88.6822 1281.16 88.5492 1280.85 88.3919L1280.4 89.2867ZM1281.83 89.6822C1281.95 89.6822 1282.1 89.7126 1282.39 89.7611C1282.66 89.8054 1282.99 89.8536 1283.38 89.8536V88.8536C1283.07 88.8536 1282.8 88.816 1282.56 88.7746C1282.33 88.7374 1282.05 88.6822 1281.83 88.6822V89.6822ZM1283.27 89.8423C1289.64 91.2159 1294.25 92.2392 1296.98 93.0881L1297.27 92.1334C1294.5 91.2679 1289.83 90.2342 1283.48 88.8648L1283.27 89.8423ZM1296.95 93.079C1298.3 93.585 1299.32 94.1177 1299.98 94.6844C1300.64 95.2441 1300.92 95.8019 1300.92 96.3821H1301.92C1301.92 95.4196 1301.43 94.6059 1300.63 93.9228C1299.83 93.2466 1298.7 92.665 1297.3 92.1424L1296.95 93.079ZM1300.92 96.3821C1300.92 97.0827 1300.65 97.684 1300.05 98.2455C1299.43 98.8225 1298.47 99.3516 1297.12 99.8567L1297.47 100.793C1298.87 100.27 1299.97 99.6846 1300.73 98.9759C1301.51 98.2517 1301.92 97.3959 1301.92 96.3821H1300.92ZM1297.12 99.8567C1294.45 100.856 1290.91 101.368 1286.47 101.368V102.368C1290.97 102.368 1294.65 101.851 1297.47 100.793L1297.12 99.8567ZM1286.47 101.368C1281.16 101.368 1277.31 100.725 1274.79 99.4704C1273.54 98.847 1272.64 98.0807 1272.05 97.1816C1271.46 96.285 1271.16 95.2262 1271.16 93.9822H1270.16C1270.16 95.3952 1270.5 96.6507 1271.21 97.731C1271.92 98.8086 1272.97 99.6815 1274.34 100.365C1277.07 101.725 1281.12 102.368 1286.47 102.368V101.368ZM1271.16 93.9822C1271.16 92.8329 1271.32 91.7287 1271.95 90.6307L1271.08 90.1336C1270.34 91.4356 1270.16 92.7315 1270.16 93.9822H1271.16ZM1271.52 89.8822H1248.31V90.8822H1271.52V89.8822ZM683.218 120.568H643V121.568H683.218V120.568ZM710.545 121.568H763.864V120.568H710.545V121.568ZM791.192 121.568H842.066V120.568H791.192V121.568ZM870.081 121.568H883.201V120.568H870.081V121.568ZM975.667 121.568H992.131V120.568H975.667V121.568ZM1018.77 121.568H1083.91V120.568H1018.77V121.568ZM1123.55 120.568H1102.64V121.568H1123.55V120.568ZM1257.66 116.511C1260.86 118.662 1264.43 120.334 1268.36 121.546L1268.66 120.59C1264.81 119.405 1261.33 117.773 1258.22 115.682L1257.66 116.511ZM1173.91 121.568H1268.51V120.568H1173.91V121.568ZM1303.69 121.545C1307.94 120.211 1311.76 118.311 1315.13 115.812L1314.53 115.009C1311.26 117.436 1307.54 119.287 1303.39 120.591L1303.69 121.545ZM1303.54 121.568H1326V120.568H1303.54V121.568ZM831.238 28.4964L831.944 27.7884L831.923 27.7677L831.901 27.7482L831.238 28.4964ZM831.238 50.6107L830.553 49.8816L830.552 49.8828L831.238 50.6107ZM791.192 54.8964H790.192V55.8964H791.192V54.8964ZM791.192 24.2107V23.2107H790.192V24.2107H791.192ZM1150.88 97.925H1149.88V98.925H1150.88V97.925ZM1150.88 24.2107V23.2107H1149.88V24.2107H1150.88ZM1199.35 34.6679L1200.06 33.9689L1199.35 34.6679ZM1199.35 87.6393L1200.05 88.3474L1200.06 88.3383L1199.35 87.6393ZM819.379 25.2107C823.96 25.2107 827.674 26.6729 830.574 29.2447L831.901 27.7482C828.615 24.8342 824.422 23.2107 819.379 23.2107V25.2107ZM830.532 29.2045C833.264 31.9293 834.707 35.2737 834.707 39.4679H836.707C836.707 34.7477 835.056 30.8922 831.944 27.7884L830.532 29.2045ZM834.707 39.4679C834.707 43.8578 833.248 47.3521 830.553 49.8816L831.922 51.3398C835.071 48.3837 836.707 44.3351 836.707 39.4679H834.707ZM830.552 49.8828C827.678 52.5902 823.987 53.8964 819.379 53.8964V55.8964C824.395 55.8964 828.61 54.4599 831.924 51.3386L830.552 49.8828ZM819.379 53.8964H791.192V55.8964H819.379V53.8964ZM792.192 54.8964V24.2107H790.192V54.8964H792.192ZM791.192 25.2107H819.379V23.2107H791.192V25.2107ZM1151.88 97.925V24.2107H1149.88V97.925H1151.88ZM1150.88 25.2107H1173.91V23.2107H1150.88V25.2107ZM1173.91 25.2107C1183.96 25.2107 1192.12 28.7072 1198.63 35.3669L1200.06 33.9689C1193.17 26.9142 1184.48 23.2107 1173.91 23.2107V25.2107ZM1198.63 35.3669C1205.13 42.0172 1208.49 50.6711 1208.49 61.0679H1210.49C1210.49 50.2075 1206.97 41.0329 1200.06 33.9689L1198.63 35.3669ZM1208.49 61.0679C1208.49 71.6385 1205.13 80.2916 1198.63 86.9403L1200.06 88.3383C1206.97 81.2727 1210.49 72.0973 1210.49 61.0679H1208.49ZM1198.64 86.9313C1191.96 93.5942 1183.8 96.925 1173.91 96.925V98.925C1184.3 98.925 1192.98 95.3987 1200.05 88.3473L1198.64 86.9313ZM1173.91 96.925H1150.88V98.925H1173.91V96.925Z" fill="#989898" mask="url(#path-3-outside-1)"/>
<line x1="1326" y1="121.068" x2="1366" y2="121.068" stroke="#989898"/>
</svg>
