<svg width="164" height="44" viewBox="0 0 164 44" fill="none" xmlns="http://www.w3.org/2000/svg">
<rect width="163" height="44" transform="translate(0.5)" fill="#F5F3F1"/>
<path fill-rule="evenodd" clip-rule="evenodd" d="M22.0541 0C19.3877 0.0545342 16.9323 1.10886 15.3881 2.85396L2.07538 18.0054C-0.0251251 20.3958 -0.0251251 23.6588 2.07538 26.0492L15.3977 41.2006C16.9419 42.9457 19.3973 44 22.0637 44H24.5V0H22.0541ZM16.0506 26.2253C18.4647 26.2253 20.4216 24.2684 20.4216 21.8544C20.4216 19.4403 18.4647 17.4834 16.0506 17.4834C13.6366 17.4834 11.6797 19.4403 11.6797 21.8544C11.6797 24.2684 13.6366 26.2253 16.0506 26.2253Z" fill="white"/>
<path d="M24.5 0H155.5C159.918 0 163.5 3.58172 163.5 8V36C163.5 40.4183 159.918 44 155.5 44H24.5V0Z" fill="white"/>
</svg>
