<svg width="30" height="30" viewBox="0 0 30 30" fill="none" xmlns="http://www.w3.org/2000/svg">
<g clip-path="url(#clip0)">
<path d="M15.0002 23.55C15.0002 23.55 19.7816 17.3555 20.3446 16.1377C20.9045 14.9267 21.3002 13.6747 21.3002 12.5352C21.3002 10.9158 20.6322 9.36619 19.449 8.22639C18.2663 7.08714 16.6657 6.44995 15.0002 6.44995C13.3346 6.44995 11.7341 7.08714 10.5514 8.22639C9.36819 9.36619 8.7002 10.9158 8.7002 12.5352C8.7002 13.6747 9.09594 14.9267 9.6558 16.1377C10.2188 17.3555 15.0002 23.55 15.0002 23.55ZM15.0002 15.1518C14.268 15.1518 13.5701 14.8714 13.0591 14.3791C12.5488 13.8875 12.2665 13.2258 12.2665 12.5408C12.2665 11.8558 12.5488 11.1941 13.0591 10.7025C13.5701 10.2102 14.268 9.92984 15.0002 9.92984C15.7324 9.92984 16.4303 10.2102 16.9413 10.7025C17.4516 11.1941 17.7338 11.8558 17.7338 12.5408C17.7338 13.2258 17.4516 13.8875 16.9413 14.3791C16.4303 14.8714 15.7324 15.1518 15.0002 15.1518Z" stroke="#989898" stroke-linecap="round" stroke-linejoin="round"/>
</g>
<rect x="0.5" y="0.5" width="29" height="29" rx="14.5" stroke="#989898"/>
<defs>
<clipPath id="clip0">
<rect width="18" height="18" fill="white" transform="translate(6 6)"/>
</clipPath>
</defs>
</svg>
