<svg width="31" height="30" viewBox="0 0 31 30" fill="none" xmlns="http://www.w3.org/2000/svg">
<path d="M1.02073 16.0526V21.6213C1.02073 22.8639 1.98114 23.8713 3.16588 23.8713H27.8352C29.0199 23.8713 29.9803 22.8639 29.9803 21.6213V16.0526M4.77422 17.2983V24M9.06453 17.2983V24M13.3548 17.2983V24M17.6452 17.2983V24M21.9355 17.2983V24M26.2258 17.2983V24M3.16536 9.91795L4.70719 9.18763C5.68742 8.72333 6.81062 8.72333 7.79085 9.18763C8.77108 9.65194 9.89428 9.65194 10.8745 9.18763C11.8547 8.72333 12.9779 8.72333 13.9582 9.18763C14.9384 9.65194 16.0616 9.65194 17.0418 9.18763C18.0221 8.72333 19.1453 8.72333 20.1255 9.18763C21.1057 9.65194 22.2289 9.65194 23.2092 9.18763C24.1894 8.72333 25.3126 8.72333 26.2928 9.18763L27.8346 9.91795M29.5273 14.0603L28.1698 13.2387C27.0497 12.5608 25.67 12.5608 24.5499 13.2387C23.4298 13.9167 22.05 13.9167 20.9299 13.2387C19.8098 12.5608 18.4301 12.5608 17.31 13.2387C16.1899 13.9167 14.8101 13.9167 13.69 13.2387C12.5699 12.5608 11.1902 12.5608 10.0701 13.2387C8.94998 13.9167 7.57022 13.9167 6.45013 13.2387C5.33003 12.5608 3.95027 12.5608 2.83018 13.2387L1.4727 14.0603M3.14734 17.6851H27.8527C29.3786 17.6851 30.4167 16.0611 29.8371 14.5805L27.2975 8.0931C26.8018 6.82682 25.626 6 24.3209 6H6.67908C5.37401 6 4.19819 6.82682 3.70249 8.0931L1.16295 14.5805C0.583351 16.0611 1.62138 17.6851 3.14734 17.6851Z" stroke="#404040"/>
</svg>
