<svg width="60" height="60" viewBox="0 0 60 60" fill="none" xmlns="http://www.w3.org/2000/svg">
<path d="M23.7397 32.5051C23.7397 31.7071 23.5017 31.0631 23.0257 30.5731C22.5497 30.0831 21.9757 29.7751 21.2897 29.6631L23.5297 26.6391V26.2331H17.7757V27.5911H21.2197L19.0637 30.4891V30.8951H20.0857C21.4437 30.8951 22.2137 31.4691 22.2137 32.5191C22.2137 33.5691 21.4297 34.2691 20.3237 34.2691C19.3717 34.2691 18.7137 33.7511 18.1537 32.8971L17.1177 33.6251C17.7337 34.8151 18.8677 35.6271 20.3657 35.6271C22.1857 35.6271 23.7397 34.3811 23.7397 32.5051Z" fill="#989898"/>
<path d="M31.5932 32.4351C31.5932 30.6851 30.1652 29.3411 28.5552 29.3411C28.4012 29.3411 28.2752 29.3551 28.1492 29.3831L30.3752 26.2331H28.6252L26.3152 29.4951C25.9932 29.9571 25.7552 30.3071 25.6012 30.5591C25.4472 30.8111 25.3212 31.0911 25.2092 31.4131C25.1112 31.7211 25.0552 32.0571 25.0552 32.4211C25.0132 34.2411 26.5672 35.6551 28.3172 35.6271C30.0812 35.6271 31.5932 34.2411 31.5932 32.4351ZM30.1232 32.4351C30.1232 32.9531 29.9412 33.4011 29.5912 33.7511C29.2412 34.1011 28.8212 34.2691 28.3172 34.2691C27.7992 34.2691 27.3792 34.1011 27.0292 33.7511C26.6792 33.4011 26.5112 32.9531 26.5112 32.4351C26.5112 31.9171 26.6792 31.4831 27.0292 31.1331C27.3792 30.7831 27.7992 30.6011 28.3172 30.6011C28.8212 30.6011 29.2412 30.7831 29.5912 31.1331C29.9412 31.4831 30.1232 31.9171 30.1232 32.4351Z" fill="#989898"/>
<path d="M33.0585 30.7691C33.0585 33.4991 34.2205 35.6271 36.5865 35.6271C38.9665 35.6271 40.1005 33.4991 40.1005 30.7691C40.1005 29.3551 39.8065 28.2211 39.2045 27.3671C38.6165 26.5131 37.7485 26.0791 36.5865 26.0791C35.4245 26.0791 34.5565 26.5131 33.9545 27.3811C33.3525 28.2351 33.0585 29.3691 33.0585 30.7691ZM38.5605 30.7831C38.5605 32.9671 37.9445 34.2691 36.5865 34.2691C35.2285 34.2691 34.5985 32.9671 34.5985 30.7831C34.5985 28.5571 35.2565 27.4371 36.5865 27.4371C37.9025 27.4371 38.5605 28.5571 38.5605 30.7831Z" fill="#989898"/>
<path d="M41.5985 27.4091C41.5985 29.2011 42.3685 30.4751 43.8665 30.4751C45.3645 30.4751 46.1345 29.2011 46.1345 27.4091C46.1345 25.6311 45.3645 24.4551 43.8665 24.4551C42.3685 24.4551 41.5985 25.6311 41.5985 27.4091ZM44.9585 27.4231C44.9585 28.6971 44.6085 29.4251 43.8665 29.4251C43.1385 29.4251 42.7745 28.6971 42.7745 27.4231C42.7745 26.1491 43.1385 25.5191 43.8665 25.5191C44.5945 25.5191 44.9585 26.1491 44.9585 27.4231Z" fill="#989898"/>
<path d="M6.4998 13.6581C6.44368 13.3877 6.179 13.214 5.90862 13.2701L1.50252 14.1846C1.23214 14.2407 1.05845 14.5054 1.11457 14.7758C1.17068 15.0461 1.43536 15.2198 1.70574 15.1637L5.62228 14.3508L6.43516 18.2674C6.49128 18.5378 6.75596 18.7114 7.02633 18.6553C7.29672 18.5992 7.47041 18.3345 7.41429 18.0642L6.4998 13.6581ZM5.5922 13.4853C2.45086 18.2722 0.499951 23.966 0.499952 29.9696L1.49995 29.9696C1.49995 24.1841 3.38043 18.6783 6.42826 14.034L5.5922 13.4853ZM0.499952 29.9696C0.499953 46.3082 13.6916 59.5 30.0301 59.5L30.0301 58.5C14.2439 58.5 1.49995 45.756 1.49995 29.9696L0.499952 29.9696ZM30.0301 59.5C36.1705 59.5 41.8724 57.7023 46.5292 54.3974L45.9505 53.5819C41.4709 56.761 35.9734 58.5 30.0301 58.5L30.0301 59.5Z" fill="#989898"/>
<path d="M53.4999 46.3419C53.556 46.6123 53.8207 46.786 54.0911 46.7299L58.4972 45.8154C58.7675 45.7593 58.9412 45.4946 58.8851 45.2242C58.829 44.9539 58.5643 44.7802 58.2939 44.8363L54.3774 45.6492L53.5645 41.7326C53.5084 41.4622 53.2437 41.2886 52.9734 41.3447C52.703 41.4008 52.5293 41.6655 52.5854 41.9359L53.4999 46.3419ZM54.4075 46.5147C57.5488 41.7278 59.4997 36.034 59.4997 30.0304H58.4997C58.4997 35.8159 56.6193 41.3217 53.5714 45.966L54.4075 46.5147ZM59.4997 30.0304C59.4997 13.6918 46.3081 0.5 29.9696 0.5V1.5C45.7558 1.5 58.4997 14.2441 58.4997 30.0304H59.4997ZM29.9696 0.5C23.8292 0.5 18.1273 2.29769 13.4705 5.60258L14.0492 6.41808C18.5288 3.23902 24.0263 1.5 29.9696 1.5V0.5Z" fill="#989898"/>
</svg>
