<svg width="52" height="45" viewBox="0 0 52 45" fill="none" xmlns="http://www.w3.org/2000/svg">
<rect x="0.5" y="1.0293" width="51" height="38" rx="1" fill="black"/>
<rect x="0.5" y="1.0293" width="51" height="38" rx="1" stroke="black"/>
<path d="M21.9647 39.429C21.7901 39.1785 21.3029 39.0293 21 39.0293V38.5293H31V39.0293C30.6971 39.0293 30.21 39.1785 30.0354 39.429L26.7616 43.6297C26.3908 44.1625 25.61 44.1625 25.2388 43.6297L21.9647 39.429Z" fill="black"/>
<path d="M21 39.0293H20.5V39.5293H21V39.0293ZM21.9647 39.429L21.5545 39.7149L21.5622 39.7258L21.5704 39.7364L21.9647 39.429ZM25.2388 43.6297L25.649 43.3439L25.6414 43.3329L25.6332 43.3224L25.2388 43.6297ZM26.7616 43.6297L26.3672 43.3224L26.3589 43.333L26.3512 43.3441L26.7616 43.6297ZM30.0354 39.429L30.4298 39.7364L30.438 39.7258L30.4456 39.7149L30.0354 39.429ZM31 39.0293V39.5293H31.5V39.0293H31ZM21 38.5293V38.0293C20.7239 38.0293 20.5 38.2532 20.5 38.5293H21ZM31 38.5293H31.5C31.5 38.2532 31.2761 38.0293 31 38.0293V38.5293ZM21 39.5293C21.0822 39.5293 21.2198 39.5523 21.3537 39.6029C21.418 39.6272 21.4704 39.6538 21.5085 39.6788C21.5485 39.7051 21.558 39.7199 21.5545 39.7149L22.3749 39.1431C22.2019 38.8949 21.9235 38.7492 21.7073 38.6675C21.4781 38.5809 21.2207 38.5293 21 38.5293V39.5293ZM21.5704 39.7364L24.8444 43.9371L25.6332 43.3224L22.3591 39.1216L21.5704 39.7364ZM24.8286 43.9156C25.3986 44.7337 26.6022 44.7341 27.172 43.9153L26.3512 43.3441C26.1795 43.5908 25.8214 43.5913 25.649 43.3439L24.8286 43.9156ZM27.1559 43.9371L30.4298 39.7364L29.6411 39.1216L26.3672 43.3224L27.1559 43.9371ZM30.4456 39.7149C30.4422 39.7199 30.4517 39.705 30.4916 39.6788C30.5297 39.6538 30.5822 39.6272 30.6464 39.6029C30.7803 39.5523 30.9178 39.5293 31 39.5293V38.5293C30.7793 38.5293 30.5219 38.5809 30.2928 38.6675C30.0765 38.7493 29.7982 38.8949 29.6252 39.1431L30.4456 39.7149ZM21.5 39.0293V38.5293H20.5V39.0293H21.5ZM21 39.0293H31V38.0293H21V39.0293ZM30.5 38.5293V39.0293H31.5V38.5293H30.5Z" fill="black"/>
<path d="M21 39.0293C21.3029 39.0293 21.7901 39.1785 21.9647 39.429L25.2388 43.6297C25.61 44.1625 26.3908 44.1625 26.7616 43.6297L30.0354 39.429C30.21 39.1785 30.6971 39.0293 31 39.0293" stroke="black"/>
<path d="M12.2754 21.8262V19.0899V16.3535C12.2754 15.3401 13.0682 14.5293 14.0592 14.5293L24.3647 14.5293" stroke="white" stroke-miterlimit="10"/>
<path d="M39.823 21.8262H39.7239V19.0899V16.3535C39.7239 15.3401 38.9311 14.5293 37.9401 14.5293H27.832" stroke="white" stroke-miterlimit="10"/>
<path d="M26.0469 16.3535C26.0469 15.3401 26.8397 14.5293 27.8307 14.5293" stroke="white" stroke-miterlimit="10"/>
<path d="M26.0488 16.3535C26.0488 15.3401 25.256 14.5293 24.265 14.5293" stroke="white" stroke-miterlimit="10"/>
<path d="M26.0469 21.827V19.0907V16.3543" stroke="white" stroke-miterlimit="10"/>
<path d="M42.3009 21.8264H9.69727" stroke="white" stroke-miterlimit="10"/>
<path d="M40.7162 27.7045H42.3018C42.4009 27.7045 42.5 27.6031 42.5 27.5018V24.7148V21.9278C42.5 21.8264 42.4009 21.8264 42.3018 21.8264H40.7162H10.9865H9.6982C9.5991 21.8264 9.5 21.9278 9.5 22.0291V24.8161V27.6031C9.5 27.7045 9.5991 27.7045 9.6982 27.7045H10.9865" stroke="white" stroke-miterlimit="10"/>
<path d="M9.5 27.6031C9.5 27.7045 9.5991 27.7045 9.6982 27.7045H10.9865M42.5 27.5018C42.5 27.6031 42.4009 27.7045 42.3018 27.7045H40.7162M42.5 22.4351V21.9278C42.5 21.8264 42.4009 21.8264 42.3018 21.8264H40.7162H10.9865H9.6982C9.5991 21.8264 9.5 21.9278 9.5 22.0291V22.4351" stroke="white" stroke-miterlimit="10"/>
<path d="M9.69727 27.7043H42.3009" stroke="white" stroke-miterlimit="10"/>
<path d="M24.3633 27.7043H27.3363" stroke="white" stroke-miterlimit="10"/>
<path d="M10.4902 27.5024V27.5024V29.5293" stroke="white" stroke-miterlimit="10"/>
<path d="M41.2109 29.5293V27.5024" stroke="white" stroke-miterlimit="10"/>
<path d="M26.0488 21.8262V27.7042" stroke="white" stroke-miterlimit="10"/>
</svg>
