<svg width="30" height="30" viewBox="0 0 30 30" fill="none" xmlns="http://www.w3.org/2000/svg">
<g clip-path="url(#clip0)">
<path d="M14.9992 23.55C14.9992 23.55 19.7806 17.3556 20.3436 16.1378C20.9035 14.9268 21.2992 13.6747 21.2992 12.5353C21.2992 10.9158 20.6312 9.36624 19.448 8.22643C18.2653 7.08719 16.6648 6.45 14.9992 6.45C13.3337 6.45 11.7331 7.08719 10.5504 8.22643C9.36722 9.36624 8.69922 10.9158 8.69922 12.5353C8.69922 13.6747 9.09497 14.9268 9.65482 16.1378C10.2178 17.3556 14.9992 23.55 14.9992 23.55ZM14.9992 15.1519C14.267 15.1519 13.5692 14.8715 13.0581 14.3791C12.5478 13.8876 12.2656 13.2258 12.2656 12.5409C12.2656 11.8559 12.5478 11.1941 13.0581 10.7026C13.5692 10.2103 14.267 9.92988 14.9992 9.92988C15.7314 9.92988 16.4293 10.2103 16.9403 10.7026C17.4506 11.1941 17.7329 11.8559 17.7329 12.5409C17.7329 13.2258 17.4506 13.8876 16.9403 14.3791C16.4293 14.8715 15.7314 15.1519 14.9992 15.1519Z" stroke="#404040" stroke-linecap="round" stroke-linejoin="round"/>
</g>
<rect x="0.5" y="0.5" width="29" height="29" rx="14.5" stroke="#404040"/>
<defs>
<clipPath id="clip0">
<rect width="18" height="18" fill="white" transform="translate(6 6)"/>
</clipPath>
</defs>
</svg>
