<svg width="78" height="50" viewBox="0 0 78 50" fill="none" xmlns="http://www.w3.org/2000/svg">
<path d="M22.9793 23.7147H36.1195L36.0548 20.6298H23.4971C23.044 20.6298 22.8498 20.437 22.8498 20.0514V16.7738H34.3071V13.7532H22.8498V10.6684C22.8498 10.2828 23.044 10.0257 23.4971 10.0257H36.1195V6.94087H23.2382C20.39 6.94087 19.1602 7.84062 19.1602 10.7326V20.1157C19.1602 22.4936 20.2606 23.7147 22.9793 23.7147ZM4.07801 23.7147H13.3992C16.3768 23.7147 17.3477 22.6864 17.3477 20.1157V16.9666C17.3477 14.3959 16.3768 13.3676 13.3992 13.3676H3.68963V10.6684C3.68963 10.2828 3.88382 10.09 4.33693 10.09H16.5062L16.571 6.94087H3.81909C1.10042 6.94087 0 8.09769 0 10.5398V19.9229C0 22.8149 1.29461 23.7147 4.07801 23.7147ZM3.68963 16.4524H12.9461C13.3992 16.4524 13.5934 16.6452 13.5934 17.0951V19.9871C13.5934 20.437 13.3992 20.6298 12.9461 20.6298H4.33693C3.88382 20.6298 3.68963 20.437 3.68963 20.0514V16.4524ZM48.1593 11.1825C48.3535 10.8612 48.6772 10.6684 49.0656 10.6684H51.0075V23.7147H54.6971V6.94087H48.0946C47.1237 6.94087 46.1527 7.51928 45.6996 8.35476L37.4788 23.7147H41.3627L48.1593 11.1825ZM48.6772 39.653H41.8805V36.3111H53.8556V33.162H38.1261V49.9357H48.5477C53.0141 49.9357 54.8266 47.6864 54.8266 44.7301C54.8913 41.838 53.1436 39.653 48.6772 39.653ZM48.6772 46.9152H41.8805V42.8021H48.7419C50.4249 42.8021 51.0722 43.7661 51.0722 44.8586C51.0722 45.9512 50.4249 46.9152 48.6772 46.9152ZM65.8954 0L58.9046 6.94087H71.0091V18.9589L78 12.018V0H65.8954ZM66.2838 0.899743H75.5403L61.9469 5.20566L66.2838 0.899743ZM77.029 11.6324L71.9154 16.7095V6.04113H62.7237L77.029 1.41388V11.6324ZM54.7618 26.8638H0V30.0771H54.7618V26.8638ZM27.8988 33.2262H19.4838V36.3753H27.5104C29.9054 36.3753 31.5884 37.8535 32.171 40.1028H21.2963V43.1234H32.1062C31.5884 45.437 29.8407 46.8509 27.4456 46.8509H19.4838V50H27.834C32.7535 50 36.1842 46.5938 36.1842 41.581C36.1842 36.6324 32.8183 33.2262 27.8988 33.2262ZM14.888 41.2596C16.312 40.5527 16.9593 39.3959 16.9593 37.8535C16.9593 35.09 15.0822 33.2262 10.6805 33.2262H0V50H11.2631C15.7295 50 17.5419 47.9434 17.5419 45.1799C17.5419 43.3162 16.7651 41.9666 14.888 41.2596ZM3.68963 36.3111H10.6805C12.3635 36.3111 13.0108 37.3393 13.0108 38.3676C13.0108 39.3959 12.3635 40.2314 10.6805 40.2314H3.68963V36.3111ZM11.3925 46.9152H3.68963V42.8663H11.3278C13.0755 42.8663 13.7228 43.7661 13.7228 44.8586C13.7228 45.9512 13.0755 46.9152 11.3925 46.9152Z" fill="#424449"/>
</svg>
