<svg width="213" height="34" viewBox="0 0 213 34" fill="none" xmlns="http://www.w3.org/2000/svg">
<path d="M94.8074 10.023L99.2322 6.66016H84.4189V26.8045H99.2322V23.4416H88.6513V18.2984H97.6931V14.9355H88.6513V10.023H94.8074Z" fill="#21A038"/>
<path d="M73.2267 14.5069H68.0966V10.023H76.3048L80.7295 6.66016H63.8643V26.8045H72.6817C77.6194 26.8045 80.473 24.4967 80.473 20.4744C80.473 16.617 77.908 14.5069 73.2267 14.5069ZM72.5213 23.4416H68.0966V17.8698H72.5213C75.2147 17.8698 76.4651 18.7929 76.4651 20.6722C76.4651 22.5515 75.1185 23.4416 72.5213 23.4416Z" fill="#21A038"/>
<path d="M111.232 6.66016H103.185V26.8045H107.417V21.1008H111.265C116.395 21.1008 119.601 18.3314 119.601 13.8805C119.601 9.4296 116.395 6.66016 111.232 6.66016ZM111.136 17.7379H107.385V10.023H111.136C113.862 10.023 115.337 11.4078 115.337 13.8805C115.337 16.3532 113.862 17.7379 111.136 17.7379Z" fill="#21A038"/>
<path d="M56.6177 22.4526C55.4955 23.0791 54.245 23.4088 52.9625 23.4088C49.1469 23.4088 46.3895 20.6063 46.3895 16.7489C46.3895 12.8915 49.1469 10.0891 52.9625 10.0891C54.3412 10.0561 55.6878 10.5177 56.8101 11.3419L59.8561 9.03405L59.6637 8.83623C57.9002 7.22072 55.5275 6.39648 52.8342 6.39648C49.9165 6.39648 47.2552 7.41854 45.3314 9.26483C43.4076 11.1771 42.3175 13.8476 42.3816 16.617C42.3495 19.4194 43.4076 22.1229 45.3314 24.1011C47.3514 26.0463 50.0447 27.1343 52.8022 27.0684C55.8482 27.0684 58.5094 25.9804 60.305 24.0022L57.5796 21.9251L56.6177 22.4526Z" fill="#21A038"/>
<path d="M170.48 6.69313V26.8375H174.713V18.5951H183.722V26.8375H187.955V6.69313H183.722V14.9685H174.713V6.69313H170.48ZM163.202 26.8375H167.659L159.386 6.69313H155.09L146.657 26.8375H150.922L152.621 22.7822H161.599L163.202 26.8375ZM153.904 19.4194L157.174 11.3418L160.252 19.4194H153.904ZM197.445 18.694H200.075L206.551 26.8045H212.002L203.345 16.3862L210.912 6.66016H206.07L199.786 15.2982H197.445V6.66016H193.213V26.8045H197.445V18.694ZM132.678 14.5399V10.056H143.739V6.69313H128.445V26.8375H137.263C142.2 26.8375 145.054 24.5296 145.054 20.5074C145.054 16.6499 142.489 14.5399 137.808 14.5399H132.678ZM132.678 23.4746V17.9028H137.102C139.796 17.9028 141.046 18.8259 141.046 20.7052C141.046 22.5844 139.732 23.5076 137.102 23.5076H132.678V23.4746Z" fill="#21A038"/>
<path d="M29.146 6.5293C29.9155 7.55135 30.5568 8.67232 31.1019 9.85922L16.2886 21.1018L10.0684 17.0795V12.266L16.2566 16.2553L29.146 6.5293Z" fill="#21A038"/>
<path d="M3.7514 16.7493C3.7514 16.5185 3.7514 16.3207 3.78347 16.0899L0.0320633 15.8921C0.0320633 16.1558 0 16.4526 0 16.7163C0 21.3321 1.82761 25.5192 4.77743 28.5524L7.43868 25.8159C5.16219 23.508 3.7514 20.31 3.7514 16.7493Z" fill="url(#paint0_linear)"/>
<path d="M16.2531 3.88966C16.4775 3.88966 16.6699 3.88966 16.8943 3.92263L17.0867 0.0651961C16.8302 0.0651961 16.5416 0.0322266 16.2851 0.0322266C11.7963 0.0322266 7.72424 1.91149 4.77441 4.94469L7.43567 7.68116C9.6801 5.34032 12.8223 3.88966 16.2531 3.88966Z" fill="url(#paint1_linear)"/>
<path d="M16.2565 29.6079C16.0321 29.6079 15.8397 29.6079 15.6152 29.5749L15.4229 33.4324C15.6794 33.4324 15.9679 33.4653 16.2244 33.4653C20.7133 33.4653 24.7853 31.5861 27.7351 28.5529L25.0739 25.8164C22.8295 28.1902 19.7193 29.6079 16.2565 29.6079Z" fill="url(#paint2_linear)"/>
<path d="M23.3049 6.13233L26.4792 3.72556C23.6897 1.41769 20.1306 0 16.251 0V3.85743C18.8802 3.8904 21.317 4.71464 23.3049 6.13233Z" fill="url(#paint3_linear)"/>
<path d="M32.5428 16.7483C32.5428 15.7262 32.4467 14.7371 32.2863 13.748L28.7914 16.4186C28.7914 16.5175 28.7914 16.6494 28.7914 16.7483C28.7914 20.5398 27.1883 23.9356 24.6553 26.2765L27.1883 29.1448C30.4587 26.1116 32.5428 21.6607 32.5428 16.7483Z" fill="#21A038"/>
<path d="M16.255 29.6051C12.5677 29.6051 9.26522 27.9566 6.98872 25.3521L4.19922 27.9566C7.1811 31.3525 11.4776 33.4626 16.255 33.4626V29.6051Z" fill="url(#paint4_linear)"/>
<path d="M7.88757 7.21991L5.35457 4.35156C2.05205 7.41773 0 11.8356 0 16.7481H3.7514C3.7514 12.9896 5.35457 9.56075 7.88757 7.21991Z" fill="url(#paint5_linear)"/>
<defs>
<linearGradient id="paint0_linear" x1="4.38938" y1="28.0831" x2="0.354452" y2="16.7767" gradientUnits="userSpaceOnUse">
<stop offset="0.1444" stop-color="#F2E913"/>
<stop offset="0.3037" stop-color="#E7E518"/>
<stop offset="0.5823" stop-color="#CADB26"/>
<stop offset="0.891" stop-color="#A3CD39"/>
</linearGradient>
<linearGradient id="paint1_linear" x1="5.84376" y1="4.49745" x2="15.6436" y2="0.877207" gradientUnits="userSpaceOnUse">
<stop offset="0.0592" stop-color="#0FA8E0"/>
<stop offset="0.5385" stop-color="#0099F9"/>
<stop offset="0.9234" stop-color="#0291EB"/>
</linearGradient>
<linearGradient id="paint2_linear" x1="15.2026" y1="30.1748" x2="26.8302" y2="27.6273" gradientUnits="userSpaceOnUse">
<stop offset="0.1226" stop-color="#A3CD39"/>
<stop offset="0.2846" stop-color="#86C339"/>
<stop offset="0.8693" stop-color="#21A038"/>
</linearGradient>
<linearGradient id="paint3_linear" x1="15.4802" y1="2.46806" x2="25.1712" y2="5.36667" gradientUnits="userSpaceOnUse">
<stop offset="0.0566" stop-color="#0291EB"/>
<stop offset="0.79" stop-color="#0C8ACB"/>
</linearGradient>
<linearGradient id="paint4_linear" x1="5.15307" y1="28.5832" x2="15.5806" y2="32.36" gradientUnits="userSpaceOnUse">
<stop offset="0.1324" stop-color="#F2E913"/>
<stop offset="0.2977" stop-color="#EBE716"/>
<stop offset="0.5306" stop-color="#D9E01F"/>
<stop offset="0.8023" stop-color="#BBD62D"/>
<stop offset="0.9829" stop-color="#A3CD39"/>
</linearGradient>
<linearGradient id="paint5_linear" x1="2.85447" y1="17.214" x2="7.2119" y2="6.22563" gradientUnits="userSpaceOnUse">
<stop offset="0.0698" stop-color="#A3CD39"/>
<stop offset="0.2599" stop-color="#81C55F"/>
<stop offset="0.9216" stop-color="#0FA8E0"/>
</linearGradient>
</defs>
</svg>
