<svg width="140" height="50" viewBox="0 0 140 50" fill="none" xmlns="http://www.w3.org/2000/svg">
<path fill-rule="evenodd" clip-rule="evenodd" d="M9.51186 0L7.13241 6.48956H40.1063L42.4857 0H9.51186ZM5.94195 9.73287L3.5625 16.221H36.5364L38.9158 9.73287H5.94195ZM2.37945 19.4657L0 25.9538H32.9739L35.3518 19.4657H2.37945Z" fill="#009FDF"/>
<mask id="mask0" mask-type="alpha" maskUnits="userSpaceOnUse" x="49" y="9" width="91" height="41">
<path d="M49.4707 49.6101H139.733V9.85742H49.4707V49.6101Z" fill="white"/>
</mask>
<g mask="url(#mask0)">
<path fill-rule="evenodd" clip-rule="evenodd" d="M70.0997 28.4266V28.5635C71.6067 29.1143 73.0461 30.0772 73.8003 30.6957C76.1304 32.6217 77.159 35.1661 77.159 38.4673C77.159 43.9022 74.2801 47.8219 69.551 49.0602C68.1115 49.4725 66.6046 49.6109 63.7932 49.6109H49.4707V9.85742H62.1498C64.7543 9.85742 66.5356 9.99435 68.1115 10.4066C72.7042 11.645 75.7196 14.8093 75.7196 19.8289C75.7196 22.5117 74.7599 24.7823 73.1841 26.2945C72.4988 26.9821 71.5392 27.8082 70.0997 28.4266ZM57.4206 32.6217V43.0761H62.904C64.5474 43.0761 66.0558 42.9392 67.1534 41.907C68.2495 40.8748 68.7293 39.5687 68.7293 37.8489C68.7293 36.5428 68.3859 35.3045 67.7007 34.4107C66.5356 32.9662 65.0962 32.6217 62.6296 32.6217H57.4206ZM57.3517 25.7438H61.8064C63.1769 25.7438 63.8622 25.7438 64.5474 25.5376C66.3992 24.9869 67.5642 23.3378 67.5642 21.0673C67.5642 18.3859 66.3302 17.2153 64.5474 16.6661C63.7932 16.4599 63.0405 16.3907 61.532 16.3907H57.3517V25.7438ZM89.0839 49.6109V16.5276H77.6388V9.85742H109.44L107.179 16.5276H97.0339V49.6109H89.0839ZM111.907 49.6109V9.85742H137.677L135.416 16.5276H119.789V25.3315H126.163C131.303 25.3315 133.977 26.5699 135.827 28.1513C137.266 29.3896 139.733 32.1402 139.733 37.575C139.733 42.9392 137.197 45.8959 135.073 47.4096C132.606 49.1279 130.002 49.6109 124.724 49.6109H111.907ZM119.789 42.9392H125.752C128.013 42.9392 129.384 42.3885 130.344 41.1502C130.823 40.5317 131.509 39.4303 131.509 37.3674C131.509 35.3045 130.823 33.86 129.453 32.8278C128.631 32.2094 127.534 31.8663 125.683 31.8663H119.789V42.9392Z" fill="#0A2973"/>
</g>
</svg>
