<svg width="36" height="18" viewBox="0 0 36 18" fill="none" xmlns="http://www.w3.org/2000/svg">
<path d="M2.90198 13.2266C1.62848 13.2266 0.828247 14.2019 0.828247 15.1408C0.828247 16.2233 1.62848 17.1987 2.90198 17.1987C4.02918 17.1987 4.82941 16.2233 4.82941 15.1408C4.82941 14.2019 4.02918 13.2266 2.90198 13.2266Z" fill="black"/>
<path d="M12.177 2.75636V0.842106H9.26624V17.091H12.177V5.57218C12.7949 4.38093 13.7039 3.2619 15.5953 3.2619C16.577 3.2619 17.0135 3.40635 17.813 3.87538L18.8314 1.1667C18.2854 0.769885 17.6315 0.553223 16.2852 0.553223C14.2131 0.554016 13.0132 1.5286 12.177 2.75636Z" fill="black"/>
<path d="M33.0901 12.3254C32.0724 13.6254 30.2889 14.7444 28.3983 14.7444C25.4164 14.7444 24.1796 12.9397 24.1796 9.86911V0.842285H21.2689V10.5191C21.2689 15.2857 23.6704 17.4515 27.307 17.4515C29.8892 17.4515 31.9629 16.1515 33.0901 14.7801V17.0904H36V0.842285H33.0901V12.3254Z" fill="black"/>
</svg>
