<svg width="30" height="30" viewBox="0 0 30 30" fill="none" xmlns="http://www.w3.org/2000/svg">
<path d="M0.499999 15C0.499998 6.99187 6.99187 0.499994 15 0.499994C23.0081 0.499993 29.5 6.99187 29.5 15C29.5 23.0081 23.0081 29.5 15 29.5C6.99187 29.5 0.499999 23.0081 0.499999 15Z" stroke="#27AE60"/>
<path d="M19.1919 11.4565C17.9627 12.6856 13.3161 17.0987 13.3161 17.0987L10.5932 14.484C10.3065 14.2088 9.87659 14.2088 9.58997 14.484C9.30334 14.7592 9.30334 15.1721 9.58997 15.4473C9.58997 15.4473 12.4076 18.1339 12.8861 18.6124C13.3647 19.091 13.7471 18.898 14.0326 18.6124C14.3182 18.3269 19.827 13.0745 20.4817 12.4198C21.1364 11.7651 20.421 10.2273 19.1919 11.4565Z" fill="#27AE60"/>
</svg>
