<svg width="17" height="17" viewBox="0 0 17 17" fill="none" xmlns="http://www.w3.org/2000/svg">
<path fill-rule="evenodd" clip-rule="evenodd" d="M11.2 16.5H4.8C2.1 16.5 0 14.3405 0 11.6902V5.30982C0 2.65951 2.2 0.59816 4.8 0.5H11.2C13.9 0.5 16 2.65951 16 5.30982V11.6902C16.1 14.3405 13.9 16.5 11.2 16.5ZM8.0998 11.7884C6.2998 11.7884 4.7998 10.316 4.7998 8.5491C4.7998 6.78223 6.2998 5.30984 8.0998 5.30984C9.89981 5.30984 11.3998 6.78223 11.3998 8.5491C11.3998 10.316 9.89981 11.7884 8.0998 11.7884ZM11.5 4.42638C11.5 3.83742 11.9 3.44479 12.5 3.44479C13.1 3.44479 13.5 3.93558 13.5 4.42638C13.5 5.01534 13.1 5.40798 12.5 5.40798C11.9 5.40798 11.5 5.01534 11.5 4.42638Z" fill="#989898"/>
</svg>
