<svg width="36" height="18" viewBox="0 0 36 18" fill="none" xmlns="http://www.w3.org/2000/svg">
<path d="M2.90186 13.2267C1.62836 13.2267 0.828125 14.2021 0.828125 15.1409C0.828125 16.2235 1.62836 17.1988 2.90186 17.1988C4.02906 17.1988 4.82929 16.2235 4.82929 15.1409C4.82929 14.2021 4.02906 13.2267 2.90186 13.2267Z" fill="black"/>
<path d="M12.1768 2.75624V0.841984H9.26611V17.0909H12.1768V5.57206C12.7948 4.38081 13.7038 3.26178 15.5952 3.26178C16.5769 3.26178 17.0134 3.40622 17.8128 3.87526L18.8313 1.16658C18.2853 0.769763 17.6314 0.553101 16.2851 0.553101C14.213 0.553894 13.0131 1.52848 12.1768 2.75624Z" fill="black"/>
<path d="M33.09 12.3252C32.0723 13.6251 30.2888 14.7442 28.3981 14.7442C25.4162 14.7442 24.1795 12.9394 24.1795 9.86886V0.842041H21.2688V10.5189C21.2688 15.2854 23.6703 17.4513 27.3069 17.4513C29.8891 17.4513 31.9628 16.1513 33.09 14.7799V17.0902H35.9999V0.842041H33.09V12.3252Z" fill="black"/>
</svg>
