<svg width="191" height="36" viewBox="0 0 191 36" fill="none" xmlns="http://www.w3.org/2000/svg">
<path d="M56.154 26.6863C54.4675 26.6914 52.8171 26.1976 51.4105 25.2669C50.0061 24.3373 48.9095 23.0114 48.2599 21.4575C47.6108 19.906 47.4387 18.1963 47.7655 16.5465C48.0922 14.8968 48.9031 13.3818 50.0946 12.1948C51.2875 11.0025 52.8069 10.1903 54.4611 9.86069C56.1152 9.53106 57.8298 9.69877 59.3887 10.3427C60.9483 10.9858 62.28 12.0739 63.2192 13.4705C64.3146 15.1024 64.8087 17.0642 64.6169 19.0202C64.4251 20.9762 63.5593 22.8048 62.1679 24.1928C60.5715 25.786 58.4094 26.6825 56.154 26.6863ZM56.154 0.670001C53.196 0.66309 50.2838 1.40003 47.6852 2.81306C45.0898 4.22426 42.8924 6.26739 41.2963 8.75333C38.8894 12.5017 38.0047 17.0277 38.8228 21.4065C39.6409 25.7853 42.1002 29.6865 45.6981 32.3129C48.0848 34.0605 50.873 35.1794 53.8057 35.5665C56.7384 35.9535 59.7214 35.5963 62.4798 34.5278C65.2358 33.4621 67.6789 31.7193 69.5836 29.4602C68.4218 31.6138 66.7414 33.4169 64.7963 34.5506V35.4548H73.698V18.1018C73.6755 13.4738 71.8184 9.04373 68.534 5.78319C65.2419 2.51473 60.793 0.677278 56.154 0.670001ZM140.572 26.8563H128.993V21.1718H140.353C141.773 21.1718 143.43 22.5036 143.43 24.0158C143.43 25.1127 142.568 26.8598 140.572 26.8598V26.8563ZM128.993 9.54362L138.719 9.53836C139.772 9.53836 141.513 10.623 141.513 12.3578C141.513 13.7421 140.385 15.2316 138.426 15.2316H128.993V9.54011V9.54362ZM148.482 17.1451C150.594 13.9471 150.788 9.57516 148.859 6.30713C147.902 4.68874 146.542 3.34605 144.911 2.41003C143.279 1.47213 141.432 0.97175 139.549 0.957377H120.088V35.453L141.86 35.439C148.691 35.439 152.502 29.8229 152.502 25.111C152.502 20.5778 149.914 18.3033 148.481 17.1416L148.482 17.1451ZM111.286 13.6685C114.207 21.5223 114.356 28.6471 114.356 35.4548H105.32C105.32 29.9333 105.125 24.906 103.965 20.3588C102.409 14.266 99.5145 9.83625 96.823 9.83625C94.1332 9.83625 91.2349 14.266 89.6806 20.3588C88.5206 24.906 88.3279 29.8036 88.3279 35.4548H79.2913C79.2913 29.2604 79.4385 21.5223 82.3596 13.6685C85.0826 6.35269 90.173 0.670001 96.8247 0.670001C103.476 0.670001 108.562 6.35269 111.286 13.6685ZM26.0514 0.955624H35.0914V4.58988C35.0935 7.19982 34.5103 9.77701 33.3847 12.1318C32.2582 14.4886 30.619 16.5637 28.5869 18.2052C30.6192 19.8472 32.2585 21.9229 33.3847 24.2804C34.5103 26.6351 35.0935 29.2123 35.0914 31.8223V35.4565H26.0496V30.9128C26.0498 29.7993 25.8301 28.6967 25.4031 27.6683C24.9761 26.6398 24.3502 25.7059 23.5613 24.92C21.9642 23.329 19.8018 22.4358 17.5475 22.4358C15.2932 22.4358 13.1307 23.329 11.5336 24.92C10.7441 25.7056 10.1175 26.6394 9.68992 27.6679C9.26231 28.6963 9.04207 29.799 9.04184 30.9128V35.4548H8.99628e-06V31.8205C-0.0020339 29.2106 0.581184 26.6334 1.70674 24.2787C2.83433 21.9215 4.47479 19.8464 6.50803 18.2052C4.47386 16.5638 2.83276 14.488 1.70499 12.13C0.57998 9.77512 -0.00264052 7.19794 8.99628e-06 4.58813V0.955624H9.04184V5.49757C9.04184 7.74401 9.93727 9.89933 11.5319 11.4887C13.129 13.0796 15.2914 13.9729 17.5457 13.9729C19.8 13.9729 21.9625 13.0796 23.5596 11.4887C24.3491 10.7031 24.9757 9.76923 25.4033 8.7408C25.8309 7.71237 26.0511 6.6096 26.0514 5.49582V0.957377V0.955624ZM173.454 26.6863C171.768 26.6913 170.119 26.1974 168.713 25.2669C167.662 24.5748 166.778 23.6571 166.127 22.5806C165.475 21.5041 165.071 20.2959 164.945 19.0439C164.819 17.7919 164.974 16.5275 165.398 15.3427C165.822 14.1579 166.505 13.0826 167.397 12.1948C168.289 11.3056 169.367 10.6247 170.554 10.2007C171.74 9.77672 173.006 9.62015 174.26 9.7422C175.514 9.86426 176.725 10.2619 177.808 10.9067C178.89 11.5516 179.817 12.4276 180.521 13.4723C181.616 15.1038 182.11 17.0651 181.919 19.0208C181.728 20.9764 180.862 22.8047 179.472 24.1928C177.874 25.7867 175.711 26.6832 173.454 26.6863ZM191 18.1018C190.974 13.9869 189.497 10.0131 186.83 6.88013C184.156 3.7415 180.464 1.64158 176.4 0.946863C172.332 0.250418 168.149 1.00258 164.579 3.0724C161.015 5.13713 158.292 8.39106 156.888 12.2632C155.488 16.131 155.499 20.3692 156.92 24.2296C158.343 28.0946 161.082 31.3349 164.656 33.3818C168.237 35.4336 172.423 36.1647 176.488 35.4478C180.548 34.7329 184.229 32.6143 186.887 29.4619C185.726 31.6137 184.045 33.4169 182.098 34.5506V35.4548H191V18.1018H190.998H191Z" fill="#F24D58"/>
</svg>
